G04 Layer: TopLayer*
G04 EasyEDA v6.2.46, 2019-11-12T08:41:23+00:00*
G04 a54ae0302d0d4d44958841ca790c1891,6515191c65484b44ad2e16bf32a5f50e,10*
G04 Gerber Generator version 0.2*
G04 Scale: 100 percent, Rotated: No, Reflected: No *
G04 Dimensions in millimeters *
G04 leading zeros omitted , absolute positions ,3 integer and 3 decimal *
%FSLAX33Y33*%
%MOMM*%
G90*
G71D02*

%ADD11C,0.999998*%
%ADD12C,0.499999*%
%ADD13R,3.999992X4.499991*%
%ADD14C,2.999994*%
%ADD15R,1.600200X1.600200*%
%ADD16C,1.600200*%
%ADD17C,1.199998*%
%ADD18C,0.700024*%
%ADD19C,1.574800*%

%LPD*%
G36*
G01X34439Y52321D02*
G01X358Y52321D01*
G01X343Y52320D01*
G01X329Y52317D01*
G01X315Y52312D01*
G01X303Y52305D01*
G01X291Y52296D01*
G01X281Y52286D01*
G01X272Y52274D01*
G01X265Y52262D01*
G01X260Y52248D01*
G01X257Y52234D01*
G01X256Y52219D01*
G01X256Y358D01*
G01X257Y343D01*
G01X260Y329D01*
G01X265Y315D01*
G01X272Y303D01*
G01X281Y291D01*
G01X291Y281D01*
G01X303Y272D01*
G01X315Y265D01*
G01X329Y260D01*
G01X343Y257D01*
G01X358Y256D01*
G01X34439Y256D01*
G01X34454Y257D01*
G01X34468Y260D01*
G01X34482Y265D01*
G01X34494Y272D01*
G01X34506Y281D01*
G01X34516Y291D01*
G01X34525Y303D01*
G01X34532Y315D01*
G01X34537Y329D01*
G01X34540Y343D01*
G01X34541Y358D01*
G01X34541Y52219D01*
G01X34540Y52234D01*
G01X34537Y52248D01*
G01X34532Y52262D01*
G01X34525Y52274D01*
G01X34516Y52286D01*
G01X34506Y52296D01*
G01X34494Y52305D01*
G01X34482Y52312D01*
G01X34468Y52317D01*
G01X34454Y52320D01*
G01X34439Y52321D01*
G37*

%LPC*%
G36*
G01X29177Y47206D02*
G01X25178Y47206D01*
G01X25154Y47205D01*
G01X25131Y47202D01*
G01X25108Y47196D01*
G01X25086Y47189D01*
G01X25065Y47179D01*
G01X25045Y47168D01*
G01X25025Y47155D01*
G01X25007Y47140D01*
G01X24991Y47124D01*
G01X24976Y47106D01*
G01X24963Y47086D01*
G01X24951Y47066D01*
G01X24942Y47045D01*
G01X24935Y47023D01*
G01X24929Y47000D01*
G01X24926Y46977D01*
G01X24925Y46953D01*
G01X24925Y44827D01*
G01X24924Y44811D01*
G01X24920Y44796D01*
G01X24914Y44781D01*
G01X24906Y44768D01*
G01X24895Y44755D01*
G01X21311Y41172D01*
G01X21284Y41143D01*
G01X21259Y41113D01*
G01X21235Y41082D01*
G01X21212Y41049D01*
G01X21192Y41016D01*
G01X21173Y40981D01*
G01X21156Y40946D01*
G01X21141Y40909D01*
G01X21128Y40872D01*
G01X21117Y40834D01*
G01X21107Y40796D01*
G01X21100Y40757D01*
G01X21095Y40718D01*
G01X21092Y40679D01*
G01X21091Y40640D01*
G01X21091Y25908D01*
G01X21092Y25868D01*
G01X21095Y25829D01*
G01X21100Y25790D01*
G01X21107Y25751D01*
G01X21117Y25713D01*
G01X21128Y25675D01*
G01X21141Y25638D01*
G01X21156Y25601D01*
G01X21173Y25566D01*
G01X21192Y25531D01*
G01X21212Y25498D01*
G01X21235Y25465D01*
G01X21259Y25434D01*
G01X21284Y25404D01*
G01X21311Y25375D01*
G01X24617Y22070D01*
G01X24628Y22057D01*
G01X24636Y22044D01*
G01X24642Y22029D01*
G01X24646Y22014D01*
G01X24647Y21998D01*
G01X24647Y19572D01*
G01X24646Y19557D01*
G01X24643Y19542D01*
G01X24637Y19528D01*
G01X24630Y19515D01*
G01X24621Y19503D01*
G01X24589Y19467D01*
G01X24559Y19429D01*
G01X24530Y19389D01*
G01X24504Y19349D01*
G01X24479Y19307D01*
G01X24457Y19264D01*
G01X24436Y19220D01*
G01X24418Y19175D01*
G01X24401Y19129D01*
G01X24387Y19083D01*
G01X24375Y19036D01*
G01X24365Y18989D01*
G01X24357Y18941D01*
G01X24351Y18892D01*
G01X24348Y18844D01*
G01X24347Y18796D01*
G01X24348Y18748D01*
G01X24351Y18701D01*
G01X24356Y18654D01*
G01X24364Y18608D01*
G01X24373Y18561D01*
G01X24385Y18515D01*
G01X24398Y18470D01*
G01X24414Y18426D01*
G01X24432Y18382D01*
G01X24451Y18339D01*
G01X24473Y18297D01*
G01X24496Y18256D01*
G01X24521Y18216D01*
G01X24548Y18177D01*
G01X24577Y18139D01*
G01X24607Y18103D01*
G01X24639Y18068D01*
G01X24672Y18035D01*
G01X24707Y18003D01*
G01X24743Y17973D01*
G01X24781Y17944D01*
G01X24820Y17917D01*
G01X24860Y17892D01*
G01X24901Y17869D01*
G01X24943Y17847D01*
G01X24986Y17828D01*
G01X25030Y17810D01*
G01X25074Y17794D01*
G01X25119Y17781D01*
G01X25165Y17769D01*
G01X25212Y17760D01*
G01X25258Y17752D01*
G01X25305Y17747D01*
G01X25352Y17744D01*
G01X25400Y17743D01*
G01X25447Y17744D01*
G01X25494Y17747D01*
G01X25541Y17752D01*
G01X25587Y17760D01*
G01X25634Y17769D01*
G01X25680Y17781D01*
G01X25725Y17794D01*
G01X25769Y17810D01*
G01X25813Y17828D01*
G01X25856Y17847D01*
G01X25898Y17869D01*
G01X25939Y17892D01*
G01X25979Y17917D01*
G01X26018Y17944D01*
G01X26056Y17973D01*
G01X26092Y18003D01*
G01X26127Y18035D01*
G01X26160Y18068D01*
G01X26192Y18103D01*
G01X26222Y18139D01*
G01X26251Y18177D01*
G01X26278Y18216D01*
G01X26303Y18256D01*
G01X26326Y18297D01*
G01X26348Y18339D01*
G01X26367Y18382D01*
G01X26385Y18426D01*
G01X26401Y18470D01*
G01X26414Y18515D01*
G01X26426Y18561D01*
G01X26435Y18608D01*
G01X26443Y18654D01*
G01X26448Y18701D01*
G01X26451Y18748D01*
G01X26452Y18796D01*
G01X26451Y18844D01*
G01X26448Y18892D01*
G01X26442Y18941D01*
G01X26434Y18989D01*
G01X26424Y19036D01*
G01X26412Y19083D01*
G01X26398Y19129D01*
G01X26381Y19175D01*
G01X26363Y19220D01*
G01X26342Y19264D01*
G01X26320Y19307D01*
G01X26295Y19349D01*
G01X26269Y19389D01*
G01X26240Y19429D01*
G01X26210Y19467D01*
G01X26178Y19503D01*
G01X26169Y19515D01*
G01X26162Y19528D01*
G01X26156Y19542D01*
G01X26153Y19557D01*
G01X26152Y19572D01*
G01X26152Y22351D01*
G01X26151Y22391D01*
G01X26148Y22430D01*
G01X26143Y22469D01*
G01X26136Y22508D01*
G01X26126Y22546D01*
G01X26115Y22584D01*
G01X26102Y22621D01*
G01X26087Y22658D01*
G01X26070Y22693D01*
G01X26051Y22728D01*
G01X26031Y22761D01*
G01X26008Y22794D01*
G01X25984Y22825D01*
G01X25959Y22855D01*
G01X25932Y22884D01*
G01X22626Y26189D01*
G01X22615Y26202D01*
G01X22607Y26215D01*
G01X22601Y26230D01*
G01X22597Y26245D01*
G01X22596Y26261D01*
G01X22596Y40286D01*
G01X22597Y40302D01*
G01X22601Y40317D01*
G01X22607Y40332D01*
G01X22615Y40345D01*
G01X22626Y40358D01*
G01X24754Y42486D01*
G01X24766Y42496D01*
G01X24780Y42504D01*
G01X24794Y42510D01*
G01X24810Y42514D01*
G01X24826Y42515D01*
G01X24840Y42514D01*
G01X24855Y42511D01*
G01X24869Y42506D01*
G01X24882Y42499D01*
G01X24893Y42490D01*
G01X24904Y42479D01*
G01X24912Y42467D01*
G01X24919Y42454D01*
G01X24924Y42440D01*
G01X24927Y42425D01*
G01X24930Y42402D01*
G01X24936Y42380D01*
G01X24944Y42358D01*
G01X24953Y42338D01*
G01X24965Y42318D01*
G01X24978Y42299D01*
G01X24993Y42281D01*
G01X25009Y42265D01*
G01X25027Y42251D01*
G01X25046Y42238D01*
G01X25066Y42227D01*
G01X25087Y42218D01*
G01X25109Y42210D01*
G01X25132Y42205D01*
G01X25155Y42202D01*
G01X25178Y42201D01*
G01X29177Y42201D01*
G01X29201Y42202D01*
G01X29224Y42205D01*
G01X29247Y42211D01*
G01X29269Y42218D01*
G01X29290Y42227D01*
G01X29310Y42239D01*
G01X29330Y42252D01*
G01X29348Y42267D01*
G01X29364Y42283D01*
G01X29379Y42301D01*
G01X29392Y42321D01*
G01X29404Y42341D01*
G01X29413Y42362D01*
G01X29420Y42384D01*
G01X29426Y42407D01*
G01X29429Y42430D01*
G01X29430Y42453D01*
G01X29430Y46953D01*
G01X29429Y46977D01*
G01X29426Y47000D01*
G01X29420Y47023D01*
G01X29413Y47045D01*
G01X29404Y47066D01*
G01X29392Y47086D01*
G01X29379Y47106D01*
G01X29364Y47124D01*
G01X29348Y47140D01*
G01X29330Y47155D01*
G01X29310Y47168D01*
G01X29290Y47179D01*
G01X29269Y47189D01*
G01X29247Y47196D01*
G01X29224Y47202D01*
G01X29201Y47205D01*
G01X29177Y47206D01*
G37*
G36*
G01X7426Y23087D02*
G01X7366Y23088D01*
G01X7306Y23087D01*
G01X7246Y23084D01*
G01X7186Y23079D01*
G01X7127Y23072D01*
G01X7068Y23062D01*
G01X7009Y23051D01*
G01X6951Y23038D01*
G01X6893Y23023D01*
G01X6835Y23006D01*
G01X6779Y22987D01*
G01X6723Y22966D01*
G01X6667Y22943D01*
G01X6613Y22918D01*
G01X6559Y22891D01*
G01X6507Y22863D01*
G01X6455Y22833D01*
G01X6404Y22801D01*
G01X6355Y22767D01*
G01X6307Y22732D01*
G01X6260Y22695D01*
G01X6214Y22656D01*
G01X6169Y22616D01*
G01X6126Y22575D01*
G01X6085Y22532D01*
G01X6045Y22487D01*
G01X6006Y22441D01*
G01X5969Y22394D01*
G01X5934Y22346D01*
G01X5900Y22297D01*
G01X5868Y22246D01*
G01X5838Y22194D01*
G01X5810Y22142D01*
G01X5783Y22088D01*
G01X5758Y22034D01*
G01X5735Y21978D01*
G01X5714Y21922D01*
G01X5695Y21866D01*
G01X5678Y21808D01*
G01X5663Y21750D01*
G01X5650Y21692D01*
G01X5639Y21633D01*
G01X5629Y21574D01*
G01X5622Y21515D01*
G01X5617Y21455D01*
G01X5614Y21395D01*
G01X5613Y21336D01*
G01X5614Y21276D01*
G01X5617Y21216D01*
G01X5622Y21156D01*
G01X5629Y21097D01*
G01X5639Y21038D01*
G01X5650Y20979D01*
G01X5663Y20921D01*
G01X5678Y20863D01*
G01X5695Y20805D01*
G01X5714Y20749D01*
G01X5735Y20693D01*
G01X5758Y20637D01*
G01X5783Y20583D01*
G01X5810Y20529D01*
G01X5838Y20477D01*
G01X5868Y20425D01*
G01X5900Y20374D01*
G01X5934Y20325D01*
G01X5969Y20277D01*
G01X6006Y20230D01*
G01X6045Y20184D01*
G01X6085Y20139D01*
G01X6126Y20096D01*
G01X6169Y20055D01*
G01X6214Y20015D01*
G01X6260Y19976D01*
G01X6307Y19939D01*
G01X6355Y19904D01*
G01X6404Y19870D01*
G01X6455Y19838D01*
G01X6507Y19808D01*
G01X6559Y19780D01*
G01X6613Y19753D01*
G01X6667Y19728D01*
G01X6723Y19705D01*
G01X6779Y19684D01*
G01X6835Y19665D01*
G01X6893Y19648D01*
G01X6951Y19633D01*
G01X7009Y19620D01*
G01X7068Y19609D01*
G01X7127Y19599D01*
G01X7186Y19592D01*
G01X7246Y19587D01*
G01X7306Y19584D01*
G01X7366Y19583D01*
G01X7426Y19584D01*
G01X7486Y19587D01*
G01X7546Y19592D01*
G01X7606Y19600D01*
G01X7666Y19609D01*
G01X7725Y19620D01*
G01X7784Y19634D01*
G01X7842Y19649D01*
G01X7900Y19666D01*
G01X7957Y19686D01*
G01X8013Y19707D01*
G01X8069Y19730D01*
G01X8124Y19756D01*
G01X8178Y19783D01*
G01X8231Y19811D01*
G01X8282Y19842D01*
G01X8333Y19874D01*
G01X8383Y19909D01*
G01X8431Y19945D01*
G01X8479Y19982D01*
G01X8525Y20021D01*
G01X8569Y20062D01*
G01X8612Y20104D01*
G01X8654Y20148D01*
G01X8694Y20193D01*
G01X8733Y20239D01*
G01X8769Y20287D01*
G01X8805Y20336D01*
G01X8838Y20386D01*
G01X8870Y20437D01*
G01X8900Y20489D01*
G01X8928Y20543D01*
G01X8955Y20597D01*
G01X8979Y20652D01*
G01X9002Y20708D01*
G01X9022Y20765D01*
G01X9029Y20779D01*
G01X9037Y20792D01*
G01X9047Y20804D01*
G01X9059Y20814D01*
G01X9073Y20822D01*
G01X9087Y20828D01*
G01X9103Y20832D01*
G01X9118Y20833D01*
G01X9401Y20833D01*
G01X9417Y20832D01*
G01X9433Y20828D01*
G01X9447Y20822D01*
G01X9461Y20814D01*
G01X9473Y20803D01*
G01X11151Y19125D01*
G01X11162Y19113D01*
G01X11170Y19099D01*
G01X11176Y19085D01*
G01X11180Y19069D01*
G01X11181Y19053D01*
G01X11181Y15493D01*
G01X11182Y15461D01*
G01X11185Y15428D01*
G01X11191Y15395D01*
G01X11198Y15363D01*
G01X11208Y15332D01*
G01X11219Y15301D01*
G01X11233Y15271D01*
G01X11248Y15242D01*
G01X11266Y15214D01*
G01X11285Y15188D01*
G01X11306Y15162D01*
G01X11328Y15138D01*
G01X14630Y11836D01*
G01X14654Y11814D01*
G01X14680Y11793D01*
G01X14706Y11774D01*
G01X14734Y11756D01*
G01X14763Y11741D01*
G01X14793Y11727D01*
G01X14824Y11716D01*
G01X14855Y11706D01*
G01X14887Y11699D01*
G01X14920Y11693D01*
G01X14953Y11690D01*
G01X14986Y11689D01*
G01X15033Y11689D01*
G01X15048Y11688D01*
G01X15062Y11685D01*
G01X15076Y11680D01*
G01X15089Y11672D01*
G01X15100Y11664D01*
G01X15111Y11653D01*
G01X15119Y11641D01*
G01X15145Y11601D01*
G01X15174Y11562D01*
G01X15203Y11525D01*
G01X15235Y11489D01*
G01X15268Y11454D01*
G01X15303Y11421D01*
G01X15339Y11390D01*
G01X15377Y11360D01*
G01X15415Y11332D01*
G01X15456Y11306D01*
G01X15497Y11282D01*
G01X15539Y11260D01*
G01X15583Y11240D01*
G01X15627Y11221D01*
G01X15672Y11205D01*
G01X15718Y11191D01*
G01X15764Y11179D01*
G01X15811Y11169D01*
G01X15858Y11162D01*
G01X15906Y11156D01*
G01X15954Y11153D01*
G01X16002Y11152D01*
G01X16048Y11153D01*
G01X16095Y11156D01*
G01X16141Y11161D01*
G01X16187Y11168D01*
G01X16233Y11178D01*
G01X16278Y11189D01*
G01X16323Y11203D01*
G01X16367Y11218D01*
G01X16410Y11235D01*
G01X16453Y11255D01*
G01X16494Y11276D01*
G01X16535Y11299D01*
G01X16574Y11324D01*
G01X16613Y11350D01*
G01X16650Y11378D01*
G01X16686Y11408D01*
G01X16720Y11440D01*
G01X16753Y11473D01*
G01X16785Y11507D01*
G01X16815Y11543D01*
G01X16843Y11580D01*
G01X16869Y11619D01*
G01X16894Y11658D01*
G01X16917Y11699D01*
G01X16938Y11740D01*
G01X16958Y11783D01*
G01X16975Y11826D01*
G01X16990Y11870D01*
G01X17004Y11915D01*
G01X17015Y11960D01*
G01X17025Y12006D01*
G01X17032Y12052D01*
G01X17037Y12098D01*
G01X17040Y12145D01*
G01X17041Y12192D01*
G01X17040Y12238D01*
G01X17037Y12285D01*
G01X17032Y12331D01*
G01X17025Y12377D01*
G01X17015Y12423D01*
G01X17004Y12468D01*
G01X16990Y12513D01*
G01X16975Y12557D01*
G01X16958Y12600D01*
G01X16938Y12643D01*
G01X16917Y12684D01*
G01X16894Y12725D01*
G01X16869Y12764D01*
G01X16843Y12803D01*
G01X16815Y12840D01*
G01X16785Y12876D01*
G01X16753Y12910D01*
G01X16720Y12943D01*
G01X16686Y12975D01*
G01X16650Y13005D01*
G01X16613Y13033D01*
G01X16574Y13059D01*
G01X16535Y13084D01*
G01X16494Y13107D01*
G01X16453Y13128D01*
G01X16410Y13148D01*
G01X16367Y13165D01*
G01X16323Y13180D01*
G01X16278Y13194D01*
G01X16233Y13205D01*
G01X16187Y13215D01*
G01X16141Y13222D01*
G01X16095Y13227D01*
G01X16048Y13230D01*
G01X16001Y13231D01*
G01X15955Y13230D01*
G01X15910Y13227D01*
G01X15864Y13222D01*
G01X15818Y13215D01*
G01X15773Y13206D01*
G01X15728Y13195D01*
G01X15684Y13182D01*
G01X15641Y13167D01*
G01X15598Y13150D01*
G01X15556Y13131D01*
G01X15515Y13110D01*
G01X15475Y13088D01*
G01X15435Y13064D01*
G01X15397Y13038D01*
G01X15360Y13010D01*
G01X15325Y12981D01*
G01X15290Y12950D01*
G01X15258Y12918D01*
G01X15226Y12884D01*
G01X15196Y12849D01*
G01X15186Y12839D01*
G01X15174Y12829D01*
G01X15161Y12822D01*
G01X15147Y12817D01*
G01X15133Y12813D01*
G01X15118Y12812D01*
G01X15102Y12813D01*
G01X15086Y12817D01*
G01X15071Y12823D01*
G01X15058Y12832D01*
G01X15046Y12842D01*
G01X12216Y15672D01*
G01X12205Y15684D01*
G01X12197Y15698D01*
G01X12191Y15712D01*
G01X12187Y15728D01*
G01X12186Y15744D01*
G01X12186Y19304D01*
G01X12185Y19336D01*
G01X12182Y19369D01*
G01X12176Y19402D01*
G01X12169Y19434D01*
G01X12159Y19465D01*
G01X12148Y19496D01*
G01X12134Y19526D01*
G01X12119Y19555D01*
G01X12101Y19583D01*
G01X12082Y19609D01*
G01X12061Y19635D01*
G01X12039Y19659D01*
G01X10007Y21691D01*
G01X9983Y21713D01*
G01X9957Y21734D01*
G01X9931Y21753D01*
G01X9903Y21771D01*
G01X9874Y21786D01*
G01X9844Y21800D01*
G01X9813Y21811D01*
G01X9782Y21821D01*
G01X9750Y21828D01*
G01X9717Y21834D01*
G01X9684Y21837D01*
G01X9652Y21838D01*
G01X9118Y21838D01*
G01X9103Y21839D01*
G01X9087Y21843D01*
G01X9073Y21849D01*
G01X9059Y21857D01*
G01X9047Y21867D01*
G01X9037Y21879D01*
G01X9029Y21892D01*
G01X9022Y21906D01*
G01X9002Y21963D01*
G01X8979Y22019D01*
G01X8955Y22074D01*
G01X8928Y22128D01*
G01X8900Y22182D01*
G01X8870Y22234D01*
G01X8838Y22285D01*
G01X8805Y22335D01*
G01X8769Y22384D01*
G01X8733Y22432D01*
G01X8694Y22478D01*
G01X8654Y22523D01*
G01X8612Y22567D01*
G01X8569Y22609D01*
G01X8525Y22650D01*
G01X8479Y22689D01*
G01X8431Y22726D01*
G01X8383Y22762D01*
G01X8333Y22797D01*
G01X8282Y22829D01*
G01X8231Y22860D01*
G01X8178Y22888D01*
G01X8124Y22915D01*
G01X8069Y22941D01*
G01X8013Y22964D01*
G01X7957Y22985D01*
G01X7900Y23005D01*
G01X7842Y23022D01*
G01X7784Y23037D01*
G01X7725Y23051D01*
G01X7666Y23062D01*
G01X7606Y23071D01*
G01X7546Y23079D01*
G01X7486Y23084D01*
G01X7426Y23087D01*
G37*
G36*
G01X7425Y18007D02*
G01X7366Y18008D01*
G01X7306Y18007D01*
G01X7246Y18004D01*
G01X7186Y17999D01*
G01X7127Y17992D01*
G01X7068Y17982D01*
G01X7009Y17971D01*
G01X6951Y17958D01*
G01X6893Y17943D01*
G01X6835Y17926D01*
G01X6779Y17907D01*
G01X6723Y17886D01*
G01X6667Y17863D01*
G01X6613Y17838D01*
G01X6559Y17811D01*
G01X6507Y17783D01*
G01X6455Y17753D01*
G01X6404Y17721D01*
G01X6355Y17687D01*
G01X6307Y17652D01*
G01X6260Y17615D01*
G01X6214Y17576D01*
G01X6169Y17536D01*
G01X6126Y17495D01*
G01X6085Y17452D01*
G01X6045Y17407D01*
G01X6006Y17361D01*
G01X5969Y17314D01*
G01X5934Y17266D01*
G01X5900Y17217D01*
G01X5868Y17166D01*
G01X5838Y17114D01*
G01X5810Y17062D01*
G01X5783Y17008D01*
G01X5758Y16954D01*
G01X5735Y16898D01*
G01X5714Y16842D01*
G01X5695Y16786D01*
G01X5678Y16728D01*
G01X5663Y16670D01*
G01X5650Y16612D01*
G01X5639Y16553D01*
G01X5629Y16494D01*
G01X5622Y16435D01*
G01X5617Y16375D01*
G01X5614Y16315D01*
G01X5613Y16256D01*
G01X5614Y16196D01*
G01X5617Y16136D01*
G01X5622Y16076D01*
G01X5629Y16017D01*
G01X5639Y15958D01*
G01X5650Y15899D01*
G01X5663Y15841D01*
G01X5678Y15783D01*
G01X5695Y15725D01*
G01X5714Y15669D01*
G01X5735Y15613D01*
G01X5758Y15557D01*
G01X5783Y15503D01*
G01X5810Y15449D01*
G01X5838Y15397D01*
G01X5868Y15345D01*
G01X5900Y15294D01*
G01X5934Y15245D01*
G01X5969Y15197D01*
G01X6006Y15150D01*
G01X6045Y15104D01*
G01X6085Y15059D01*
G01X6126Y15016D01*
G01X6169Y14975D01*
G01X6214Y14935D01*
G01X6260Y14896D01*
G01X6307Y14859D01*
G01X6355Y14824D01*
G01X6404Y14790D01*
G01X6455Y14758D01*
G01X6507Y14728D01*
G01X6559Y14700D01*
G01X6613Y14673D01*
G01X6667Y14648D01*
G01X6723Y14625D01*
G01X6779Y14604D01*
G01X6835Y14585D01*
G01X6893Y14568D01*
G01X6951Y14553D01*
G01X7009Y14540D01*
G01X7068Y14529D01*
G01X7127Y14519D01*
G01X7186Y14512D01*
G01X7246Y14507D01*
G01X7306Y14504D01*
G01X7366Y14503D01*
G01X7427Y14504D01*
G01X7488Y14507D01*
G01X7549Y14513D01*
G01X7609Y14520D01*
G01X7670Y14530D01*
G01X7730Y14541D01*
G01X7789Y14555D01*
G01X7848Y14571D01*
G01X7907Y14589D01*
G01X7965Y14609D01*
G01X8022Y14630D01*
G01X8078Y14654D01*
G01X8133Y14680D01*
G01X8148Y14686D01*
G01X8163Y14689D01*
G01X8178Y14690D01*
G01X8194Y14689D01*
G01X8209Y14685D01*
G01X8224Y14679D01*
G01X8238Y14671D01*
G01X8250Y14661D01*
G01X13614Y9296D01*
G01X13638Y9274D01*
G01X13664Y9253D01*
G01X13690Y9234D01*
G01X13718Y9216D01*
G01X13747Y9201D01*
G01X13777Y9187D01*
G01X13808Y9176D01*
G01X13839Y9166D01*
G01X13871Y9159D01*
G01X13904Y9153D01*
G01X13937Y9150D01*
G01X13970Y9149D01*
G01X15033Y9149D01*
G01X15048Y9148D01*
G01X15062Y9145D01*
G01X15076Y9140D01*
G01X15089Y9132D01*
G01X15100Y9124D01*
G01X15111Y9113D01*
G01X15119Y9101D01*
G01X15145Y9061D01*
G01X15174Y9022D01*
G01X15203Y8985D01*
G01X15235Y8949D01*
G01X15268Y8914D01*
G01X15303Y8881D01*
G01X15339Y8850D01*
G01X15377Y8820D01*
G01X15415Y8792D01*
G01X15456Y8766D01*
G01X15497Y8742D01*
G01X15539Y8720D01*
G01X15583Y8700D01*
G01X15627Y8681D01*
G01X15672Y8665D01*
G01X15718Y8651D01*
G01X15764Y8639D01*
G01X15811Y8629D01*
G01X15858Y8622D01*
G01X15906Y8616D01*
G01X15954Y8613D01*
G01X16002Y8612D01*
G01X16048Y8613D01*
G01X16095Y8616D01*
G01X16141Y8621D01*
G01X16187Y8628D01*
G01X16233Y8638D01*
G01X16278Y8649D01*
G01X16323Y8663D01*
G01X16367Y8678D01*
G01X16410Y8695D01*
G01X16453Y8715D01*
G01X16494Y8736D01*
G01X16535Y8759D01*
G01X16574Y8784D01*
G01X16613Y8810D01*
G01X16650Y8838D01*
G01X16686Y8868D01*
G01X16720Y8900D01*
G01X16753Y8933D01*
G01X16785Y8967D01*
G01X16815Y9003D01*
G01X16843Y9040D01*
G01X16869Y9079D01*
G01X16894Y9118D01*
G01X16917Y9159D01*
G01X16938Y9200D01*
G01X16958Y9243D01*
G01X16975Y9286D01*
G01X16990Y9330D01*
G01X17004Y9375D01*
G01X17015Y9420D01*
G01X17025Y9466D01*
G01X17032Y9512D01*
G01X17037Y9558D01*
G01X17040Y9605D01*
G01X17041Y9652D01*
G01X17040Y9698D01*
G01X17037Y9745D01*
G01X17032Y9791D01*
G01X17025Y9837D01*
G01X17015Y9883D01*
G01X17004Y9928D01*
G01X16990Y9973D01*
G01X16975Y10017D01*
G01X16958Y10060D01*
G01X16938Y10103D01*
G01X16917Y10144D01*
G01X16894Y10185D01*
G01X16869Y10224D01*
G01X16843Y10263D01*
G01X16815Y10300D01*
G01X16785Y10336D01*
G01X16753Y10370D01*
G01X16720Y10403D01*
G01X16686Y10435D01*
G01X16650Y10465D01*
G01X16613Y10493D01*
G01X16574Y10519D01*
G01X16535Y10544D01*
G01X16494Y10567D01*
G01X16453Y10588D01*
G01X16410Y10608D01*
G01X16367Y10625D01*
G01X16323Y10640D01*
G01X16278Y10654D01*
G01X16233Y10665D01*
G01X16187Y10675D01*
G01X16141Y10682D01*
G01X16095Y10687D01*
G01X16048Y10690D01*
G01X16002Y10691D01*
G01X15954Y10690D01*
G01X15906Y10687D01*
G01X15858Y10681D01*
G01X15811Y10674D01*
G01X15764Y10664D01*
G01X15718Y10652D01*
G01X15672Y10638D01*
G01X15627Y10622D01*
G01X15583Y10603D01*
G01X15539Y10583D01*
G01X15497Y10561D01*
G01X15456Y10537D01*
G01X15415Y10511D01*
G01X15377Y10483D01*
G01X15339Y10453D01*
G01X15303Y10422D01*
G01X15268Y10389D01*
G01X15235Y10354D01*
G01X15203Y10318D01*
G01X15174Y10281D01*
G01X15145Y10242D01*
G01X15119Y10202D01*
G01X15111Y10190D01*
G01X15100Y10179D01*
G01X15089Y10171D01*
G01X15076Y10163D01*
G01X15062Y10158D01*
G01X15048Y10155D01*
G01X15033Y10154D01*
G01X14220Y10154D01*
G01X14204Y10155D01*
G01X14188Y10159D01*
G01X14174Y10165D01*
G01X14160Y10173D01*
G01X14148Y10184D01*
G01X8960Y15371D01*
G01X8950Y15383D01*
G01X8942Y15397D01*
G01X8936Y15412D01*
G01X8932Y15427D01*
G01X8931Y15443D01*
G01X8932Y15458D01*
G01X8935Y15473D01*
G01X8941Y15488D01*
G01X8967Y15543D01*
G01X8991Y15599D01*
G01X9012Y15656D01*
G01X9032Y15714D01*
G01X9050Y15773D01*
G01X9066Y15832D01*
G01X9080Y15891D01*
G01X9091Y15951D01*
G01X9101Y16012D01*
G01X9108Y16072D01*
G01X9114Y16133D01*
G01X9117Y16194D01*
G01X9118Y16255D01*
G01X9117Y16315D01*
G01X9114Y16375D01*
G01X9109Y16435D01*
G01X9102Y16494D01*
G01X9092Y16553D01*
G01X9081Y16612D01*
G01X9068Y16670D01*
G01X9053Y16728D01*
G01X9036Y16786D01*
G01X9017Y16842D01*
G01X8996Y16898D01*
G01X8973Y16954D01*
G01X8948Y17008D01*
G01X8921Y17062D01*
G01X8893Y17114D01*
G01X8863Y17166D01*
G01X8831Y17217D01*
G01X8797Y17266D01*
G01X8762Y17314D01*
G01X8725Y17361D01*
G01X8686Y17407D01*
G01X8646Y17452D01*
G01X8605Y17495D01*
G01X8562Y17536D01*
G01X8517Y17576D01*
G01X8471Y17615D01*
G01X8424Y17652D01*
G01X8376Y17687D01*
G01X8327Y17721D01*
G01X8276Y17753D01*
G01X8224Y17783D01*
G01X8172Y17811D01*
G01X8118Y17838D01*
G01X8064Y17863D01*
G01X8008Y17886D01*
G01X7952Y17907D01*
G01X7896Y17926D01*
G01X7838Y17943D01*
G01X7780Y17958D01*
G01X7722Y17971D01*
G01X7663Y17982D01*
G01X7604Y17992D01*
G01X7545Y17999D01*
G01X7485Y18004D01*
G01X7425Y18007D01*
G37*
G36*
G01X7425Y12927D02*
G01X7366Y12928D01*
G01X7306Y12927D01*
G01X7246Y12924D01*
G01X7186Y12919D01*
G01X7127Y12912D01*
G01X7068Y12902D01*
G01X7009Y12891D01*
G01X6951Y12878D01*
G01X6893Y12863D01*
G01X6835Y12846D01*
G01X6779Y12827D01*
G01X6723Y12806D01*
G01X6667Y12783D01*
G01X6613Y12758D01*
G01X6559Y12731D01*
G01X6507Y12703D01*
G01X6455Y12673D01*
G01X6404Y12641D01*
G01X6355Y12607D01*
G01X6307Y12572D01*
G01X6260Y12535D01*
G01X6214Y12496D01*
G01X6169Y12456D01*
G01X6126Y12415D01*
G01X6085Y12372D01*
G01X6045Y12327D01*
G01X6006Y12281D01*
G01X5969Y12234D01*
G01X5934Y12186D01*
G01X5900Y12137D01*
G01X5868Y12086D01*
G01X5838Y12034D01*
G01X5810Y11982D01*
G01X5783Y11928D01*
G01X5758Y11874D01*
G01X5735Y11818D01*
G01X5714Y11762D01*
G01X5695Y11706D01*
G01X5678Y11648D01*
G01X5663Y11590D01*
G01X5650Y11532D01*
G01X5639Y11473D01*
G01X5629Y11414D01*
G01X5622Y11355D01*
G01X5617Y11295D01*
G01X5614Y11235D01*
G01X5613Y11176D01*
G01X5614Y11116D01*
G01X5617Y11056D01*
G01X5622Y10996D01*
G01X5629Y10937D01*
G01X5639Y10878D01*
G01X5650Y10819D01*
G01X5663Y10761D01*
G01X5678Y10703D01*
G01X5695Y10645D01*
G01X5714Y10589D01*
G01X5735Y10533D01*
G01X5758Y10477D01*
G01X5783Y10423D01*
G01X5810Y10369D01*
G01X5838Y10317D01*
G01X5868Y10265D01*
G01X5900Y10214D01*
G01X5934Y10165D01*
G01X5969Y10117D01*
G01X6006Y10070D01*
G01X6045Y10024D01*
G01X6085Y9979D01*
G01X6126Y9936D01*
G01X6169Y9895D01*
G01X6214Y9855D01*
G01X6260Y9816D01*
G01X6307Y9779D01*
G01X6355Y9744D01*
G01X6404Y9710D01*
G01X6455Y9678D01*
G01X6507Y9648D01*
G01X6559Y9620D01*
G01X6613Y9593D01*
G01X6667Y9568D01*
G01X6723Y9545D01*
G01X6779Y9524D01*
G01X6835Y9505D01*
G01X6893Y9488D01*
G01X6951Y9473D01*
G01X7009Y9460D01*
G01X7068Y9449D01*
G01X7127Y9439D01*
G01X7186Y9432D01*
G01X7246Y9427D01*
G01X7306Y9424D01*
G01X7366Y9423D01*
G01X7427Y9424D01*
G01X7488Y9427D01*
G01X7549Y9433D01*
G01X7609Y9440D01*
G01X7670Y9450D01*
G01X7730Y9461D01*
G01X7789Y9475D01*
G01X7848Y9491D01*
G01X7907Y9509D01*
G01X7965Y9529D01*
G01X8022Y9550D01*
G01X8078Y9574D01*
G01X8133Y9600D01*
G01X8148Y9606D01*
G01X8163Y9609D01*
G01X8178Y9610D01*
G01X8194Y9609D01*
G01X8209Y9605D01*
G01X8224Y9599D01*
G01X8238Y9591D01*
G01X8250Y9581D01*
G01X11074Y6756D01*
G01X11098Y6734D01*
G01X11124Y6713D01*
G01X11150Y6694D01*
G01X11178Y6676D01*
G01X11207Y6661D01*
G01X11237Y6647D01*
G01X11268Y6636D01*
G01X11299Y6626D01*
G01X11331Y6619D01*
G01X11364Y6613D01*
G01X11397Y6610D01*
G01X11430Y6609D01*
G01X15033Y6609D01*
G01X15048Y6608D01*
G01X15062Y6605D01*
G01X15076Y6600D01*
G01X15089Y6592D01*
G01X15100Y6584D01*
G01X15111Y6573D01*
G01X15119Y6561D01*
G01X15145Y6521D01*
G01X15174Y6482D01*
G01X15203Y6445D01*
G01X15235Y6409D01*
G01X15268Y6374D01*
G01X15303Y6341D01*
G01X15339Y6310D01*
G01X15377Y6280D01*
G01X15415Y6252D01*
G01X15456Y6226D01*
G01X15497Y6202D01*
G01X15539Y6180D01*
G01X15583Y6160D01*
G01X15627Y6141D01*
G01X15672Y6125D01*
G01X15718Y6111D01*
G01X15764Y6099D01*
G01X15811Y6089D01*
G01X15858Y6082D01*
G01X15906Y6076D01*
G01X15954Y6073D01*
G01X16002Y6072D01*
G01X16048Y6073D01*
G01X16095Y6076D01*
G01X16141Y6081D01*
G01X16187Y6088D01*
G01X16233Y6098D01*
G01X16278Y6109D01*
G01X16323Y6123D01*
G01X16367Y6138D01*
G01X16410Y6155D01*
G01X16453Y6175D01*
G01X16494Y6196D01*
G01X16535Y6219D01*
G01X16574Y6244D01*
G01X16613Y6270D01*
G01X16650Y6298D01*
G01X16686Y6328D01*
G01X16720Y6360D01*
G01X16753Y6393D01*
G01X16785Y6427D01*
G01X16815Y6463D01*
G01X16843Y6500D01*
G01X16869Y6539D01*
G01X16894Y6578D01*
G01X16917Y6619D01*
G01X16938Y6660D01*
G01X16958Y6703D01*
G01X16975Y6746D01*
G01X16990Y6790D01*
G01X17004Y6835D01*
G01X17015Y6880D01*
G01X17025Y6926D01*
G01X17032Y6972D01*
G01X17037Y7018D01*
G01X17040Y7065D01*
G01X17041Y7112D01*
G01X17040Y7158D01*
G01X17037Y7205D01*
G01X17032Y7251D01*
G01X17025Y7297D01*
G01X17015Y7343D01*
G01X17004Y7388D01*
G01X16990Y7433D01*
G01X16975Y7477D01*
G01X16958Y7520D01*
G01X16938Y7563D01*
G01X16917Y7604D01*
G01X16894Y7645D01*
G01X16869Y7684D01*
G01X16843Y7723D01*
G01X16815Y7760D01*
G01X16785Y7796D01*
G01X16753Y7830D01*
G01X16720Y7863D01*
G01X16686Y7895D01*
G01X16650Y7925D01*
G01X16613Y7953D01*
G01X16574Y7979D01*
G01X16535Y8004D01*
G01X16494Y8027D01*
G01X16453Y8048D01*
G01X16410Y8068D01*
G01X16367Y8085D01*
G01X16323Y8100D01*
G01X16278Y8114D01*
G01X16233Y8125D01*
G01X16187Y8135D01*
G01X16141Y8142D01*
G01X16095Y8147D01*
G01X16048Y8150D01*
G01X16002Y8151D01*
G01X15954Y8150D01*
G01X15906Y8147D01*
G01X15858Y8141D01*
G01X15811Y8134D01*
G01X15764Y8124D01*
G01X15718Y8112D01*
G01X15672Y8098D01*
G01X15627Y8082D01*
G01X15583Y8063D01*
G01X15539Y8043D01*
G01X15497Y8021D01*
G01X15456Y7997D01*
G01X15415Y7971D01*
G01X15377Y7943D01*
G01X15339Y7913D01*
G01X15303Y7882D01*
G01X15268Y7849D01*
G01X15235Y7814D01*
G01X15203Y7778D01*
G01X15174Y7741D01*
G01X15145Y7702D01*
G01X15119Y7662D01*
G01X15111Y7650D01*
G01X15100Y7639D01*
G01X15089Y7631D01*
G01X15076Y7623D01*
G01X15062Y7618D01*
G01X15048Y7615D01*
G01X15033Y7614D01*
G01X11680Y7614D01*
G01X11664Y7615D01*
G01X11648Y7619D01*
G01X11634Y7625D01*
G01X11620Y7633D01*
G01X11608Y7644D01*
G01X8960Y10291D01*
G01X8950Y10303D01*
G01X8942Y10317D01*
G01X8936Y10332D01*
G01X8932Y10347D01*
G01X8931Y10363D01*
G01X8932Y10378D01*
G01X8935Y10393D01*
G01X8941Y10408D01*
G01X8967Y10463D01*
G01X8991Y10519D01*
G01X9012Y10576D01*
G01X9032Y10634D01*
G01X9050Y10693D01*
G01X9066Y10752D01*
G01X9080Y10811D01*
G01X9091Y10871D01*
G01X9101Y10932D01*
G01X9108Y10992D01*
G01X9114Y11053D01*
G01X9117Y11114D01*
G01X9118Y11175D01*
G01X9117Y11235D01*
G01X9114Y11295D01*
G01X9109Y11355D01*
G01X9102Y11414D01*
G01X9092Y11473D01*
G01X9081Y11532D01*
G01X9068Y11590D01*
G01X9053Y11648D01*
G01X9036Y11706D01*
G01X9017Y11762D01*
G01X8996Y11818D01*
G01X8973Y11874D01*
G01X8948Y11928D01*
G01X8921Y11982D01*
G01X8893Y12034D01*
G01X8863Y12086D01*
G01X8831Y12137D01*
G01X8797Y12186D01*
G01X8762Y12234D01*
G01X8725Y12281D01*
G01X8686Y12327D01*
G01X8646Y12372D01*
G01X8605Y12415D01*
G01X8562Y12456D01*
G01X8517Y12496D01*
G01X8471Y12535D01*
G01X8424Y12572D01*
G01X8376Y12607D01*
G01X8327Y12641D01*
G01X8276Y12673D01*
G01X8224Y12703D01*
G01X8172Y12731D01*
G01X8118Y12758D01*
G01X8064Y12783D01*
G01X8008Y12806D01*
G01X7952Y12827D01*
G01X7896Y12846D01*
G01X7838Y12863D01*
G01X7780Y12878D01*
G01X7722Y12891D01*
G01X7663Y12902D01*
G01X7604Y12912D01*
G01X7545Y12919D01*
G01X7485Y12924D01*
G01X7425Y12927D01*
G37*
G36*
G01X7425Y7847D02*
G01X7366Y7848D01*
G01X7306Y7847D01*
G01X7246Y7844D01*
G01X7186Y7839D01*
G01X7127Y7832D01*
G01X7068Y7822D01*
G01X7009Y7811D01*
G01X6951Y7798D01*
G01X6893Y7783D01*
G01X6835Y7766D01*
G01X6779Y7747D01*
G01X6723Y7726D01*
G01X6667Y7703D01*
G01X6613Y7678D01*
G01X6559Y7651D01*
G01X6507Y7623D01*
G01X6455Y7593D01*
G01X6404Y7561D01*
G01X6355Y7527D01*
G01X6307Y7492D01*
G01X6260Y7455D01*
G01X6214Y7416D01*
G01X6169Y7376D01*
G01X6126Y7335D01*
G01X6085Y7292D01*
G01X6045Y7247D01*
G01X6006Y7201D01*
G01X5969Y7154D01*
G01X5934Y7106D01*
G01X5900Y7057D01*
G01X5868Y7006D01*
G01X5838Y6954D01*
G01X5810Y6902D01*
G01X5783Y6848D01*
G01X5758Y6794D01*
G01X5735Y6738D01*
G01X5714Y6682D01*
G01X5695Y6626D01*
G01X5678Y6568D01*
G01X5663Y6510D01*
G01X5650Y6452D01*
G01X5639Y6393D01*
G01X5629Y6334D01*
G01X5622Y6275D01*
G01X5617Y6215D01*
G01X5614Y6155D01*
G01X5613Y6096D01*
G01X5614Y6036D01*
G01X5617Y5976D01*
G01X5622Y5916D01*
G01X5629Y5857D01*
G01X5639Y5798D01*
G01X5650Y5739D01*
G01X5663Y5681D01*
G01X5678Y5623D01*
G01X5695Y5565D01*
G01X5714Y5509D01*
G01X5735Y5453D01*
G01X5758Y5397D01*
G01X5783Y5343D01*
G01X5810Y5289D01*
G01X5838Y5237D01*
G01X5868Y5185D01*
G01X5900Y5134D01*
G01X5934Y5085D01*
G01X5969Y5037D01*
G01X6006Y4990D01*
G01X6045Y4944D01*
G01X6085Y4899D01*
G01X6126Y4856D01*
G01X6169Y4815D01*
G01X6214Y4775D01*
G01X6260Y4736D01*
G01X6307Y4699D01*
G01X6355Y4664D01*
G01X6404Y4630D01*
G01X6455Y4598D01*
G01X6507Y4568D01*
G01X6559Y4540D01*
G01X6613Y4513D01*
G01X6667Y4488D01*
G01X6723Y4465D01*
G01X6779Y4444D01*
G01X6835Y4425D01*
G01X6893Y4408D01*
G01X6951Y4393D01*
G01X7009Y4380D01*
G01X7068Y4369D01*
G01X7127Y4359D01*
G01X7186Y4352D01*
G01X7246Y4347D01*
G01X7306Y4344D01*
G01X7366Y4343D01*
G01X7427Y4344D01*
G01X7488Y4347D01*
G01X7549Y4353D01*
G01X7609Y4360D01*
G01X7670Y4370D01*
G01X7730Y4381D01*
G01X7789Y4395D01*
G01X7848Y4411D01*
G01X7907Y4429D01*
G01X7965Y4449D01*
G01X8022Y4470D01*
G01X8078Y4494D01*
G01X8133Y4520D01*
G01X8148Y4526D01*
G01X8163Y4529D01*
G01X8178Y4530D01*
G01X8194Y4529D01*
G01X8209Y4525D01*
G01X8224Y4519D01*
G01X8238Y4511D01*
G01X8250Y4501D01*
G01X8534Y4216D01*
G01X8558Y4194D01*
G01X8584Y4173D01*
G01X8610Y4154D01*
G01X8638Y4136D01*
G01X8667Y4121D01*
G01X8697Y4107D01*
G01X8728Y4096D01*
G01X8759Y4086D01*
G01X8791Y4079D01*
G01X8824Y4073D01*
G01X8857Y4070D01*
G01X8890Y4069D01*
G01X15033Y4069D01*
G01X15048Y4068D01*
G01X15062Y4065D01*
G01X15076Y4060D01*
G01X15089Y4052D01*
G01X15100Y4044D01*
G01X15111Y4033D01*
G01X15119Y4021D01*
G01X15145Y3981D01*
G01X15174Y3942D01*
G01X15203Y3905D01*
G01X15235Y3869D01*
G01X15268Y3834D01*
G01X15303Y3801D01*
G01X15339Y3770D01*
G01X15377Y3740D01*
G01X15415Y3712D01*
G01X15456Y3686D01*
G01X15497Y3662D01*
G01X15539Y3640D01*
G01X15583Y3620D01*
G01X15627Y3601D01*
G01X15672Y3585D01*
G01X15718Y3571D01*
G01X15764Y3559D01*
G01X15811Y3549D01*
G01X15858Y3542D01*
G01X15906Y3536D01*
G01X15954Y3533D01*
G01X16002Y3532D01*
G01X16048Y3533D01*
G01X16095Y3536D01*
G01X16141Y3541D01*
G01X16187Y3548D01*
G01X16233Y3558D01*
G01X16278Y3569D01*
G01X16323Y3583D01*
G01X16367Y3598D01*
G01X16410Y3615D01*
G01X16453Y3635D01*
G01X16494Y3656D01*
G01X16535Y3679D01*
G01X16574Y3704D01*
G01X16613Y3730D01*
G01X16650Y3758D01*
G01X16686Y3788D01*
G01X16720Y3820D01*
G01X16753Y3853D01*
G01X16785Y3887D01*
G01X16815Y3923D01*
G01X16843Y3960D01*
G01X16869Y3999D01*
G01X16894Y4038D01*
G01X16917Y4079D01*
G01X16938Y4120D01*
G01X16958Y4163D01*
G01X16975Y4206D01*
G01X16990Y4250D01*
G01X17004Y4295D01*
G01X17015Y4340D01*
G01X17025Y4386D01*
G01X17032Y4432D01*
G01X17037Y4478D01*
G01X17040Y4525D01*
G01X17041Y4572D01*
G01X17040Y4618D01*
G01X17037Y4665D01*
G01X17032Y4711D01*
G01X17025Y4757D01*
G01X17015Y4803D01*
G01X17004Y4848D01*
G01X16990Y4893D01*
G01X16975Y4937D01*
G01X16958Y4980D01*
G01X16938Y5023D01*
G01X16917Y5064D01*
G01X16894Y5105D01*
G01X16869Y5144D01*
G01X16843Y5183D01*
G01X16815Y5220D01*
G01X16785Y5256D01*
G01X16753Y5290D01*
G01X16720Y5323D01*
G01X16686Y5355D01*
G01X16650Y5385D01*
G01X16613Y5413D01*
G01X16574Y5439D01*
G01X16535Y5464D01*
G01X16494Y5487D01*
G01X16453Y5508D01*
G01X16410Y5528D01*
G01X16367Y5545D01*
G01X16323Y5560D01*
G01X16278Y5574D01*
G01X16233Y5585D01*
G01X16187Y5595D01*
G01X16141Y5602D01*
G01X16095Y5607D01*
G01X16048Y5610D01*
G01X16002Y5611D01*
G01X15954Y5610D01*
G01X15906Y5607D01*
G01X15858Y5601D01*
G01X15811Y5594D01*
G01X15764Y5584D01*
G01X15718Y5572D01*
G01X15672Y5558D01*
G01X15627Y5542D01*
G01X15583Y5523D01*
G01X15539Y5503D01*
G01X15497Y5481D01*
G01X15456Y5457D01*
G01X15415Y5431D01*
G01X15377Y5403D01*
G01X15339Y5373D01*
G01X15303Y5342D01*
G01X15268Y5309D01*
G01X15235Y5274D01*
G01X15203Y5238D01*
G01X15174Y5201D01*
G01X15145Y5162D01*
G01X15119Y5122D01*
G01X15111Y5110D01*
G01X15100Y5099D01*
G01X15089Y5091D01*
G01X15076Y5083D01*
G01X15062Y5078D01*
G01X15048Y5075D01*
G01X15033Y5074D01*
G01X9140Y5074D01*
G01X9124Y5075D01*
G01X9108Y5079D01*
G01X9094Y5085D01*
G01X9080Y5093D01*
G01X9068Y5104D01*
G01X8960Y5211D01*
G01X8950Y5223D01*
G01X8942Y5237D01*
G01X8936Y5252D01*
G01X8932Y5267D01*
G01X8931Y5283D01*
G01X8932Y5298D01*
G01X8935Y5313D01*
G01X8941Y5328D01*
G01X8967Y5383D01*
G01X8991Y5439D01*
G01X9012Y5496D01*
G01X9032Y5554D01*
G01X9050Y5613D01*
G01X9066Y5672D01*
G01X9080Y5731D01*
G01X9091Y5791D01*
G01X9101Y5852D01*
G01X9108Y5912D01*
G01X9114Y5973D01*
G01X9117Y6034D01*
G01X9118Y6095D01*
G01X9117Y6155D01*
G01X9114Y6215D01*
G01X9109Y6275D01*
G01X9102Y6334D01*
G01X9092Y6393D01*
G01X9081Y6452D01*
G01X9068Y6510D01*
G01X9053Y6568D01*
G01X9036Y6626D01*
G01X9017Y6682D01*
G01X8996Y6738D01*
G01X8973Y6794D01*
G01X8948Y6848D01*
G01X8921Y6902D01*
G01X8893Y6954D01*
G01X8863Y7006D01*
G01X8831Y7057D01*
G01X8797Y7106D01*
G01X8762Y7154D01*
G01X8725Y7201D01*
G01X8686Y7247D01*
G01X8646Y7292D01*
G01X8605Y7335D01*
G01X8562Y7376D01*
G01X8517Y7416D01*
G01X8471Y7455D01*
G01X8424Y7492D01*
G01X8376Y7527D01*
G01X8327Y7561D01*
G01X8276Y7593D01*
G01X8224Y7623D01*
G01X8172Y7651D01*
G01X8118Y7678D01*
G01X8064Y7703D01*
G01X8008Y7726D01*
G01X7952Y7747D01*
G01X7896Y7766D01*
G01X7838Y7783D01*
G01X7780Y7798D01*
G01X7722Y7811D01*
G01X7663Y7822D01*
G01X7604Y7832D01*
G01X7545Y7839D01*
G01X7485Y7844D01*
G01X7425Y7847D01*
G37*
G36*
G01X7425Y48487D02*
G01X7366Y48488D01*
G01X7306Y48487D01*
G01X7246Y48484D01*
G01X7186Y48479D01*
G01X7127Y48472D01*
G01X7068Y48462D01*
G01X7009Y48451D01*
G01X6951Y48438D01*
G01X6893Y48423D01*
G01X6835Y48406D01*
G01X6779Y48387D01*
G01X6723Y48366D01*
G01X6667Y48343D01*
G01X6613Y48318D01*
G01X6559Y48291D01*
G01X6507Y48263D01*
G01X6455Y48233D01*
G01X6404Y48201D01*
G01X6355Y48167D01*
G01X6307Y48132D01*
G01X6260Y48095D01*
G01X6214Y48056D01*
G01X6169Y48016D01*
G01X6126Y47975D01*
G01X6085Y47932D01*
G01X6045Y47887D01*
G01X6006Y47841D01*
G01X5969Y47794D01*
G01X5934Y47746D01*
G01X5900Y47697D01*
G01X5868Y47646D01*
G01X5838Y47594D01*
G01X5810Y47542D01*
G01X5783Y47488D01*
G01X5758Y47434D01*
G01X5735Y47378D01*
G01X5714Y47322D01*
G01X5695Y47266D01*
G01X5678Y47208D01*
G01X5663Y47150D01*
G01X5650Y47092D01*
G01X5639Y47033D01*
G01X5629Y46974D01*
G01X5622Y46915D01*
G01X5617Y46855D01*
G01X5614Y46795D01*
G01X5613Y46736D01*
G01X5614Y46676D01*
G01X5617Y46616D01*
G01X5622Y46556D01*
G01X5629Y46497D01*
G01X5639Y46438D01*
G01X5650Y46379D01*
G01X5663Y46321D01*
G01X5678Y46263D01*
G01X5695Y46205D01*
G01X5714Y46149D01*
G01X5735Y46093D01*
G01X5758Y46037D01*
G01X5783Y45983D01*
G01X5810Y45929D01*
G01X5838Y45877D01*
G01X5868Y45825D01*
G01X5900Y45774D01*
G01X5934Y45725D01*
G01X5969Y45677D01*
G01X6006Y45630D01*
G01X6045Y45584D01*
G01X6085Y45539D01*
G01X6126Y45496D01*
G01X6169Y45455D01*
G01X6214Y45415D01*
G01X6260Y45376D01*
G01X6307Y45339D01*
G01X6355Y45304D01*
G01X6404Y45270D01*
G01X6455Y45238D01*
G01X6507Y45208D01*
G01X6559Y45180D01*
G01X6613Y45153D01*
G01X6667Y45128D01*
G01X6723Y45105D01*
G01X6779Y45084D01*
G01X6835Y45065D01*
G01X6893Y45048D01*
G01X6951Y45033D01*
G01X7009Y45020D01*
G01X7068Y45009D01*
G01X7127Y44999D01*
G01X7186Y44992D01*
G01X7246Y44987D01*
G01X7306Y44984D01*
G01X7366Y44983D01*
G01X7425Y44984D01*
G01X7485Y44987D01*
G01X7545Y44992D01*
G01X7604Y44999D01*
G01X7663Y45009D01*
G01X7722Y45020D01*
G01X7780Y45033D01*
G01X7838Y45048D01*
G01X7896Y45065D01*
G01X7952Y45084D01*
G01X8008Y45105D01*
G01X8064Y45128D01*
G01X8118Y45153D01*
G01X8172Y45180D01*
G01X8224Y45208D01*
G01X8276Y45238D01*
G01X8327Y45270D01*
G01X8376Y45304D01*
G01X8424Y45339D01*
G01X8471Y45376D01*
G01X8517Y45415D01*
G01X8562Y45455D01*
G01X8605Y45496D01*
G01X8646Y45539D01*
G01X8686Y45584D01*
G01X8725Y45630D01*
G01X8762Y45677D01*
G01X8797Y45725D01*
G01X8831Y45774D01*
G01X8863Y45825D01*
G01X8893Y45877D01*
G01X8921Y45929D01*
G01X8948Y45983D01*
G01X8973Y46037D01*
G01X8996Y46093D01*
G01X9017Y46149D01*
G01X9036Y46205D01*
G01X9053Y46263D01*
G01X9068Y46321D01*
G01X9081Y46379D01*
G01X9092Y46438D01*
G01X9102Y46497D01*
G01X9109Y46556D01*
G01X9114Y46616D01*
G01X9117Y46676D01*
G01X9118Y46735D01*
G01X9117Y46795D01*
G01X9114Y46855D01*
G01X9109Y46915D01*
G01X9102Y46974D01*
G01X9092Y47033D01*
G01X9081Y47092D01*
G01X9068Y47150D01*
G01X9053Y47208D01*
G01X9036Y47266D01*
G01X9017Y47322D01*
G01X8996Y47378D01*
G01X8973Y47434D01*
G01X8948Y47488D01*
G01X8921Y47542D01*
G01X8893Y47594D01*
G01X8863Y47646D01*
G01X8831Y47697D01*
G01X8797Y47746D01*
G01X8762Y47794D01*
G01X8725Y47841D01*
G01X8686Y47887D01*
G01X8646Y47932D01*
G01X8605Y47975D01*
G01X8562Y48016D01*
G01X8517Y48056D01*
G01X8471Y48095D01*
G01X8424Y48132D01*
G01X8376Y48167D01*
G01X8327Y48201D01*
G01X8276Y48233D01*
G01X8224Y48263D01*
G01X8172Y48291D01*
G01X8118Y48318D01*
G01X8064Y48343D01*
G01X8008Y48366D01*
G01X7952Y48387D01*
G01X7896Y48406D01*
G01X7838Y48423D01*
G01X7780Y48438D01*
G01X7722Y48451D01*
G01X7663Y48462D01*
G01X7604Y48472D01*
G01X7545Y48479D01*
G01X7485Y48484D01*
G01X7425Y48487D01*
G37*
G36*
G01X7425Y33247D02*
G01X7366Y33248D01*
G01X7306Y33247D01*
G01X7246Y33244D01*
G01X7186Y33239D01*
G01X7127Y33232D01*
G01X7068Y33222D01*
G01X7009Y33211D01*
G01X6951Y33198D01*
G01X6893Y33183D01*
G01X6835Y33166D01*
G01X6779Y33147D01*
G01X6723Y33126D01*
G01X6667Y33103D01*
G01X6613Y33078D01*
G01X6559Y33051D01*
G01X6507Y33023D01*
G01X6455Y32993D01*
G01X6404Y32961D01*
G01X6355Y32927D01*
G01X6307Y32892D01*
G01X6260Y32855D01*
G01X6214Y32816D01*
G01X6169Y32776D01*
G01X6126Y32735D01*
G01X6085Y32692D01*
G01X6045Y32647D01*
G01X6006Y32601D01*
G01X5969Y32554D01*
G01X5934Y32506D01*
G01X5900Y32457D01*
G01X5868Y32406D01*
G01X5838Y32354D01*
G01X5810Y32302D01*
G01X5783Y32248D01*
G01X5758Y32194D01*
G01X5735Y32138D01*
G01X5714Y32082D01*
G01X5695Y32026D01*
G01X5678Y31968D01*
G01X5663Y31910D01*
G01X5650Y31852D01*
G01X5639Y31793D01*
G01X5629Y31734D01*
G01X5622Y31675D01*
G01X5617Y31615D01*
G01X5614Y31555D01*
G01X5613Y31496D01*
G01X5614Y31436D01*
G01X5617Y31376D01*
G01X5622Y31316D01*
G01X5629Y31257D01*
G01X5639Y31198D01*
G01X5650Y31139D01*
G01X5663Y31081D01*
G01X5678Y31023D01*
G01X5695Y30965D01*
G01X5714Y30909D01*
G01X5735Y30853D01*
G01X5758Y30797D01*
G01X5783Y30743D01*
G01X5810Y30689D01*
G01X5838Y30637D01*
G01X5868Y30585D01*
G01X5900Y30534D01*
G01X5934Y30485D01*
G01X5969Y30437D01*
G01X6006Y30390D01*
G01X6045Y30344D01*
G01X6085Y30299D01*
G01X6126Y30256D01*
G01X6169Y30215D01*
G01X6214Y30175D01*
G01X6260Y30136D01*
G01X6307Y30099D01*
G01X6355Y30064D01*
G01X6404Y30030D01*
G01X6455Y29998D01*
G01X6507Y29968D01*
G01X6559Y29940D01*
G01X6613Y29913D01*
G01X6667Y29888D01*
G01X6723Y29865D01*
G01X6779Y29844D01*
G01X6835Y29825D01*
G01X6893Y29808D01*
G01X6951Y29793D01*
G01X7009Y29780D01*
G01X7068Y29769D01*
G01X7127Y29759D01*
G01X7186Y29752D01*
G01X7246Y29747D01*
G01X7306Y29744D01*
G01X7366Y29743D01*
G01X7425Y29744D01*
G01X7485Y29747D01*
G01X7545Y29752D01*
G01X7604Y29759D01*
G01X7663Y29769D01*
G01X7722Y29780D01*
G01X7780Y29793D01*
G01X7838Y29808D01*
G01X7896Y29825D01*
G01X7952Y29844D01*
G01X8008Y29865D01*
G01X8064Y29888D01*
G01X8118Y29913D01*
G01X8172Y29940D01*
G01X8224Y29968D01*
G01X8276Y29998D01*
G01X8327Y30030D01*
G01X8376Y30064D01*
G01X8424Y30099D01*
G01X8471Y30136D01*
G01X8517Y30175D01*
G01X8562Y30215D01*
G01X8605Y30256D01*
G01X8646Y30299D01*
G01X8686Y30344D01*
G01X8725Y30390D01*
G01X8762Y30437D01*
G01X8797Y30485D01*
G01X8831Y30534D01*
G01X8863Y30585D01*
G01X8893Y30637D01*
G01X8921Y30689D01*
G01X8948Y30743D01*
G01X8973Y30797D01*
G01X8996Y30853D01*
G01X9017Y30909D01*
G01X9036Y30965D01*
G01X9053Y31023D01*
G01X9068Y31081D01*
G01X9081Y31139D01*
G01X9092Y31198D01*
G01X9102Y31257D01*
G01X9109Y31316D01*
G01X9114Y31376D01*
G01X9117Y31436D01*
G01X9118Y31495D01*
G01X9117Y31555D01*
G01X9114Y31615D01*
G01X9109Y31675D01*
G01X9102Y31734D01*
G01X9092Y31793D01*
G01X9081Y31852D01*
G01X9068Y31910D01*
G01X9053Y31968D01*
G01X9036Y32026D01*
G01X9017Y32082D01*
G01X8996Y32138D01*
G01X8973Y32194D01*
G01X8948Y32248D01*
G01X8921Y32302D01*
G01X8893Y32354D01*
G01X8863Y32406D01*
G01X8831Y32457D01*
G01X8797Y32506D01*
G01X8762Y32554D01*
G01X8725Y32601D01*
G01X8686Y32647D01*
G01X8646Y32692D01*
G01X8605Y32735D01*
G01X8562Y32776D01*
G01X8517Y32816D01*
G01X8471Y32855D01*
G01X8424Y32892D01*
G01X8376Y32927D01*
G01X8327Y32961D01*
G01X8276Y32993D01*
G01X8224Y33023D01*
G01X8172Y33051D01*
G01X8118Y33078D01*
G01X8064Y33103D01*
G01X8008Y33126D01*
G01X7952Y33147D01*
G01X7896Y33166D01*
G01X7838Y33183D01*
G01X7780Y33198D01*
G01X7722Y33211D01*
G01X7663Y33222D01*
G01X7604Y33232D01*
G01X7545Y33239D01*
G01X7485Y33244D01*
G01X7425Y33247D01*
G37*
G36*
G01X7425Y43488D02*
G01X7366Y43489D01*
G01X7306Y43488D01*
G01X7246Y43485D01*
G01X7186Y43480D01*
G01X7127Y43473D01*
G01X7068Y43464D01*
G01X7009Y43453D01*
G01X6951Y43439D01*
G01X6893Y43424D01*
G01X6835Y43407D01*
G01X6779Y43388D01*
G01X6723Y43367D01*
G01X6667Y43344D01*
G01X6613Y43319D01*
G01X6559Y43293D01*
G01X6507Y43264D01*
G01X6455Y43234D01*
G01X6404Y43202D01*
G01X6355Y43168D01*
G01X6307Y43133D01*
G01X6260Y43096D01*
G01X6214Y43058D01*
G01X6169Y43018D01*
G01X6126Y42976D01*
G01X6085Y42933D01*
G01X6045Y42889D01*
G01X6006Y42843D01*
G01X5969Y42796D01*
G01X5934Y42747D01*
G01X5900Y42698D01*
G01X5868Y42647D01*
G01X5838Y42596D01*
G01X5810Y42543D01*
G01X5783Y42489D01*
G01X5758Y42435D01*
G01X5735Y42380D01*
G01X5714Y42324D01*
G01X5695Y42267D01*
G01X5678Y42210D01*
G01X5663Y42152D01*
G01X5650Y42093D01*
G01X5639Y42035D01*
G01X5629Y41975D01*
G01X5622Y41916D01*
G01X5617Y41856D01*
G01X5614Y41797D01*
G01X5613Y41737D01*
G01X5614Y41677D01*
G01X5617Y41617D01*
G01X5622Y41558D01*
G01X5629Y41498D01*
G01X5639Y41439D01*
G01X5650Y41380D01*
G01X5663Y41322D01*
G01X5678Y41264D01*
G01X5695Y41207D01*
G01X5714Y41150D01*
G01X5735Y41094D01*
G01X5758Y41039D01*
G01X5783Y40984D01*
G01X5810Y40931D01*
G01X5838Y40878D01*
G01X5868Y40826D01*
G01X5900Y40776D01*
G01X5934Y40726D01*
G01X5969Y40678D01*
G01X6006Y40631D01*
G01X6045Y40585D01*
G01X6085Y40541D01*
G01X6126Y40498D01*
G01X6169Y40456D01*
G01X6214Y40416D01*
G01X6260Y40377D01*
G01X6307Y40340D01*
G01X6355Y40305D01*
G01X6404Y40271D01*
G01X6455Y40239D01*
G01X6507Y40209D01*
G01X6559Y40181D01*
G01X6613Y40154D01*
G01X6667Y40129D01*
G01X6723Y40106D01*
G01X6779Y40085D01*
G01X6835Y40066D01*
G01X6893Y40049D01*
G01X6951Y40034D01*
G01X7009Y40021D01*
G01X7068Y40010D01*
G01X7127Y40001D01*
G01X7186Y39993D01*
G01X7246Y39988D01*
G01X7306Y39985D01*
G01X7366Y39984D01*
G01X7425Y39985D01*
G01X7485Y39988D01*
G01X7545Y39993D01*
G01X7604Y40001D01*
G01X7663Y40010D01*
G01X7722Y40021D01*
G01X7780Y40034D01*
G01X7838Y40049D01*
G01X7896Y40066D01*
G01X7952Y40085D01*
G01X8008Y40106D01*
G01X8064Y40129D01*
G01X8118Y40154D01*
G01X8172Y40181D01*
G01X8224Y40209D01*
G01X8276Y40239D01*
G01X8327Y40271D01*
G01X8376Y40305D01*
G01X8424Y40340D01*
G01X8471Y40377D01*
G01X8517Y40416D01*
G01X8562Y40456D01*
G01X8605Y40498D01*
G01X8646Y40541D01*
G01X8686Y40585D01*
G01X8725Y40631D01*
G01X8762Y40678D01*
G01X8797Y40726D01*
G01X8831Y40776D01*
G01X8863Y40826D01*
G01X8893Y40878D01*
G01X8921Y40931D01*
G01X8948Y40984D01*
G01X8973Y41039D01*
G01X8996Y41094D01*
G01X9017Y41150D01*
G01X9036Y41207D01*
G01X9053Y41264D01*
G01X9068Y41322D01*
G01X9081Y41380D01*
G01X9092Y41439D01*
G01X9102Y41498D01*
G01X9109Y41558D01*
G01X9114Y41617D01*
G01X9117Y41677D01*
G01X9118Y41737D01*
G01X9117Y41797D01*
G01X9114Y41856D01*
G01X9109Y41916D01*
G01X9102Y41975D01*
G01X9092Y42035D01*
G01X9081Y42093D01*
G01X9068Y42152D01*
G01X9053Y42210D01*
G01X9036Y42267D01*
G01X9017Y42324D01*
G01X8996Y42380D01*
G01X8973Y42435D01*
G01X8948Y42489D01*
G01X8921Y42543D01*
G01X8893Y42596D01*
G01X8863Y42647D01*
G01X8831Y42698D01*
G01X8797Y42747D01*
G01X8762Y42796D01*
G01X8725Y42843D01*
G01X8686Y42889D01*
G01X8646Y42933D01*
G01X8605Y42976D01*
G01X8562Y43018D01*
G01X8517Y43058D01*
G01X8471Y43096D01*
G01X8424Y43133D01*
G01X8376Y43168D01*
G01X8327Y43202D01*
G01X8276Y43234D01*
G01X8224Y43264D01*
G01X8172Y43293D01*
G01X8118Y43319D01*
G01X8064Y43344D01*
G01X8008Y43367D01*
G01X7952Y43388D01*
G01X7896Y43407D01*
G01X7838Y43424D01*
G01X7780Y43439D01*
G01X7722Y43453D01*
G01X7663Y43464D01*
G01X7604Y43473D01*
G01X7545Y43480D01*
G01X7485Y43485D01*
G01X7425Y43488D01*
G37*
G36*
G01X31280Y19848D02*
G01X29679Y19848D01*
G01X29656Y19847D01*
G01X29633Y19844D01*
G01X29610Y19838D01*
G01X29588Y19831D01*
G01X29567Y19822D01*
G01X29546Y19810D01*
G01X29527Y19797D01*
G01X29509Y19782D01*
G01X29493Y19766D01*
G01X29478Y19748D01*
G01X29465Y19729D01*
G01X29453Y19708D01*
G01X29444Y19687D01*
G01X29437Y19665D01*
G01X29431Y19642D01*
G01X29428Y19619D01*
G01X29427Y19596D01*
G01X29427Y17995D01*
G01X29428Y17972D01*
G01X29431Y17949D01*
G01X29437Y17926D01*
G01X29444Y17904D01*
G01X29453Y17883D01*
G01X29465Y17862D01*
G01X29478Y17843D01*
G01X29493Y17825D01*
G01X29509Y17809D01*
G01X29527Y17794D01*
G01X29546Y17781D01*
G01X29567Y17769D01*
G01X29588Y17760D01*
G01X29610Y17753D01*
G01X29633Y17747D01*
G01X29656Y17744D01*
G01X29679Y17743D01*
G01X31280Y17743D01*
G01X31303Y17744D01*
G01X31326Y17747D01*
G01X31349Y17753D01*
G01X31371Y17760D01*
G01X31392Y17769D01*
G01X31413Y17781D01*
G01X31432Y17794D01*
G01X31450Y17809D01*
G01X31466Y17825D01*
G01X31481Y17843D01*
G01X31494Y17862D01*
G01X31506Y17883D01*
G01X31515Y17904D01*
G01X31522Y17926D01*
G01X31528Y17949D01*
G01X31531Y17972D01*
G01X31532Y17995D01*
G01X31532Y19596D01*
G01X31531Y19619D01*
G01X31528Y19642D01*
G01X31522Y19665D01*
G01X31515Y19687D01*
G01X31506Y19708D01*
G01X31494Y19729D01*
G01X31481Y19748D01*
G01X31466Y19766D01*
G01X31450Y19782D01*
G01X31432Y19797D01*
G01X31413Y19810D01*
G01X31392Y19822D01*
G01X31371Y19831D01*
G01X31349Y19838D01*
G01X31326Y19844D01*
G01X31303Y19847D01*
G01X31280Y19848D01*
G37*
G36*
G01X30527Y12227D02*
G01X30480Y12228D01*
G01X30432Y12227D01*
G01X30385Y12224D01*
G01X30338Y12219D01*
G01X30292Y12211D01*
G01X30245Y12202D01*
G01X30199Y12190D01*
G01X30154Y12177D01*
G01X30110Y12161D01*
G01X30066Y12143D01*
G01X30023Y12124D01*
G01X29981Y12102D01*
G01X29940Y12079D01*
G01X29900Y12054D01*
G01X29861Y12027D01*
G01X29823Y11998D01*
G01X29787Y11968D01*
G01X29752Y11936D01*
G01X29719Y11903D01*
G01X29687Y11868D01*
G01X29657Y11832D01*
G01X29628Y11794D01*
G01X29601Y11755D01*
G01X29576Y11715D01*
G01X29553Y11674D01*
G01X29531Y11632D01*
G01X29512Y11589D01*
G01X29494Y11545D01*
G01X29478Y11501D01*
G01X29465Y11456D01*
G01X29453Y11410D01*
G01X29444Y11363D01*
G01X29436Y11317D01*
G01X29431Y11270D01*
G01X29428Y11223D01*
G01X29427Y11176D01*
G01X29428Y11128D01*
G01X29431Y11081D01*
G01X29436Y11034D01*
G01X29444Y10988D01*
G01X29453Y10941D01*
G01X29465Y10895D01*
G01X29478Y10850D01*
G01X29494Y10806D01*
G01X29512Y10762D01*
G01X29531Y10719D01*
G01X29553Y10677D01*
G01X29576Y10636D01*
G01X29601Y10596D01*
G01X29628Y10557D01*
G01X29657Y10519D01*
G01X29687Y10483D01*
G01X29719Y10448D01*
G01X29752Y10415D01*
G01X29787Y10383D01*
G01X29823Y10353D01*
G01X29861Y10324D01*
G01X29900Y10297D01*
G01X29940Y10272D01*
G01X29981Y10249D01*
G01X30023Y10227D01*
G01X30066Y10208D01*
G01X30110Y10190D01*
G01X30154Y10174D01*
G01X30199Y10161D01*
G01X30245Y10149D01*
G01X30292Y10140D01*
G01X30338Y10132D01*
G01X30385Y10127D01*
G01X30432Y10124D01*
G01X30480Y10123D01*
G01X30527Y10124D01*
G01X30574Y10127D01*
G01X30621Y10132D01*
G01X30667Y10140D01*
G01X30714Y10149D01*
G01X30760Y10161D01*
G01X30805Y10174D01*
G01X30849Y10190D01*
G01X30893Y10208D01*
G01X30936Y10227D01*
G01X30978Y10249D01*
G01X31019Y10272D01*
G01X31059Y10297D01*
G01X31098Y10324D01*
G01X31136Y10353D01*
G01X31172Y10383D01*
G01X31207Y10415D01*
G01X31240Y10448D01*
G01X31272Y10483D01*
G01X31302Y10519D01*
G01X31331Y10557D01*
G01X31358Y10596D01*
G01X31383Y10636D01*
G01X31406Y10677D01*
G01X31428Y10719D01*
G01X31447Y10762D01*
G01X31465Y10806D01*
G01X31481Y10850D01*
G01X31494Y10895D01*
G01X31506Y10941D01*
G01X31515Y10988D01*
G01X31523Y11034D01*
G01X31528Y11081D01*
G01X31531Y11128D01*
G01X31532Y11176D01*
G01X31531Y11223D01*
G01X31528Y11270D01*
G01X31523Y11317D01*
G01X31515Y11363D01*
G01X31506Y11410D01*
G01X31494Y11456D01*
G01X31481Y11501D01*
G01X31465Y11545D01*
G01X31447Y11589D01*
G01X31428Y11632D01*
G01X31406Y11674D01*
G01X31383Y11715D01*
G01X31358Y11755D01*
G01X31331Y11794D01*
G01X31302Y11832D01*
G01X31272Y11868D01*
G01X31240Y11903D01*
G01X31207Y11936D01*
G01X31172Y11968D01*
G01X31136Y11998D01*
G01X31098Y12027D01*
G01X31059Y12054D01*
G01X31019Y12079D01*
G01X30978Y12102D01*
G01X30936Y12124D01*
G01X30893Y12143D01*
G01X30849Y12161D01*
G01X30805Y12177D01*
G01X30760Y12190D01*
G01X30714Y12202D01*
G01X30667Y12211D01*
G01X30621Y12219D01*
G01X30574Y12224D01*
G01X30527Y12227D01*
G37*
G36*
G01X25447Y12227D02*
G01X25400Y12228D01*
G01X25352Y12227D01*
G01X25305Y12224D01*
G01X25258Y12219D01*
G01X25212Y12211D01*
G01X25165Y12202D01*
G01X25119Y12190D01*
G01X25074Y12177D01*
G01X25030Y12161D01*
G01X24986Y12143D01*
G01X24943Y12124D01*
G01X24901Y12102D01*
G01X24860Y12079D01*
G01X24820Y12054D01*
G01X24781Y12027D01*
G01X24743Y11998D01*
G01X24707Y11968D01*
G01X24672Y11936D01*
G01X24639Y11903D01*
G01X24607Y11868D01*
G01X24577Y11832D01*
G01X24548Y11794D01*
G01X24521Y11755D01*
G01X24496Y11715D01*
G01X24473Y11674D01*
G01X24451Y11632D01*
G01X24432Y11589D01*
G01X24414Y11545D01*
G01X24398Y11501D01*
G01X24385Y11456D01*
G01X24373Y11410D01*
G01X24364Y11363D01*
G01X24356Y11317D01*
G01X24351Y11270D01*
G01X24348Y11223D01*
G01X24347Y11176D01*
G01X24348Y11128D01*
G01X24351Y11081D01*
G01X24356Y11034D01*
G01X24364Y10988D01*
G01X24373Y10941D01*
G01X24385Y10895D01*
G01X24398Y10850D01*
G01X24414Y10806D01*
G01X24432Y10762D01*
G01X24451Y10719D01*
G01X24473Y10677D01*
G01X24496Y10636D01*
G01X24521Y10596D01*
G01X24548Y10557D01*
G01X24577Y10519D01*
G01X24607Y10483D01*
G01X24639Y10448D01*
G01X24672Y10415D01*
G01X24707Y10383D01*
G01X24743Y10353D01*
G01X24781Y10324D01*
G01X24820Y10297D01*
G01X24860Y10272D01*
G01X24901Y10249D01*
G01X24943Y10227D01*
G01X24986Y10208D01*
G01X25030Y10190D01*
G01X25074Y10174D01*
G01X25119Y10161D01*
G01X25165Y10149D01*
G01X25212Y10140D01*
G01X25258Y10132D01*
G01X25305Y10127D01*
G01X25352Y10124D01*
G01X25400Y10123D01*
G01X25447Y10124D01*
G01X25494Y10127D01*
G01X25541Y10132D01*
G01X25587Y10140D01*
G01X25634Y10149D01*
G01X25680Y10161D01*
G01X25725Y10174D01*
G01X25769Y10190D01*
G01X25813Y10208D01*
G01X25856Y10227D01*
G01X25898Y10249D01*
G01X25939Y10272D01*
G01X25979Y10297D01*
G01X26018Y10324D01*
G01X26056Y10353D01*
G01X26092Y10383D01*
G01X26127Y10415D01*
G01X26160Y10448D01*
G01X26192Y10483D01*
G01X26222Y10519D01*
G01X26251Y10557D01*
G01X26278Y10596D01*
G01X26303Y10636D01*
G01X26326Y10677D01*
G01X26348Y10719D01*
G01X26367Y10762D01*
G01X26385Y10806D01*
G01X26401Y10850D01*
G01X26414Y10895D01*
G01X26426Y10941D01*
G01X26435Y10988D01*
G01X26443Y11034D01*
G01X26448Y11081D01*
G01X26451Y11128D01*
G01X26452Y11176D01*
G01X26451Y11223D01*
G01X26448Y11270D01*
G01X26443Y11317D01*
G01X26435Y11363D01*
G01X26426Y11410D01*
G01X26414Y11456D01*
G01X26401Y11501D01*
G01X26385Y11545D01*
G01X26367Y11589D01*
G01X26348Y11632D01*
G01X26326Y11674D01*
G01X26303Y11715D01*
G01X26278Y11755D01*
G01X26251Y11794D01*
G01X26222Y11832D01*
G01X26192Y11868D01*
G01X26160Y11903D01*
G01X26127Y11936D01*
G01X26092Y11968D01*
G01X26056Y11998D01*
G01X26018Y12027D01*
G01X25979Y12054D01*
G01X25939Y12079D01*
G01X25898Y12102D01*
G01X25856Y12124D01*
G01X25813Y12143D01*
G01X25769Y12161D01*
G01X25725Y12177D01*
G01X25680Y12190D01*
G01X25634Y12202D01*
G01X25587Y12211D01*
G01X25541Y12219D01*
G01X25494Y12224D01*
G01X25447Y12227D01*
G37*
G36*
G01X22907Y12227D02*
G01X22860Y12228D01*
G01X22812Y12227D01*
G01X22765Y12224D01*
G01X22718Y12219D01*
G01X22672Y12211D01*
G01X22625Y12202D01*
G01X22579Y12190D01*
G01X22534Y12177D01*
G01X22490Y12161D01*
G01X22446Y12143D01*
G01X22403Y12124D01*
G01X22361Y12102D01*
G01X22320Y12079D01*
G01X22280Y12054D01*
G01X22241Y12027D01*
G01X22203Y11998D01*
G01X22167Y11968D01*
G01X22132Y11936D01*
G01X22099Y11903D01*
G01X22067Y11868D01*
G01X22037Y11832D01*
G01X22008Y11794D01*
G01X21981Y11755D01*
G01X21956Y11715D01*
G01X21933Y11674D01*
G01X21911Y11632D01*
G01X21892Y11589D01*
G01X21874Y11545D01*
G01X21858Y11501D01*
G01X21845Y11456D01*
G01X21833Y11410D01*
G01X21824Y11363D01*
G01X21816Y11317D01*
G01X21811Y11270D01*
G01X21808Y11223D01*
G01X21807Y11176D01*
G01X21808Y11128D01*
G01X21811Y11081D01*
G01X21816Y11034D01*
G01X21824Y10988D01*
G01X21833Y10941D01*
G01X21845Y10895D01*
G01X21858Y10850D01*
G01X21874Y10806D01*
G01X21892Y10762D01*
G01X21911Y10719D01*
G01X21933Y10677D01*
G01X21956Y10636D01*
G01X21981Y10596D01*
G01X22008Y10557D01*
G01X22037Y10519D01*
G01X22067Y10483D01*
G01X22099Y10448D01*
G01X22132Y10415D01*
G01X22167Y10383D01*
G01X22203Y10353D01*
G01X22241Y10324D01*
G01X22280Y10297D01*
G01X22320Y10272D01*
G01X22361Y10249D01*
G01X22403Y10227D01*
G01X22446Y10208D01*
G01X22490Y10190D01*
G01X22534Y10174D01*
G01X22579Y10161D01*
G01X22625Y10149D01*
G01X22672Y10140D01*
G01X22718Y10132D01*
G01X22765Y10127D01*
G01X22812Y10124D01*
G01X22860Y10123D01*
G01X22907Y10124D01*
G01X22954Y10127D01*
G01X23001Y10132D01*
G01X23047Y10140D01*
G01X23094Y10149D01*
G01X23140Y10161D01*
G01X23185Y10174D01*
G01X23229Y10190D01*
G01X23273Y10208D01*
G01X23316Y10227D01*
G01X23358Y10249D01*
G01X23399Y10272D01*
G01X23439Y10297D01*
G01X23478Y10324D01*
G01X23516Y10353D01*
G01X23552Y10383D01*
G01X23587Y10415D01*
G01X23620Y10448D01*
G01X23652Y10483D01*
G01X23682Y10519D01*
G01X23711Y10557D01*
G01X23738Y10596D01*
G01X23763Y10636D01*
G01X23786Y10677D01*
G01X23808Y10719D01*
G01X23827Y10762D01*
G01X23845Y10806D01*
G01X23861Y10850D01*
G01X23874Y10895D01*
G01X23886Y10941D01*
G01X23895Y10988D01*
G01X23903Y11034D01*
G01X23908Y11081D01*
G01X23911Y11128D01*
G01X23912Y11176D01*
G01X23911Y11223D01*
G01X23908Y11270D01*
G01X23903Y11317D01*
G01X23895Y11363D01*
G01X23886Y11410D01*
G01X23874Y11456D01*
G01X23861Y11501D01*
G01X23845Y11545D01*
G01X23827Y11589D01*
G01X23808Y11632D01*
G01X23786Y11674D01*
G01X23763Y11715D01*
G01X23738Y11755D01*
G01X23711Y11794D01*
G01X23682Y11832D01*
G01X23652Y11868D01*
G01X23620Y11903D01*
G01X23587Y11936D01*
G01X23552Y11968D01*
G01X23516Y11998D01*
G01X23478Y12027D01*
G01X23439Y12054D01*
G01X23399Y12079D01*
G01X23358Y12102D01*
G01X23316Y12124D01*
G01X23273Y12143D01*
G01X23229Y12161D01*
G01X23185Y12177D01*
G01X23140Y12190D01*
G01X23094Y12202D01*
G01X23047Y12211D01*
G01X23001Y12219D01*
G01X22954Y12224D01*
G01X22907Y12227D01*
G37*
G36*
G01X27987Y12227D02*
G01X27940Y12228D01*
G01X27892Y12227D01*
G01X27845Y12224D01*
G01X27798Y12219D01*
G01X27752Y12211D01*
G01X27705Y12202D01*
G01X27659Y12190D01*
G01X27614Y12177D01*
G01X27570Y12161D01*
G01X27526Y12143D01*
G01X27483Y12124D01*
G01X27441Y12102D01*
G01X27400Y12079D01*
G01X27360Y12054D01*
G01X27321Y12027D01*
G01X27283Y11998D01*
G01X27247Y11968D01*
G01X27212Y11936D01*
G01X27179Y11903D01*
G01X27147Y11868D01*
G01X27117Y11832D01*
G01X27088Y11794D01*
G01X27061Y11755D01*
G01X27036Y11715D01*
G01X27013Y11674D01*
G01X26991Y11632D01*
G01X26972Y11589D01*
G01X26954Y11545D01*
G01X26938Y11501D01*
G01X26925Y11456D01*
G01X26913Y11410D01*
G01X26904Y11363D01*
G01X26896Y11317D01*
G01X26891Y11270D01*
G01X26888Y11223D01*
G01X26887Y11176D01*
G01X26888Y11128D01*
G01X26891Y11081D01*
G01X26896Y11034D01*
G01X26904Y10988D01*
G01X26913Y10941D01*
G01X26925Y10895D01*
G01X26938Y10850D01*
G01X26954Y10806D01*
G01X26972Y10762D01*
G01X26991Y10719D01*
G01X27013Y10677D01*
G01X27036Y10636D01*
G01X27061Y10596D01*
G01X27088Y10557D01*
G01X27117Y10519D01*
G01X27147Y10483D01*
G01X27179Y10448D01*
G01X27212Y10415D01*
G01X27247Y10383D01*
G01X27283Y10353D01*
G01X27321Y10324D01*
G01X27360Y10297D01*
G01X27400Y10272D01*
G01X27441Y10249D01*
G01X27483Y10227D01*
G01X27526Y10208D01*
G01X27570Y10190D01*
G01X27614Y10174D01*
G01X27659Y10161D01*
G01X27705Y10149D01*
G01X27752Y10140D01*
G01X27798Y10132D01*
G01X27845Y10127D01*
G01X27892Y10124D01*
G01X27940Y10123D01*
G01X27987Y10124D01*
G01X28034Y10127D01*
G01X28081Y10132D01*
G01X28127Y10140D01*
G01X28174Y10149D01*
G01X28220Y10161D01*
G01X28265Y10174D01*
G01X28309Y10190D01*
G01X28353Y10208D01*
G01X28396Y10227D01*
G01X28438Y10249D01*
G01X28479Y10272D01*
G01X28519Y10297D01*
G01X28558Y10324D01*
G01X28596Y10353D01*
G01X28632Y10383D01*
G01X28667Y10415D01*
G01X28700Y10448D01*
G01X28732Y10483D01*
G01X28762Y10519D01*
G01X28791Y10557D01*
G01X28818Y10596D01*
G01X28843Y10636D01*
G01X28866Y10677D01*
G01X28888Y10719D01*
G01X28907Y10762D01*
G01X28925Y10806D01*
G01X28941Y10850D01*
G01X28954Y10895D01*
G01X28966Y10941D01*
G01X28975Y10988D01*
G01X28983Y11034D01*
G01X28988Y11081D01*
G01X28991Y11128D01*
G01X28992Y11176D01*
G01X28991Y11223D01*
G01X28988Y11270D01*
G01X28983Y11317D01*
G01X28975Y11363D01*
G01X28966Y11410D01*
G01X28954Y11456D01*
G01X28941Y11501D01*
G01X28925Y11545D01*
G01X28907Y11589D01*
G01X28888Y11632D01*
G01X28866Y11674D01*
G01X28843Y11715D01*
G01X28818Y11755D01*
G01X28791Y11794D01*
G01X28762Y11832D01*
G01X28732Y11868D01*
G01X28700Y11903D01*
G01X28667Y11936D01*
G01X28632Y11968D01*
G01X28596Y11998D01*
G01X28558Y12027D01*
G01X28519Y12054D01*
G01X28479Y12079D01*
G01X28438Y12102D01*
G01X28396Y12124D01*
G01X28353Y12143D01*
G01X28309Y12161D01*
G01X28265Y12177D01*
G01X28220Y12190D01*
G01X28174Y12202D01*
G01X28127Y12211D01*
G01X28081Y12219D01*
G01X28034Y12224D01*
G01X27987Y12227D01*
G37*
G36*
G01X27987Y19847D02*
G01X27940Y19848D01*
G01X27892Y19847D01*
G01X27845Y19844D01*
G01X27798Y19839D01*
G01X27752Y19831D01*
G01X27705Y19822D01*
G01X27659Y19810D01*
G01X27614Y19797D01*
G01X27570Y19781D01*
G01X27526Y19763D01*
G01X27483Y19744D01*
G01X27441Y19722D01*
G01X27400Y19699D01*
G01X27360Y19674D01*
G01X27321Y19647D01*
G01X27283Y19618D01*
G01X27247Y19588D01*
G01X27212Y19556D01*
G01X27179Y19523D01*
G01X27147Y19488D01*
G01X27117Y19452D01*
G01X27088Y19414D01*
G01X27061Y19375D01*
G01X27036Y19335D01*
G01X27013Y19294D01*
G01X26991Y19252D01*
G01X26972Y19209D01*
G01X26954Y19165D01*
G01X26938Y19121D01*
G01X26925Y19076D01*
G01X26913Y19030D01*
G01X26904Y18983D01*
G01X26896Y18937D01*
G01X26891Y18890D01*
G01X26888Y18843D01*
G01X26887Y18796D01*
G01X26888Y18748D01*
G01X26891Y18701D01*
G01X26896Y18654D01*
G01X26904Y18608D01*
G01X26913Y18561D01*
G01X26925Y18515D01*
G01X26938Y18470D01*
G01X26954Y18426D01*
G01X26972Y18382D01*
G01X26991Y18339D01*
G01X27013Y18297D01*
G01X27036Y18256D01*
G01X27061Y18216D01*
G01X27088Y18177D01*
G01X27117Y18139D01*
G01X27147Y18103D01*
G01X27179Y18068D01*
G01X27212Y18035D01*
G01X27247Y18003D01*
G01X27283Y17973D01*
G01X27321Y17944D01*
G01X27360Y17917D01*
G01X27400Y17892D01*
G01X27441Y17869D01*
G01X27483Y17847D01*
G01X27526Y17828D01*
G01X27570Y17810D01*
G01X27614Y17794D01*
G01X27659Y17781D01*
G01X27705Y17769D01*
G01X27752Y17760D01*
G01X27798Y17752D01*
G01X27845Y17747D01*
G01X27892Y17744D01*
G01X27940Y17743D01*
G01X27987Y17744D01*
G01X28034Y17747D01*
G01X28081Y17752D01*
G01X28127Y17760D01*
G01X28174Y17769D01*
G01X28220Y17781D01*
G01X28265Y17794D01*
G01X28309Y17810D01*
G01X28353Y17828D01*
G01X28396Y17847D01*
G01X28438Y17869D01*
G01X28479Y17892D01*
G01X28519Y17917D01*
G01X28558Y17944D01*
G01X28596Y17973D01*
G01X28632Y18003D01*
G01X28667Y18035D01*
G01X28700Y18068D01*
G01X28732Y18103D01*
G01X28762Y18139D01*
G01X28791Y18177D01*
G01X28818Y18216D01*
G01X28843Y18256D01*
G01X28866Y18297D01*
G01X28888Y18339D01*
G01X28907Y18382D01*
G01X28925Y18426D01*
G01X28941Y18470D01*
G01X28954Y18515D01*
G01X28966Y18561D01*
G01X28975Y18608D01*
G01X28983Y18654D01*
G01X28988Y18701D01*
G01X28991Y18748D01*
G01X28992Y18796D01*
G01X28991Y18843D01*
G01X28988Y18890D01*
G01X28983Y18937D01*
G01X28975Y18983D01*
G01X28966Y19030D01*
G01X28954Y19076D01*
G01X28941Y19121D01*
G01X28925Y19165D01*
G01X28907Y19209D01*
G01X28888Y19252D01*
G01X28866Y19294D01*
G01X28843Y19335D01*
G01X28818Y19375D01*
G01X28791Y19414D01*
G01X28762Y19452D01*
G01X28732Y19488D01*
G01X28700Y19523D01*
G01X28667Y19556D01*
G01X28632Y19588D01*
G01X28596Y19618D01*
G01X28558Y19647D01*
G01X28519Y19674D01*
G01X28479Y19699D01*
G01X28438Y19722D01*
G01X28396Y19744D01*
G01X28353Y19763D01*
G01X28309Y19781D01*
G01X28265Y19797D01*
G01X28220Y19810D01*
G01X28174Y19822D01*
G01X28127Y19831D01*
G01X28081Y19839D01*
G01X28034Y19844D01*
G01X27987Y19847D01*
G37*
G36*
G01X18588Y13230D02*
G01X18541Y13231D01*
G01X18495Y13230D01*
G01X18448Y13227D01*
G01X18402Y13222D01*
G01X18356Y13215D01*
G01X18310Y13205D01*
G01X18265Y13194D01*
G01X18220Y13180D01*
G01X18176Y13165D01*
G01X18133Y13148D01*
G01X18090Y13128D01*
G01X18049Y13107D01*
G01X18008Y13084D01*
G01X17969Y13059D01*
G01X17930Y13033D01*
G01X17893Y13005D01*
G01X17857Y12975D01*
G01X17823Y12943D01*
G01X17790Y12910D01*
G01X17758Y12876D01*
G01X17728Y12840D01*
G01X17700Y12803D01*
G01X17674Y12764D01*
G01X17649Y12725D01*
G01X17626Y12684D01*
G01X17605Y12643D01*
G01X17585Y12600D01*
G01X17568Y12557D01*
G01X17553Y12513D01*
G01X17539Y12468D01*
G01X17528Y12423D01*
G01X17518Y12377D01*
G01X17511Y12331D01*
G01X17506Y12285D01*
G01X17503Y12238D01*
G01X17502Y12192D01*
G01X17503Y12145D01*
G01X17506Y12098D01*
G01X17511Y12052D01*
G01X17518Y12006D01*
G01X17528Y11960D01*
G01X17539Y11915D01*
G01X17553Y11870D01*
G01X17568Y11826D01*
G01X17585Y11783D01*
G01X17605Y11740D01*
G01X17626Y11699D01*
G01X17649Y11658D01*
G01X17674Y11619D01*
G01X17700Y11580D01*
G01X17728Y11543D01*
G01X17758Y11507D01*
G01X17790Y11473D01*
G01X17823Y11440D01*
G01X17857Y11408D01*
G01X17893Y11378D01*
G01X17930Y11350D01*
G01X17969Y11324D01*
G01X18008Y11299D01*
G01X18049Y11276D01*
G01X18090Y11255D01*
G01X18133Y11235D01*
G01X18176Y11218D01*
G01X18220Y11203D01*
G01X18265Y11189D01*
G01X18310Y11178D01*
G01X18356Y11168D01*
G01X18402Y11161D01*
G01X18448Y11156D01*
G01X18495Y11153D01*
G01X18541Y11152D01*
G01X18542Y11152D01*
G01X18588Y11153D01*
G01X18635Y11156D01*
G01X18681Y11161D01*
G01X18727Y11168D01*
G01X18773Y11178D01*
G01X18818Y11189D01*
G01X18863Y11203D01*
G01X18907Y11218D01*
G01X18950Y11235D01*
G01X18993Y11255D01*
G01X19034Y11276D01*
G01X19075Y11299D01*
G01X19114Y11324D01*
G01X19153Y11350D01*
G01X19190Y11378D01*
G01X19226Y11408D01*
G01X19260Y11440D01*
G01X19293Y11473D01*
G01X19325Y11507D01*
G01X19355Y11543D01*
G01X19383Y11580D01*
G01X19409Y11619D01*
G01X19434Y11658D01*
G01X19457Y11699D01*
G01X19478Y11740D01*
G01X19498Y11783D01*
G01X19515Y11826D01*
G01X19530Y11870D01*
G01X19544Y11915D01*
G01X19555Y11960D01*
G01X19565Y12006D01*
G01X19572Y12052D01*
G01X19577Y12098D01*
G01X19580Y12145D01*
G01X19581Y12192D01*
G01X19580Y12238D01*
G01X19577Y12285D01*
G01X19572Y12331D01*
G01X19565Y12377D01*
G01X19555Y12423D01*
G01X19544Y12468D01*
G01X19530Y12513D01*
G01X19515Y12557D01*
G01X19498Y12600D01*
G01X19478Y12643D01*
G01X19457Y12684D01*
G01X19434Y12725D01*
G01X19409Y12764D01*
G01X19383Y12803D01*
G01X19355Y12840D01*
G01X19325Y12876D01*
G01X19293Y12910D01*
G01X19260Y12943D01*
G01X19226Y12975D01*
G01X19190Y13005D01*
G01X19153Y13033D01*
G01X19114Y13059D01*
G01X19075Y13084D01*
G01X19034Y13107D01*
G01X18993Y13128D01*
G01X18950Y13148D01*
G01X18907Y13165D01*
G01X18863Y13180D01*
G01X18818Y13194D01*
G01X18773Y13205D01*
G01X18727Y13215D01*
G01X18681Y13222D01*
G01X18635Y13227D01*
G01X18588Y13230D01*
G37*
G36*
G01X16048Y18310D02*
G01X16001Y18311D01*
G01X15955Y18310D01*
G01X15908Y18307D01*
G01X15862Y18302D01*
G01X15816Y18295D01*
G01X15770Y18285D01*
G01X15725Y18274D01*
G01X15680Y18260D01*
G01X15636Y18245D01*
G01X15593Y18228D01*
G01X15550Y18208D01*
G01X15509Y18187D01*
G01X15468Y18164D01*
G01X15429Y18139D01*
G01X15390Y18113D01*
G01X15353Y18085D01*
G01X15317Y18055D01*
G01X15283Y18023D01*
G01X15250Y17990D01*
G01X15218Y17956D01*
G01X15188Y17920D01*
G01X15160Y17883D01*
G01X15134Y17844D01*
G01X15109Y17805D01*
G01X15086Y17764D01*
G01X15065Y17723D01*
G01X15045Y17680D01*
G01X15028Y17637D01*
G01X15013Y17593D01*
G01X14999Y17548D01*
G01X14988Y17503D01*
G01X14978Y17457D01*
G01X14971Y17411D01*
G01X14966Y17365D01*
G01X14963Y17318D01*
G01X14962Y17272D01*
G01X14963Y17225D01*
G01X14966Y17178D01*
G01X14971Y17132D01*
G01X14978Y17086D01*
G01X14988Y17040D01*
G01X14999Y16995D01*
G01X15013Y16950D01*
G01X15028Y16906D01*
G01X15045Y16863D01*
G01X15065Y16820D01*
G01X15086Y16779D01*
G01X15109Y16738D01*
G01X15134Y16699D01*
G01X15160Y16660D01*
G01X15188Y16623D01*
G01X15218Y16587D01*
G01X15250Y16553D01*
G01X15283Y16520D01*
G01X15317Y16488D01*
G01X15353Y16458D01*
G01X15390Y16430D01*
G01X15429Y16404D01*
G01X15468Y16379D01*
G01X15509Y16356D01*
G01X15550Y16335D01*
G01X15593Y16315D01*
G01X15636Y16298D01*
G01X15680Y16283D01*
G01X15725Y16269D01*
G01X15770Y16258D01*
G01X15816Y16248D01*
G01X15862Y16241D01*
G01X15908Y16236D01*
G01X15955Y16233D01*
G01X16001Y16232D01*
G01X16002Y16232D01*
G01X16048Y16233D01*
G01X16095Y16236D01*
G01X16141Y16241D01*
G01X16187Y16248D01*
G01X16233Y16258D01*
G01X16278Y16269D01*
G01X16323Y16283D01*
G01X16367Y16298D01*
G01X16410Y16315D01*
G01X16453Y16335D01*
G01X16494Y16356D01*
G01X16535Y16379D01*
G01X16574Y16404D01*
G01X16613Y16430D01*
G01X16650Y16458D01*
G01X16686Y16488D01*
G01X16720Y16520D01*
G01X16753Y16553D01*
G01X16785Y16587D01*
G01X16815Y16623D01*
G01X16843Y16660D01*
G01X16869Y16699D01*
G01X16894Y16738D01*
G01X16917Y16779D01*
G01X16938Y16820D01*
G01X16958Y16863D01*
G01X16975Y16906D01*
G01X16990Y16950D01*
G01X17004Y16995D01*
G01X17015Y17040D01*
G01X17025Y17086D01*
G01X17032Y17132D01*
G01X17037Y17178D01*
G01X17040Y17225D01*
G01X17041Y17272D01*
G01X17040Y17318D01*
G01X17037Y17365D01*
G01X17032Y17411D01*
G01X17025Y17457D01*
G01X17015Y17503D01*
G01X17004Y17548D01*
G01X16990Y17593D01*
G01X16975Y17637D01*
G01X16958Y17680D01*
G01X16938Y17723D01*
G01X16917Y17764D01*
G01X16894Y17805D01*
G01X16869Y17844D01*
G01X16843Y17883D01*
G01X16815Y17920D01*
G01X16785Y17956D01*
G01X16753Y17990D01*
G01X16720Y18023D01*
G01X16686Y18055D01*
G01X16650Y18085D01*
G01X16613Y18113D01*
G01X16574Y18139D01*
G01X16535Y18164D01*
G01X16494Y18187D01*
G01X16453Y18208D01*
G01X16410Y18228D01*
G01X16367Y18245D01*
G01X16323Y18260D01*
G01X16278Y18274D01*
G01X16233Y18285D01*
G01X16187Y18295D01*
G01X16141Y18302D01*
G01X16095Y18307D01*
G01X16048Y18310D01*
G37*
G36*
G01X18588Y15770D02*
G01X18541Y15771D01*
G01X18495Y15770D01*
G01X18448Y15767D01*
G01X18402Y15762D01*
G01X18356Y15755D01*
G01X18310Y15745D01*
G01X18265Y15734D01*
G01X18220Y15720D01*
G01X18176Y15705D01*
G01X18133Y15688D01*
G01X18090Y15668D01*
G01X18049Y15647D01*
G01X18008Y15624D01*
G01X17969Y15599D01*
G01X17930Y15573D01*
G01X17893Y15545D01*
G01X17857Y15515D01*
G01X17823Y15483D01*
G01X17790Y15450D01*
G01X17758Y15416D01*
G01X17728Y15380D01*
G01X17700Y15343D01*
G01X17674Y15304D01*
G01X17649Y15265D01*
G01X17626Y15224D01*
G01X17605Y15183D01*
G01X17585Y15140D01*
G01X17568Y15097D01*
G01X17553Y15053D01*
G01X17539Y15008D01*
G01X17528Y14963D01*
G01X17518Y14917D01*
G01X17511Y14871D01*
G01X17506Y14825D01*
G01X17503Y14778D01*
G01X17502Y14732D01*
G01X17503Y14685D01*
G01X17506Y14638D01*
G01X17511Y14592D01*
G01X17518Y14546D01*
G01X17528Y14500D01*
G01X17539Y14455D01*
G01X17553Y14410D01*
G01X17568Y14366D01*
G01X17585Y14323D01*
G01X17605Y14280D01*
G01X17626Y14239D01*
G01X17649Y14198D01*
G01X17674Y14159D01*
G01X17700Y14120D01*
G01X17728Y14083D01*
G01X17758Y14047D01*
G01X17790Y14013D01*
G01X17823Y13980D01*
G01X17857Y13948D01*
G01X17893Y13918D01*
G01X17930Y13890D01*
G01X17969Y13864D01*
G01X18008Y13839D01*
G01X18049Y13816D01*
G01X18090Y13795D01*
G01X18133Y13775D01*
G01X18176Y13758D01*
G01X18220Y13743D01*
G01X18265Y13729D01*
G01X18310Y13718D01*
G01X18356Y13708D01*
G01X18402Y13701D01*
G01X18448Y13696D01*
G01X18495Y13693D01*
G01X18541Y13692D01*
G01X18542Y13692D01*
G01X18588Y13693D01*
G01X18635Y13696D01*
G01X18681Y13701D01*
G01X18727Y13708D01*
G01X18773Y13718D01*
G01X18818Y13729D01*
G01X18863Y13743D01*
G01X18907Y13758D01*
G01X18950Y13775D01*
G01X18993Y13795D01*
G01X19034Y13816D01*
G01X19075Y13839D01*
G01X19114Y13864D01*
G01X19153Y13890D01*
G01X19190Y13918D01*
G01X19226Y13948D01*
G01X19260Y13980D01*
G01X19293Y14013D01*
G01X19325Y14047D01*
G01X19355Y14083D01*
G01X19383Y14120D01*
G01X19409Y14159D01*
G01X19434Y14198D01*
G01X19457Y14239D01*
G01X19478Y14280D01*
G01X19498Y14323D01*
G01X19515Y14366D01*
G01X19530Y14410D01*
G01X19544Y14455D01*
G01X19555Y14500D01*
G01X19565Y14546D01*
G01X19572Y14592D01*
G01X19577Y14638D01*
G01X19580Y14685D01*
G01X19581Y14732D01*
G01X19580Y14778D01*
G01X19577Y14825D01*
G01X19572Y14871D01*
G01X19565Y14917D01*
G01X19555Y14963D01*
G01X19544Y15008D01*
G01X19530Y15053D01*
G01X19515Y15097D01*
G01X19498Y15140D01*
G01X19478Y15183D01*
G01X19457Y15224D01*
G01X19434Y15265D01*
G01X19409Y15304D01*
G01X19383Y15343D01*
G01X19355Y15380D01*
G01X19325Y15416D01*
G01X19293Y15450D01*
G01X19260Y15483D01*
G01X19226Y15515D01*
G01X19190Y15545D01*
G01X19153Y15573D01*
G01X19114Y15599D01*
G01X19075Y15624D01*
G01X19034Y15647D01*
G01X18993Y15668D01*
G01X18950Y15688D01*
G01X18907Y15705D01*
G01X18863Y15720D01*
G01X18818Y15734D01*
G01X18773Y15745D01*
G01X18727Y15755D01*
G01X18681Y15762D01*
G01X18635Y15767D01*
G01X18588Y15770D01*
G37*
G36*
G01X16048Y15770D02*
G01X16001Y15771D01*
G01X15955Y15770D01*
G01X15908Y15767D01*
G01X15862Y15762D01*
G01X15816Y15755D01*
G01X15770Y15745D01*
G01X15725Y15734D01*
G01X15680Y15720D01*
G01X15636Y15705D01*
G01X15593Y15688D01*
G01X15550Y15668D01*
G01X15509Y15647D01*
G01X15468Y15624D01*
G01X15429Y15599D01*
G01X15390Y15573D01*
G01X15353Y15545D01*
G01X15317Y15515D01*
G01X15283Y15483D01*
G01X15250Y15450D01*
G01X15218Y15416D01*
G01X15188Y15380D01*
G01X15160Y15343D01*
G01X15134Y15304D01*
G01X15109Y15265D01*
G01X15086Y15224D01*
G01X15065Y15183D01*
G01X15045Y15140D01*
G01X15028Y15097D01*
G01X15013Y15053D01*
G01X14999Y15008D01*
G01X14988Y14963D01*
G01X14978Y14917D01*
G01X14971Y14871D01*
G01X14966Y14825D01*
G01X14963Y14778D01*
G01X14962Y14732D01*
G01X14963Y14685D01*
G01X14966Y14638D01*
G01X14971Y14592D01*
G01X14978Y14546D01*
G01X14988Y14500D01*
G01X14999Y14455D01*
G01X15013Y14410D01*
G01X15028Y14366D01*
G01X15045Y14323D01*
G01X15065Y14280D01*
G01X15086Y14239D01*
G01X15109Y14198D01*
G01X15134Y14159D01*
G01X15160Y14120D01*
G01X15188Y14083D01*
G01X15218Y14047D01*
G01X15250Y14013D01*
G01X15283Y13980D01*
G01X15317Y13948D01*
G01X15353Y13918D01*
G01X15390Y13890D01*
G01X15429Y13864D01*
G01X15468Y13839D01*
G01X15509Y13816D01*
G01X15550Y13795D01*
G01X15593Y13775D01*
G01X15636Y13758D01*
G01X15680Y13743D01*
G01X15725Y13729D01*
G01X15770Y13718D01*
G01X15816Y13708D01*
G01X15862Y13701D01*
G01X15908Y13696D01*
G01X15955Y13693D01*
G01X16002Y13692D01*
G01X16048Y13693D01*
G01X16095Y13696D01*
G01X16141Y13701D01*
G01X16187Y13708D01*
G01X16233Y13718D01*
G01X16278Y13729D01*
G01X16323Y13743D01*
G01X16367Y13758D01*
G01X16410Y13775D01*
G01X16453Y13795D01*
G01X16494Y13816D01*
G01X16535Y13839D01*
G01X16574Y13864D01*
G01X16613Y13890D01*
G01X16650Y13918D01*
G01X16686Y13948D01*
G01X16720Y13980D01*
G01X16753Y14013D01*
G01X16785Y14047D01*
G01X16815Y14083D01*
G01X16843Y14120D01*
G01X16869Y14159D01*
G01X16894Y14198D01*
G01X16917Y14239D01*
G01X16938Y14280D01*
G01X16958Y14323D01*
G01X16975Y14366D01*
G01X16990Y14410D01*
G01X17004Y14455D01*
G01X17015Y14500D01*
G01X17025Y14546D01*
G01X17032Y14592D01*
G01X17037Y14638D01*
G01X17040Y14685D01*
G01X17041Y14732D01*
G01X17040Y14778D01*
G01X17037Y14825D01*
G01X17032Y14871D01*
G01X17025Y14917D01*
G01X17015Y14963D01*
G01X17004Y15008D01*
G01X16990Y15053D01*
G01X16975Y15097D01*
G01X16958Y15140D01*
G01X16938Y15183D01*
G01X16917Y15224D01*
G01X16894Y15265D01*
G01X16869Y15304D01*
G01X16843Y15343D01*
G01X16815Y15380D01*
G01X16785Y15416D01*
G01X16753Y15450D01*
G01X16720Y15483D01*
G01X16686Y15515D01*
G01X16650Y15545D01*
G01X16613Y15573D01*
G01X16574Y15599D01*
G01X16535Y15624D01*
G01X16494Y15647D01*
G01X16453Y15668D01*
G01X16410Y15688D01*
G01X16367Y15705D01*
G01X16323Y15720D01*
G01X16278Y15734D01*
G01X16233Y15745D01*
G01X16187Y15755D01*
G01X16141Y15762D01*
G01X16095Y15767D01*
G01X16048Y15770D01*
G37*
G36*
G01X18588Y18310D02*
G01X18541Y18311D01*
G01X18495Y18310D01*
G01X18448Y18307D01*
G01X18402Y18302D01*
G01X18356Y18295D01*
G01X18310Y18285D01*
G01X18265Y18274D01*
G01X18220Y18260D01*
G01X18176Y18245D01*
G01X18133Y18228D01*
G01X18090Y18208D01*
G01X18049Y18187D01*
G01X18008Y18164D01*
G01X17969Y18139D01*
G01X17930Y18113D01*
G01X17893Y18085D01*
G01X17857Y18055D01*
G01X17823Y18023D01*
G01X17790Y17990D01*
G01X17758Y17956D01*
G01X17728Y17920D01*
G01X17700Y17883D01*
G01X17674Y17844D01*
G01X17649Y17805D01*
G01X17626Y17764D01*
G01X17605Y17723D01*
G01X17585Y17680D01*
G01X17568Y17637D01*
G01X17553Y17593D01*
G01X17539Y17548D01*
G01X17528Y17503D01*
G01X17518Y17457D01*
G01X17511Y17411D01*
G01X17506Y17365D01*
G01X17503Y17318D01*
G01X17502Y17272D01*
G01X17503Y17225D01*
G01X17506Y17178D01*
G01X17511Y17132D01*
G01X17518Y17086D01*
G01X17528Y17040D01*
G01X17539Y16995D01*
G01X17553Y16950D01*
G01X17568Y16906D01*
G01X17585Y16863D01*
G01X17605Y16820D01*
G01X17626Y16779D01*
G01X17649Y16738D01*
G01X17674Y16699D01*
G01X17700Y16660D01*
G01X17728Y16623D01*
G01X17758Y16587D01*
G01X17790Y16553D01*
G01X17823Y16520D01*
G01X17857Y16488D01*
G01X17893Y16458D01*
G01X17930Y16430D01*
G01X17969Y16404D01*
G01X18008Y16379D01*
G01X18049Y16356D01*
G01X18090Y16335D01*
G01X18133Y16315D01*
G01X18176Y16298D01*
G01X18220Y16283D01*
G01X18265Y16269D01*
G01X18310Y16258D01*
G01X18356Y16248D01*
G01X18402Y16241D01*
G01X18448Y16236D01*
G01X18495Y16233D01*
G01X18542Y16232D01*
G01X18588Y16233D01*
G01X18635Y16236D01*
G01X18681Y16241D01*
G01X18727Y16248D01*
G01X18773Y16258D01*
G01X18818Y16269D01*
G01X18863Y16283D01*
G01X18907Y16298D01*
G01X18950Y16315D01*
G01X18993Y16335D01*
G01X19034Y16356D01*
G01X19075Y16379D01*
G01X19114Y16404D01*
G01X19153Y16430D01*
G01X19190Y16458D01*
G01X19226Y16488D01*
G01X19260Y16520D01*
G01X19293Y16553D01*
G01X19325Y16587D01*
G01X19355Y16623D01*
G01X19383Y16660D01*
G01X19409Y16699D01*
G01X19434Y16738D01*
G01X19457Y16779D01*
G01X19478Y16820D01*
G01X19498Y16863D01*
G01X19515Y16906D01*
G01X19530Y16950D01*
G01X19544Y16995D01*
G01X19555Y17040D01*
G01X19565Y17086D01*
G01X19572Y17132D01*
G01X19577Y17178D01*
G01X19580Y17225D01*
G01X19581Y17272D01*
G01X19580Y17318D01*
G01X19577Y17365D01*
G01X19572Y17411D01*
G01X19565Y17457D01*
G01X19555Y17503D01*
G01X19544Y17548D01*
G01X19530Y17593D01*
G01X19515Y17637D01*
G01X19498Y17680D01*
G01X19478Y17723D01*
G01X19457Y17764D01*
G01X19434Y17805D01*
G01X19409Y17844D01*
G01X19383Y17883D01*
G01X19355Y17920D01*
G01X19325Y17956D01*
G01X19293Y17990D01*
G01X19260Y18023D01*
G01X19226Y18055D01*
G01X19190Y18085D01*
G01X19153Y18113D01*
G01X19114Y18139D01*
G01X19075Y18164D01*
G01X19034Y18187D01*
G01X18993Y18208D01*
G01X18950Y18228D01*
G01X18907Y18245D01*
G01X18863Y18260D01*
G01X18818Y18274D01*
G01X18773Y18285D01*
G01X18727Y18295D01*
G01X18681Y18302D01*
G01X18635Y18307D01*
G01X18588Y18310D01*
G37*
G36*
G01X16048Y20850D02*
G01X16001Y20851D01*
G01X15955Y20850D01*
G01X15908Y20847D01*
G01X15862Y20842D01*
G01X15816Y20835D01*
G01X15770Y20825D01*
G01X15725Y20814D01*
G01X15680Y20800D01*
G01X15636Y20785D01*
G01X15593Y20768D01*
G01X15550Y20748D01*
G01X15509Y20727D01*
G01X15468Y20704D01*
G01X15429Y20679D01*
G01X15390Y20653D01*
G01X15353Y20625D01*
G01X15317Y20595D01*
G01X15283Y20563D01*
G01X15250Y20530D01*
G01X15218Y20496D01*
G01X15188Y20460D01*
G01X15160Y20423D01*
G01X15134Y20384D01*
G01X15109Y20345D01*
G01X15086Y20304D01*
G01X15065Y20263D01*
G01X15045Y20220D01*
G01X15028Y20177D01*
G01X15013Y20133D01*
G01X14999Y20088D01*
G01X14988Y20043D01*
G01X14978Y19997D01*
G01X14971Y19951D01*
G01X14966Y19905D01*
G01X14963Y19858D01*
G01X14962Y19812D01*
G01X14963Y19765D01*
G01X14966Y19718D01*
G01X14971Y19672D01*
G01X14978Y19626D01*
G01X14988Y19580D01*
G01X14999Y19535D01*
G01X15013Y19490D01*
G01X15028Y19446D01*
G01X15045Y19403D01*
G01X15065Y19360D01*
G01X15086Y19319D01*
G01X15109Y19278D01*
G01X15134Y19239D01*
G01X15160Y19200D01*
G01X15188Y19163D01*
G01X15218Y19127D01*
G01X15250Y19093D01*
G01X15283Y19060D01*
G01X15317Y19028D01*
G01X15353Y18998D01*
G01X15390Y18970D01*
G01X15429Y18944D01*
G01X15468Y18919D01*
G01X15509Y18896D01*
G01X15550Y18875D01*
G01X15593Y18855D01*
G01X15636Y18838D01*
G01X15680Y18823D01*
G01X15725Y18809D01*
G01X15770Y18798D01*
G01X15816Y18788D01*
G01X15862Y18781D01*
G01X15908Y18776D01*
G01X15955Y18773D01*
G01X16001Y18772D01*
G01X16002Y18772D01*
G01X16048Y18773D01*
G01X16095Y18776D01*
G01X16141Y18781D01*
G01X16187Y18788D01*
G01X16233Y18798D01*
G01X16278Y18809D01*
G01X16323Y18823D01*
G01X16367Y18838D01*
G01X16410Y18855D01*
G01X16453Y18875D01*
G01X16494Y18896D01*
G01X16535Y18919D01*
G01X16574Y18944D01*
G01X16613Y18970D01*
G01X16650Y18998D01*
G01X16686Y19028D01*
G01X16720Y19060D01*
G01X16753Y19093D01*
G01X16785Y19127D01*
G01X16815Y19163D01*
G01X16843Y19200D01*
G01X16869Y19239D01*
G01X16894Y19278D01*
G01X16917Y19319D01*
G01X16938Y19360D01*
G01X16958Y19403D01*
G01X16975Y19446D01*
G01X16990Y19490D01*
G01X17004Y19535D01*
G01X17015Y19580D01*
G01X17025Y19626D01*
G01X17032Y19672D01*
G01X17037Y19718D01*
G01X17040Y19765D01*
G01X17041Y19812D01*
G01X17040Y19858D01*
G01X17037Y19905D01*
G01X17032Y19951D01*
G01X17025Y19997D01*
G01X17015Y20043D01*
G01X17004Y20088D01*
G01X16990Y20133D01*
G01X16975Y20177D01*
G01X16958Y20220D01*
G01X16938Y20263D01*
G01X16917Y20304D01*
G01X16894Y20345D01*
G01X16869Y20384D01*
G01X16843Y20423D01*
G01X16815Y20460D01*
G01X16785Y20496D01*
G01X16753Y20530D01*
G01X16720Y20563D01*
G01X16686Y20595D01*
G01X16650Y20625D01*
G01X16613Y20653D01*
G01X16574Y20679D01*
G01X16535Y20704D01*
G01X16494Y20727D01*
G01X16453Y20748D01*
G01X16410Y20768D01*
G01X16367Y20785D01*
G01X16323Y20800D01*
G01X16278Y20814D01*
G01X16233Y20825D01*
G01X16187Y20835D01*
G01X16141Y20842D01*
G01X16095Y20847D01*
G01X16048Y20850D01*
G37*
G36*
G01X18588Y5610D02*
G01X18541Y5611D01*
G01X18495Y5610D01*
G01X18448Y5607D01*
G01X18402Y5602D01*
G01X18356Y5595D01*
G01X18310Y5585D01*
G01X18265Y5574D01*
G01X18220Y5560D01*
G01X18176Y5545D01*
G01X18133Y5528D01*
G01X18090Y5508D01*
G01X18049Y5487D01*
G01X18008Y5464D01*
G01X17969Y5439D01*
G01X17930Y5413D01*
G01X17893Y5385D01*
G01X17857Y5355D01*
G01X17823Y5323D01*
G01X17790Y5290D01*
G01X17758Y5256D01*
G01X17728Y5220D01*
G01X17700Y5183D01*
G01X17674Y5144D01*
G01X17649Y5105D01*
G01X17626Y5064D01*
G01X17605Y5023D01*
G01X17585Y4980D01*
G01X17568Y4937D01*
G01X17553Y4893D01*
G01X17539Y4848D01*
G01X17528Y4803D01*
G01X17518Y4757D01*
G01X17511Y4711D01*
G01X17506Y4665D01*
G01X17503Y4618D01*
G01X17502Y4572D01*
G01X17503Y4525D01*
G01X17506Y4478D01*
G01X17511Y4432D01*
G01X17518Y4386D01*
G01X17528Y4340D01*
G01X17539Y4295D01*
G01X17553Y4250D01*
G01X17568Y4206D01*
G01X17585Y4163D01*
G01X17605Y4120D01*
G01X17626Y4079D01*
G01X17649Y4038D01*
G01X17674Y3999D01*
G01X17700Y3960D01*
G01X17728Y3923D01*
G01X17758Y3887D01*
G01X17790Y3853D01*
G01X17823Y3820D01*
G01X17857Y3788D01*
G01X17893Y3758D01*
G01X17930Y3730D01*
G01X17969Y3704D01*
G01X18008Y3679D01*
G01X18049Y3656D01*
G01X18090Y3635D01*
G01X18133Y3615D01*
G01X18176Y3598D01*
G01X18220Y3583D01*
G01X18265Y3569D01*
G01X18310Y3558D01*
G01X18356Y3548D01*
G01X18402Y3541D01*
G01X18448Y3536D01*
G01X18495Y3533D01*
G01X18542Y3532D01*
G01X18588Y3533D01*
G01X18635Y3536D01*
G01X18681Y3541D01*
G01X18727Y3548D01*
G01X18773Y3558D01*
G01X18818Y3569D01*
G01X18863Y3583D01*
G01X18907Y3598D01*
G01X18950Y3615D01*
G01X18993Y3635D01*
G01X19034Y3656D01*
G01X19075Y3679D01*
G01X19114Y3704D01*
G01X19153Y3730D01*
G01X19190Y3758D01*
G01X19226Y3788D01*
G01X19260Y3820D01*
G01X19293Y3853D01*
G01X19325Y3887D01*
G01X19355Y3923D01*
G01X19383Y3960D01*
G01X19409Y3999D01*
G01X19434Y4038D01*
G01X19457Y4079D01*
G01X19478Y4120D01*
G01X19498Y4163D01*
G01X19515Y4206D01*
G01X19530Y4250D01*
G01X19544Y4295D01*
G01X19555Y4340D01*
G01X19565Y4386D01*
G01X19572Y4432D01*
G01X19577Y4478D01*
G01X19580Y4525D01*
G01X19581Y4572D01*
G01X19580Y4618D01*
G01X19577Y4665D01*
G01X19572Y4711D01*
G01X19565Y4757D01*
G01X19555Y4803D01*
G01X19544Y4848D01*
G01X19530Y4893D01*
G01X19515Y4937D01*
G01X19498Y4980D01*
G01X19478Y5023D01*
G01X19457Y5064D01*
G01X19434Y5105D01*
G01X19409Y5144D01*
G01X19383Y5183D01*
G01X19355Y5220D01*
G01X19325Y5256D01*
G01X19293Y5290D01*
G01X19260Y5323D01*
G01X19226Y5355D01*
G01X19190Y5385D01*
G01X19153Y5413D01*
G01X19114Y5439D01*
G01X19075Y5464D01*
G01X19034Y5487D01*
G01X18993Y5508D01*
G01X18950Y5528D01*
G01X18907Y5545D01*
G01X18863Y5560D01*
G01X18818Y5574D01*
G01X18773Y5585D01*
G01X18727Y5595D01*
G01X18681Y5602D01*
G01X18635Y5607D01*
G01X18588Y5610D01*
G37*
G36*
G01X18588Y3070D02*
G01X18541Y3071D01*
G01X18495Y3070D01*
G01X18448Y3067D01*
G01X18402Y3062D01*
G01X18356Y3055D01*
G01X18310Y3045D01*
G01X18265Y3034D01*
G01X18220Y3020D01*
G01X18176Y3005D01*
G01X18133Y2988D01*
G01X18090Y2968D01*
G01X18049Y2947D01*
G01X18008Y2924D01*
G01X17969Y2899D01*
G01X17930Y2873D01*
G01X17893Y2845D01*
G01X17857Y2815D01*
G01X17823Y2783D01*
G01X17790Y2750D01*
G01X17758Y2716D01*
G01X17728Y2680D01*
G01X17700Y2643D01*
G01X17674Y2604D01*
G01X17649Y2565D01*
G01X17626Y2524D01*
G01X17605Y2483D01*
G01X17585Y2440D01*
G01X17568Y2397D01*
G01X17553Y2353D01*
G01X17539Y2308D01*
G01X17528Y2263D01*
G01X17518Y2217D01*
G01X17511Y2171D01*
G01X17506Y2125D01*
G01X17503Y2078D01*
G01X17502Y2032D01*
G01X17503Y1985D01*
G01X17506Y1938D01*
G01X17511Y1892D01*
G01X17518Y1846D01*
G01X17528Y1800D01*
G01X17539Y1755D01*
G01X17553Y1710D01*
G01X17568Y1666D01*
G01X17585Y1623D01*
G01X17605Y1580D01*
G01X17626Y1539D01*
G01X17649Y1498D01*
G01X17674Y1459D01*
G01X17700Y1420D01*
G01X17728Y1383D01*
G01X17758Y1347D01*
G01X17790Y1313D01*
G01X17823Y1280D01*
G01X17857Y1248D01*
G01X17893Y1218D01*
G01X17930Y1190D01*
G01X17969Y1164D01*
G01X18008Y1139D01*
G01X18049Y1116D01*
G01X18090Y1095D01*
G01X18133Y1075D01*
G01X18176Y1058D01*
G01X18220Y1043D01*
G01X18265Y1029D01*
G01X18310Y1018D01*
G01X18356Y1008D01*
G01X18402Y1001D01*
G01X18448Y996D01*
G01X18495Y993D01*
G01X18541Y992D01*
G01X18542Y992D01*
G01X18588Y993D01*
G01X18635Y996D01*
G01X18681Y1001D01*
G01X18727Y1008D01*
G01X18773Y1018D01*
G01X18818Y1029D01*
G01X18863Y1043D01*
G01X18907Y1058D01*
G01X18950Y1075D01*
G01X18993Y1095D01*
G01X19034Y1116D01*
G01X19075Y1139D01*
G01X19114Y1164D01*
G01X19153Y1190D01*
G01X19190Y1218D01*
G01X19226Y1248D01*
G01X19260Y1280D01*
G01X19293Y1313D01*
G01X19325Y1347D01*
G01X19355Y1383D01*
G01X19383Y1420D01*
G01X19409Y1459D01*
G01X19434Y1498D01*
G01X19457Y1539D01*
G01X19478Y1580D01*
G01X19498Y1623D01*
G01X19515Y1666D01*
G01X19530Y1710D01*
G01X19544Y1755D01*
G01X19555Y1800D01*
G01X19565Y1846D01*
G01X19572Y1892D01*
G01X19577Y1938D01*
G01X19580Y1985D01*
G01X19581Y2032D01*
G01X19580Y2078D01*
G01X19577Y2125D01*
G01X19572Y2171D01*
G01X19565Y2217D01*
G01X19555Y2263D01*
G01X19544Y2308D01*
G01X19530Y2353D01*
G01X19515Y2397D01*
G01X19498Y2440D01*
G01X19478Y2483D01*
G01X19457Y2524D01*
G01X19434Y2565D01*
G01X19409Y2604D01*
G01X19383Y2643D01*
G01X19355Y2680D01*
G01X19325Y2716D01*
G01X19293Y2750D01*
G01X19260Y2783D01*
G01X19226Y2815D01*
G01X19190Y2845D01*
G01X19153Y2873D01*
G01X19114Y2899D01*
G01X19075Y2924D01*
G01X19034Y2947D01*
G01X18993Y2968D01*
G01X18950Y2988D01*
G01X18907Y3005D01*
G01X18863Y3020D01*
G01X18818Y3034D01*
G01X18773Y3045D01*
G01X18727Y3055D01*
G01X18681Y3062D01*
G01X18635Y3067D01*
G01X18588Y3070D01*
G37*
G36*
G01X16048Y3070D02*
G01X16001Y3071D01*
G01X15955Y3070D01*
G01X15908Y3067D01*
G01X15862Y3062D01*
G01X15816Y3055D01*
G01X15770Y3045D01*
G01X15725Y3034D01*
G01X15680Y3020D01*
G01X15636Y3005D01*
G01X15593Y2988D01*
G01X15550Y2968D01*
G01X15509Y2947D01*
G01X15468Y2924D01*
G01X15429Y2899D01*
G01X15390Y2873D01*
G01X15353Y2845D01*
G01X15317Y2815D01*
G01X15283Y2783D01*
G01X15250Y2750D01*
G01X15218Y2716D01*
G01X15188Y2680D01*
G01X15160Y2643D01*
G01X15134Y2604D01*
G01X15109Y2565D01*
G01X15086Y2524D01*
G01X15065Y2483D01*
G01X15045Y2440D01*
G01X15028Y2397D01*
G01X15013Y2353D01*
G01X14999Y2308D01*
G01X14988Y2263D01*
G01X14978Y2217D01*
G01X14971Y2171D01*
G01X14966Y2125D01*
G01X14963Y2078D01*
G01X14962Y2032D01*
G01X14963Y1985D01*
G01X14966Y1938D01*
G01X14971Y1892D01*
G01X14978Y1846D01*
G01X14988Y1800D01*
G01X14999Y1755D01*
G01X15013Y1710D01*
G01X15028Y1666D01*
G01X15045Y1623D01*
G01X15065Y1580D01*
G01X15086Y1539D01*
G01X15109Y1498D01*
G01X15134Y1459D01*
G01X15160Y1420D01*
G01X15188Y1383D01*
G01X15218Y1347D01*
G01X15250Y1313D01*
G01X15283Y1280D01*
G01X15317Y1248D01*
G01X15353Y1218D01*
G01X15390Y1190D01*
G01X15429Y1164D01*
G01X15468Y1139D01*
G01X15509Y1116D01*
G01X15550Y1095D01*
G01X15593Y1075D01*
G01X15636Y1058D01*
G01X15680Y1043D01*
G01X15725Y1029D01*
G01X15770Y1018D01*
G01X15816Y1008D01*
G01X15862Y1001D01*
G01X15908Y996D01*
G01X15955Y993D01*
G01X16002Y992D01*
G01X16048Y993D01*
G01X16095Y996D01*
G01X16141Y1001D01*
G01X16187Y1008D01*
G01X16233Y1018D01*
G01X16278Y1029D01*
G01X16323Y1043D01*
G01X16367Y1058D01*
G01X16410Y1075D01*
G01X16453Y1095D01*
G01X16494Y1116D01*
G01X16535Y1139D01*
G01X16574Y1164D01*
G01X16613Y1190D01*
G01X16650Y1218D01*
G01X16686Y1248D01*
G01X16720Y1280D01*
G01X16753Y1313D01*
G01X16785Y1347D01*
G01X16815Y1383D01*
G01X16843Y1420D01*
G01X16869Y1459D01*
G01X16894Y1498D01*
G01X16917Y1539D01*
G01X16938Y1580D01*
G01X16958Y1623D01*
G01X16975Y1666D01*
G01X16990Y1710D01*
G01X17004Y1755D01*
G01X17015Y1800D01*
G01X17025Y1846D01*
G01X17032Y1892D01*
G01X17037Y1938D01*
G01X17040Y1985D01*
G01X17041Y2032D01*
G01X17040Y2078D01*
G01X17037Y2125D01*
G01X17032Y2171D01*
G01X17025Y2217D01*
G01X17015Y2263D01*
G01X17004Y2308D01*
G01X16990Y2353D01*
G01X16975Y2397D01*
G01X16958Y2440D01*
G01X16938Y2483D01*
G01X16917Y2524D01*
G01X16894Y2565D01*
G01X16869Y2604D01*
G01X16843Y2643D01*
G01X16815Y2680D01*
G01X16785Y2716D01*
G01X16753Y2750D01*
G01X16720Y2783D01*
G01X16686Y2815D01*
G01X16650Y2845D01*
G01X16613Y2873D01*
G01X16574Y2899D01*
G01X16535Y2924D01*
G01X16494Y2947D01*
G01X16453Y2968D01*
G01X16410Y2988D01*
G01X16367Y3005D01*
G01X16323Y3020D01*
G01X16278Y3034D01*
G01X16233Y3045D01*
G01X16187Y3055D01*
G01X16141Y3062D01*
G01X16095Y3067D01*
G01X16048Y3070D01*
G37*
G36*
G01X23668Y3070D02*
G01X23621Y3071D01*
G01X23575Y3070D01*
G01X23528Y3067D01*
G01X23482Y3062D01*
G01X23436Y3055D01*
G01X23390Y3045D01*
G01X23345Y3034D01*
G01X23300Y3020D01*
G01X23256Y3005D01*
G01X23213Y2988D01*
G01X23170Y2968D01*
G01X23129Y2947D01*
G01X23088Y2924D01*
G01X23049Y2899D01*
G01X23010Y2873D01*
G01X22973Y2845D01*
G01X22937Y2815D01*
G01X22903Y2783D01*
G01X22870Y2750D01*
G01X22838Y2716D01*
G01X22808Y2680D01*
G01X22780Y2643D01*
G01X22754Y2604D01*
G01X22729Y2565D01*
G01X22706Y2524D01*
G01X22685Y2483D01*
G01X22665Y2440D01*
G01X22648Y2397D01*
G01X22633Y2353D01*
G01X22619Y2308D01*
G01X22608Y2263D01*
G01X22598Y2217D01*
G01X22591Y2171D01*
G01X22586Y2125D01*
G01X22583Y2078D01*
G01X22582Y2032D01*
G01X22583Y1985D01*
G01X22586Y1938D01*
G01X22591Y1892D01*
G01X22598Y1846D01*
G01X22608Y1800D01*
G01X22619Y1755D01*
G01X22633Y1710D01*
G01X22648Y1666D01*
G01X22665Y1623D01*
G01X22685Y1580D01*
G01X22706Y1539D01*
G01X22729Y1498D01*
G01X22754Y1459D01*
G01X22780Y1420D01*
G01X22808Y1383D01*
G01X22838Y1347D01*
G01X22870Y1313D01*
G01X22903Y1280D01*
G01X22937Y1248D01*
G01X22973Y1218D01*
G01X23010Y1190D01*
G01X23049Y1164D01*
G01X23088Y1139D01*
G01X23129Y1116D01*
G01X23170Y1095D01*
G01X23213Y1075D01*
G01X23256Y1058D01*
G01X23300Y1043D01*
G01X23345Y1029D01*
G01X23390Y1018D01*
G01X23436Y1008D01*
G01X23482Y1001D01*
G01X23528Y996D01*
G01X23575Y993D01*
G01X23622Y992D01*
G01X23668Y993D01*
G01X23715Y996D01*
G01X23761Y1001D01*
G01X23807Y1008D01*
G01X23853Y1018D01*
G01X23898Y1029D01*
G01X23943Y1043D01*
G01X23987Y1058D01*
G01X24030Y1075D01*
G01X24073Y1095D01*
G01X24114Y1116D01*
G01X24155Y1139D01*
G01X24194Y1164D01*
G01X24233Y1190D01*
G01X24270Y1218D01*
G01X24306Y1248D01*
G01X24340Y1280D01*
G01X24373Y1313D01*
G01X24405Y1347D01*
G01X24435Y1383D01*
G01X24463Y1420D01*
G01X24489Y1459D01*
G01X24514Y1498D01*
G01X24537Y1539D01*
G01X24558Y1580D01*
G01X24578Y1623D01*
G01X24595Y1666D01*
G01X24610Y1710D01*
G01X24624Y1755D01*
G01X24635Y1800D01*
G01X24645Y1846D01*
G01X24652Y1892D01*
G01X24657Y1938D01*
G01X24660Y1985D01*
G01X24661Y2032D01*
G01X24660Y2078D01*
G01X24657Y2125D01*
G01X24652Y2171D01*
G01X24645Y2217D01*
G01X24635Y2263D01*
G01X24624Y2308D01*
G01X24610Y2353D01*
G01X24595Y2397D01*
G01X24578Y2440D01*
G01X24558Y2483D01*
G01X24537Y2524D01*
G01X24514Y2565D01*
G01X24489Y2604D01*
G01X24463Y2643D01*
G01X24435Y2680D01*
G01X24405Y2716D01*
G01X24373Y2750D01*
G01X24340Y2783D01*
G01X24306Y2815D01*
G01X24270Y2845D01*
G01X24233Y2873D01*
G01X24194Y2899D01*
G01X24155Y2924D01*
G01X24114Y2947D01*
G01X24073Y2968D01*
G01X24030Y2988D01*
G01X23987Y3005D01*
G01X23943Y3020D01*
G01X23898Y3034D01*
G01X23853Y3045D01*
G01X23807Y3055D01*
G01X23761Y3062D01*
G01X23715Y3067D01*
G01X23668Y3070D01*
G37*
G36*
G01X16048Y23390D02*
G01X16001Y23391D01*
G01X15955Y23390D01*
G01X15908Y23387D01*
G01X15862Y23382D01*
G01X15816Y23375D01*
G01X15770Y23365D01*
G01X15725Y23354D01*
G01X15680Y23340D01*
G01X15636Y23325D01*
G01X15593Y23308D01*
G01X15550Y23288D01*
G01X15509Y23267D01*
G01X15468Y23244D01*
G01X15429Y23219D01*
G01X15390Y23193D01*
G01X15353Y23165D01*
G01X15317Y23135D01*
G01X15283Y23103D01*
G01X15250Y23070D01*
G01X15218Y23036D01*
G01X15188Y23000D01*
G01X15160Y22963D01*
G01X15134Y22924D01*
G01X15109Y22885D01*
G01X15086Y22844D01*
G01X15065Y22803D01*
G01X15045Y22760D01*
G01X15028Y22717D01*
G01X15013Y22673D01*
G01X14999Y22628D01*
G01X14988Y22583D01*
G01X14978Y22537D01*
G01X14971Y22491D01*
G01X14966Y22445D01*
G01X14963Y22398D01*
G01X14962Y22352D01*
G01X14963Y22305D01*
G01X14966Y22258D01*
G01X14971Y22212D01*
G01X14978Y22166D01*
G01X14988Y22120D01*
G01X14999Y22075D01*
G01X15013Y22030D01*
G01X15028Y21986D01*
G01X15045Y21943D01*
G01X15065Y21900D01*
G01X15086Y21859D01*
G01X15109Y21818D01*
G01X15134Y21779D01*
G01X15160Y21740D01*
G01X15188Y21703D01*
G01X15218Y21667D01*
G01X15250Y21633D01*
G01X15283Y21600D01*
G01X15317Y21568D01*
G01X15353Y21538D01*
G01X15390Y21510D01*
G01X15429Y21484D01*
G01X15468Y21459D01*
G01X15509Y21436D01*
G01X15550Y21415D01*
G01X15593Y21395D01*
G01X15636Y21378D01*
G01X15680Y21363D01*
G01X15725Y21349D01*
G01X15770Y21338D01*
G01X15816Y21328D01*
G01X15862Y21321D01*
G01X15908Y21316D01*
G01X15955Y21313D01*
G01X16002Y21312D01*
G01X16048Y21313D01*
G01X16095Y21316D01*
G01X16141Y21321D01*
G01X16187Y21328D01*
G01X16233Y21338D01*
G01X16278Y21349D01*
G01X16323Y21363D01*
G01X16367Y21378D01*
G01X16410Y21395D01*
G01X16453Y21415D01*
G01X16494Y21436D01*
G01X16535Y21459D01*
G01X16574Y21484D01*
G01X16613Y21510D01*
G01X16650Y21538D01*
G01X16686Y21568D01*
G01X16720Y21600D01*
G01X16753Y21633D01*
G01X16785Y21667D01*
G01X16815Y21703D01*
G01X16843Y21740D01*
G01X16869Y21779D01*
G01X16894Y21818D01*
G01X16917Y21859D01*
G01X16938Y21900D01*
G01X16958Y21943D01*
G01X16975Y21986D01*
G01X16990Y22030D01*
G01X17004Y22075D01*
G01X17015Y22120D01*
G01X17025Y22166D01*
G01X17032Y22212D01*
G01X17037Y22258D01*
G01X17040Y22305D01*
G01X17041Y22352D01*
G01X17040Y22398D01*
G01X17037Y22445D01*
G01X17032Y22491D01*
G01X17025Y22537D01*
G01X17015Y22583D01*
G01X17004Y22628D01*
G01X16990Y22673D01*
G01X16975Y22717D01*
G01X16958Y22760D01*
G01X16938Y22803D01*
G01X16917Y22844D01*
G01X16894Y22885D01*
G01X16869Y22924D01*
G01X16843Y22963D01*
G01X16815Y23000D01*
G01X16785Y23036D01*
G01X16753Y23070D01*
G01X16720Y23103D01*
G01X16686Y23135D01*
G01X16650Y23165D01*
G01X16613Y23193D01*
G01X16574Y23219D01*
G01X16535Y23244D01*
G01X16494Y23267D01*
G01X16453Y23288D01*
G01X16410Y23308D01*
G01X16367Y23325D01*
G01X16323Y23340D01*
G01X16278Y23354D01*
G01X16233Y23365D01*
G01X16187Y23375D01*
G01X16141Y23382D01*
G01X16095Y23387D01*
G01X16048Y23390D01*
G37*
G36*
G01X18588Y20850D02*
G01X18541Y20851D01*
G01X18495Y20850D01*
G01X18448Y20847D01*
G01X18402Y20842D01*
G01X18356Y20835D01*
G01X18310Y20825D01*
G01X18265Y20814D01*
G01X18220Y20800D01*
G01X18176Y20785D01*
G01X18133Y20768D01*
G01X18090Y20748D01*
G01X18049Y20727D01*
G01X18008Y20704D01*
G01X17969Y20679D01*
G01X17930Y20653D01*
G01X17893Y20625D01*
G01X17857Y20595D01*
G01X17823Y20563D01*
G01X17790Y20530D01*
G01X17758Y20496D01*
G01X17728Y20460D01*
G01X17700Y20423D01*
G01X17674Y20384D01*
G01X17649Y20345D01*
G01X17626Y20304D01*
G01X17605Y20263D01*
G01X17585Y20220D01*
G01X17568Y20177D01*
G01X17553Y20133D01*
G01X17539Y20088D01*
G01X17528Y20043D01*
G01X17518Y19997D01*
G01X17511Y19951D01*
G01X17506Y19905D01*
G01X17503Y19858D01*
G01X17502Y19812D01*
G01X17503Y19765D01*
G01X17506Y19718D01*
G01X17511Y19672D01*
G01X17518Y19626D01*
G01X17528Y19580D01*
G01X17539Y19535D01*
G01X17553Y19490D01*
G01X17568Y19446D01*
G01X17585Y19403D01*
G01X17605Y19360D01*
G01X17626Y19319D01*
G01X17649Y19278D01*
G01X17674Y19239D01*
G01X17700Y19200D01*
G01X17728Y19163D01*
G01X17758Y19127D01*
G01X17790Y19093D01*
G01X17823Y19060D01*
G01X17857Y19028D01*
G01X17893Y18998D01*
G01X17930Y18970D01*
G01X17969Y18944D01*
G01X18008Y18919D01*
G01X18049Y18896D01*
G01X18090Y18875D01*
G01X18133Y18855D01*
G01X18176Y18838D01*
G01X18220Y18823D01*
G01X18265Y18809D01*
G01X18310Y18798D01*
G01X18356Y18788D01*
G01X18402Y18781D01*
G01X18448Y18776D01*
G01X18495Y18773D01*
G01X18541Y18772D01*
G01X18542Y18772D01*
G01X18588Y18773D01*
G01X18635Y18776D01*
G01X18681Y18781D01*
G01X18727Y18788D01*
G01X18773Y18798D01*
G01X18818Y18809D01*
G01X18863Y18823D01*
G01X18907Y18838D01*
G01X18950Y18855D01*
G01X18993Y18875D01*
G01X19034Y18896D01*
G01X19075Y18919D01*
G01X19114Y18944D01*
G01X19153Y18970D01*
G01X19190Y18998D01*
G01X19226Y19028D01*
G01X19260Y19060D01*
G01X19293Y19093D01*
G01X19325Y19127D01*
G01X19355Y19163D01*
G01X19383Y19200D01*
G01X19409Y19239D01*
G01X19434Y19278D01*
G01X19457Y19319D01*
G01X19478Y19360D01*
G01X19498Y19403D01*
G01X19515Y19446D01*
G01X19530Y19490D01*
G01X19544Y19535D01*
G01X19555Y19580D01*
G01X19565Y19626D01*
G01X19572Y19672D01*
G01X19577Y19718D01*
G01X19580Y19765D01*
G01X19581Y19812D01*
G01X19580Y19858D01*
G01X19577Y19905D01*
G01X19572Y19951D01*
G01X19565Y19997D01*
G01X19555Y20043D01*
G01X19544Y20088D01*
G01X19530Y20133D01*
G01X19515Y20177D01*
G01X19498Y20220D01*
G01X19478Y20263D01*
G01X19457Y20304D01*
G01X19434Y20345D01*
G01X19409Y20384D01*
G01X19383Y20423D01*
G01X19355Y20460D01*
G01X19325Y20496D01*
G01X19293Y20530D01*
G01X19260Y20563D01*
G01X19226Y20595D01*
G01X19190Y20625D01*
G01X19153Y20653D01*
G01X19114Y20679D01*
G01X19075Y20704D01*
G01X19034Y20727D01*
G01X18993Y20748D01*
G01X18950Y20768D01*
G01X18907Y20785D01*
G01X18863Y20800D01*
G01X18818Y20814D01*
G01X18773Y20825D01*
G01X18727Y20835D01*
G01X18681Y20842D01*
G01X18635Y20847D01*
G01X18588Y20850D01*
G37*
G36*
G01X18588Y10690D02*
G01X18541Y10691D01*
G01X18495Y10690D01*
G01X18448Y10687D01*
G01X18402Y10682D01*
G01X18356Y10675D01*
G01X18310Y10665D01*
G01X18265Y10654D01*
G01X18220Y10640D01*
G01X18176Y10625D01*
G01X18133Y10608D01*
G01X18090Y10588D01*
G01X18049Y10567D01*
G01X18008Y10544D01*
G01X17969Y10519D01*
G01X17930Y10493D01*
G01X17893Y10465D01*
G01X17857Y10435D01*
G01X17823Y10403D01*
G01X17790Y10370D01*
G01X17758Y10336D01*
G01X17728Y10300D01*
G01X17700Y10263D01*
G01X17674Y10224D01*
G01X17649Y10185D01*
G01X17626Y10144D01*
G01X17605Y10103D01*
G01X17585Y10060D01*
G01X17568Y10017D01*
G01X17553Y9973D01*
G01X17539Y9928D01*
G01X17528Y9883D01*
G01X17518Y9837D01*
G01X17511Y9791D01*
G01X17506Y9745D01*
G01X17503Y9698D01*
G01X17502Y9652D01*
G01X17503Y9605D01*
G01X17506Y9558D01*
G01X17511Y9512D01*
G01X17518Y9466D01*
G01X17528Y9420D01*
G01X17539Y9375D01*
G01X17553Y9330D01*
G01X17568Y9286D01*
G01X17585Y9243D01*
G01X17605Y9200D01*
G01X17626Y9159D01*
G01X17649Y9118D01*
G01X17674Y9079D01*
G01X17700Y9040D01*
G01X17728Y9003D01*
G01X17758Y8967D01*
G01X17790Y8933D01*
G01X17823Y8900D01*
G01X17857Y8868D01*
G01X17893Y8838D01*
G01X17930Y8810D01*
G01X17969Y8784D01*
G01X18008Y8759D01*
G01X18049Y8736D01*
G01X18090Y8715D01*
G01X18133Y8695D01*
G01X18176Y8678D01*
G01X18220Y8663D01*
G01X18265Y8649D01*
G01X18310Y8638D01*
G01X18356Y8628D01*
G01X18402Y8621D01*
G01X18448Y8616D01*
G01X18495Y8613D01*
G01X18542Y8612D01*
G01X18588Y8613D01*
G01X18635Y8616D01*
G01X18681Y8621D01*
G01X18727Y8628D01*
G01X18773Y8638D01*
G01X18818Y8649D01*
G01X18863Y8663D01*
G01X18907Y8678D01*
G01X18950Y8695D01*
G01X18993Y8715D01*
G01X19034Y8736D01*
G01X19075Y8759D01*
G01X19114Y8784D01*
G01X19153Y8810D01*
G01X19190Y8838D01*
G01X19226Y8868D01*
G01X19260Y8900D01*
G01X19293Y8933D01*
G01X19325Y8967D01*
G01X19355Y9003D01*
G01X19383Y9040D01*
G01X19409Y9079D01*
G01X19434Y9118D01*
G01X19457Y9159D01*
G01X19478Y9200D01*
G01X19498Y9243D01*
G01X19515Y9286D01*
G01X19530Y9330D01*
G01X19544Y9375D01*
G01X19555Y9420D01*
G01X19565Y9466D01*
G01X19572Y9512D01*
G01X19577Y9558D01*
G01X19580Y9605D01*
G01X19581Y9652D01*
G01X19580Y9698D01*
G01X19577Y9745D01*
G01X19572Y9791D01*
G01X19565Y9837D01*
G01X19555Y9883D01*
G01X19544Y9928D01*
G01X19530Y9973D01*
G01X19515Y10017D01*
G01X19498Y10060D01*
G01X19478Y10103D01*
G01X19457Y10144D01*
G01X19434Y10185D01*
G01X19409Y10224D01*
G01X19383Y10263D01*
G01X19355Y10300D01*
G01X19325Y10336D01*
G01X19293Y10370D01*
G01X19260Y10403D01*
G01X19226Y10435D01*
G01X19190Y10465D01*
G01X19153Y10493D01*
G01X19114Y10519D01*
G01X19075Y10544D01*
G01X19034Y10567D01*
G01X18993Y10588D01*
G01X18950Y10608D01*
G01X18907Y10625D01*
G01X18863Y10640D01*
G01X18818Y10654D01*
G01X18773Y10665D01*
G01X18727Y10675D01*
G01X18681Y10682D01*
G01X18635Y10687D01*
G01X18588Y10690D01*
G37*
G36*
G01X23668Y51584D02*
G01X23621Y51585D01*
G01X23575Y51584D01*
G01X23528Y51581D01*
G01X23482Y51576D01*
G01X23436Y51569D01*
G01X23390Y51559D01*
G01X23345Y51548D01*
G01X23300Y51534D01*
G01X23256Y51519D01*
G01X23213Y51502D01*
G01X23170Y51482D01*
G01X23129Y51461D01*
G01X23088Y51438D01*
G01X23049Y51413D01*
G01X23010Y51387D01*
G01X22973Y51359D01*
G01X22937Y51329D01*
G01X22903Y51297D01*
G01X22870Y51264D01*
G01X22838Y51230D01*
G01X22808Y51194D01*
G01X22780Y51157D01*
G01X22754Y51118D01*
G01X22729Y51079D01*
G01X22706Y51038D01*
G01X22685Y50997D01*
G01X22665Y50954D01*
G01X22648Y50911D01*
G01X22633Y50867D01*
G01X22619Y50822D01*
G01X22608Y50777D01*
G01X22598Y50731D01*
G01X22591Y50685D01*
G01X22586Y50639D01*
G01X22583Y50592D01*
G01X22582Y50546D01*
G01X22583Y50499D01*
G01X22586Y50452D01*
G01X22591Y50406D01*
G01X22598Y50360D01*
G01X22608Y50314D01*
G01X22619Y50269D01*
G01X22633Y50224D01*
G01X22648Y50180D01*
G01X22665Y50137D01*
G01X22685Y50094D01*
G01X22706Y50053D01*
G01X22729Y50012D01*
G01X22754Y49973D01*
G01X22780Y49934D01*
G01X22808Y49897D01*
G01X22838Y49861D01*
G01X22870Y49827D01*
G01X22903Y49794D01*
G01X22937Y49762D01*
G01X22973Y49732D01*
G01X23010Y49704D01*
G01X23049Y49678D01*
G01X23088Y49653D01*
G01X23129Y49630D01*
G01X23170Y49609D01*
G01X23213Y49589D01*
G01X23256Y49572D01*
G01X23300Y49557D01*
G01X23345Y49543D01*
G01X23390Y49532D01*
G01X23436Y49522D01*
G01X23482Y49515D01*
G01X23528Y49510D01*
G01X23575Y49507D01*
G01X23622Y49506D01*
G01X23668Y49507D01*
G01X23715Y49510D01*
G01X23761Y49515D01*
G01X23807Y49522D01*
G01X23853Y49532D01*
G01X23898Y49543D01*
G01X23943Y49557D01*
G01X23987Y49572D01*
G01X24030Y49589D01*
G01X24073Y49609D01*
G01X24114Y49630D01*
G01X24155Y49653D01*
G01X24194Y49678D01*
G01X24233Y49704D01*
G01X24270Y49732D01*
G01X24306Y49762D01*
G01X24340Y49794D01*
G01X24373Y49827D01*
G01X24405Y49861D01*
G01X24435Y49897D01*
G01X24463Y49934D01*
G01X24489Y49973D01*
G01X24514Y50012D01*
G01X24537Y50053D01*
G01X24558Y50094D01*
G01X24578Y50137D01*
G01X24595Y50180D01*
G01X24610Y50224D01*
G01X24624Y50269D01*
G01X24635Y50314D01*
G01X24645Y50360D01*
G01X24652Y50406D01*
G01X24657Y50452D01*
G01X24660Y50499D01*
G01X24661Y50546D01*
G01X24660Y50592D01*
G01X24657Y50639D01*
G01X24652Y50685D01*
G01X24645Y50731D01*
G01X24635Y50777D01*
G01X24624Y50822D01*
G01X24610Y50867D01*
G01X24595Y50911D01*
G01X24578Y50954D01*
G01X24558Y50997D01*
G01X24537Y51038D01*
G01X24514Y51079D01*
G01X24489Y51118D01*
G01X24463Y51157D01*
G01X24435Y51194D01*
G01X24405Y51230D01*
G01X24373Y51264D01*
G01X24340Y51297D01*
G01X24306Y51329D01*
G01X24270Y51359D01*
G01X24233Y51387D01*
G01X24194Y51413D01*
G01X24155Y51438D01*
G01X24114Y51461D01*
G01X24073Y51482D01*
G01X24030Y51502D01*
G01X23987Y51519D01*
G01X23943Y51534D01*
G01X23898Y51548D01*
G01X23853Y51559D01*
G01X23807Y51569D01*
G01X23761Y51576D01*
G01X23715Y51581D01*
G01X23668Y51584D01*
G37*
G36*
G01X16048Y25930D02*
G01X16001Y25931D01*
G01X15955Y25930D01*
G01X15908Y25927D01*
G01X15862Y25922D01*
G01X15816Y25915D01*
G01X15770Y25905D01*
G01X15725Y25894D01*
G01X15680Y25880D01*
G01X15636Y25865D01*
G01X15593Y25848D01*
G01X15550Y25828D01*
G01X15509Y25807D01*
G01X15468Y25784D01*
G01X15429Y25759D01*
G01X15390Y25733D01*
G01X15353Y25705D01*
G01X15317Y25675D01*
G01X15283Y25643D01*
G01X15250Y25610D01*
G01X15218Y25576D01*
G01X15188Y25540D01*
G01X15160Y25503D01*
G01X15134Y25464D01*
G01X15109Y25425D01*
G01X15086Y25384D01*
G01X15065Y25343D01*
G01X15045Y25300D01*
G01X15028Y25257D01*
G01X15013Y25213D01*
G01X14999Y25168D01*
G01X14988Y25123D01*
G01X14978Y25077D01*
G01X14971Y25031D01*
G01X14966Y24985D01*
G01X14963Y24938D01*
G01X14962Y24892D01*
G01X14963Y24845D01*
G01X14966Y24798D01*
G01X14971Y24752D01*
G01X14978Y24706D01*
G01X14988Y24660D01*
G01X14999Y24615D01*
G01X15013Y24570D01*
G01X15028Y24526D01*
G01X15045Y24483D01*
G01X15065Y24440D01*
G01X15086Y24399D01*
G01X15109Y24358D01*
G01X15134Y24319D01*
G01X15160Y24280D01*
G01X15188Y24243D01*
G01X15218Y24207D01*
G01X15250Y24173D01*
G01X15283Y24140D01*
G01X15317Y24108D01*
G01X15353Y24078D01*
G01X15390Y24050D01*
G01X15429Y24024D01*
G01X15468Y23999D01*
G01X15509Y23976D01*
G01X15550Y23955D01*
G01X15593Y23935D01*
G01X15636Y23918D01*
G01X15680Y23903D01*
G01X15725Y23889D01*
G01X15770Y23878D01*
G01X15816Y23868D01*
G01X15862Y23861D01*
G01X15908Y23856D01*
G01X15955Y23853D01*
G01X16001Y23852D01*
G01X16002Y23852D01*
G01X16048Y23853D01*
G01X16095Y23856D01*
G01X16141Y23861D01*
G01X16187Y23868D01*
G01X16233Y23878D01*
G01X16278Y23889D01*
G01X16323Y23903D01*
G01X16367Y23918D01*
G01X16410Y23935D01*
G01X16453Y23955D01*
G01X16494Y23976D01*
G01X16535Y23999D01*
G01X16574Y24024D01*
G01X16613Y24050D01*
G01X16650Y24078D01*
G01X16686Y24108D01*
G01X16720Y24140D01*
G01X16753Y24173D01*
G01X16785Y24207D01*
G01X16815Y24243D01*
G01X16843Y24280D01*
G01X16869Y24319D01*
G01X16894Y24358D01*
G01X16917Y24399D01*
G01X16938Y24440D01*
G01X16958Y24483D01*
G01X16975Y24526D01*
G01X16990Y24570D01*
G01X17004Y24615D01*
G01X17015Y24660D01*
G01X17025Y24706D01*
G01X17032Y24752D01*
G01X17037Y24798D01*
G01X17040Y24845D01*
G01X17041Y24892D01*
G01X17040Y24938D01*
G01X17037Y24985D01*
G01X17032Y25031D01*
G01X17025Y25077D01*
G01X17015Y25123D01*
G01X17004Y25168D01*
G01X16990Y25213D01*
G01X16975Y25257D01*
G01X16958Y25300D01*
G01X16938Y25343D01*
G01X16917Y25384D01*
G01X16894Y25425D01*
G01X16869Y25464D01*
G01X16843Y25503D01*
G01X16815Y25540D01*
G01X16785Y25576D01*
G01X16753Y25610D01*
G01X16720Y25643D01*
G01X16686Y25675D01*
G01X16650Y25705D01*
G01X16613Y25733D01*
G01X16574Y25759D01*
G01X16535Y25784D01*
G01X16494Y25807D01*
G01X16453Y25828D01*
G01X16410Y25848D01*
G01X16367Y25865D01*
G01X16323Y25880D01*
G01X16278Y25894D01*
G01X16233Y25905D01*
G01X16187Y25915D01*
G01X16141Y25922D01*
G01X16095Y25927D01*
G01X16048Y25930D01*
G37*
G36*
G01X18588Y23390D02*
G01X18541Y23391D01*
G01X18495Y23390D01*
G01X18448Y23387D01*
G01X18402Y23382D01*
G01X18356Y23375D01*
G01X18310Y23365D01*
G01X18265Y23354D01*
G01X18220Y23340D01*
G01X18176Y23325D01*
G01X18133Y23308D01*
G01X18090Y23288D01*
G01X18049Y23267D01*
G01X18008Y23244D01*
G01X17969Y23219D01*
G01X17930Y23193D01*
G01X17893Y23165D01*
G01X17857Y23135D01*
G01X17823Y23103D01*
G01X17790Y23070D01*
G01X17758Y23036D01*
G01X17728Y23000D01*
G01X17700Y22963D01*
G01X17674Y22924D01*
G01X17649Y22885D01*
G01X17626Y22844D01*
G01X17605Y22803D01*
G01X17585Y22760D01*
G01X17568Y22717D01*
G01X17553Y22673D01*
G01X17539Y22628D01*
G01X17528Y22583D01*
G01X17518Y22537D01*
G01X17511Y22491D01*
G01X17506Y22445D01*
G01X17503Y22398D01*
G01X17502Y22352D01*
G01X17503Y22305D01*
G01X17506Y22258D01*
G01X17511Y22212D01*
G01X17518Y22166D01*
G01X17528Y22120D01*
G01X17539Y22075D01*
G01X17553Y22030D01*
G01X17568Y21986D01*
G01X17585Y21943D01*
G01X17605Y21900D01*
G01X17626Y21859D01*
G01X17649Y21818D01*
G01X17674Y21779D01*
G01X17700Y21740D01*
G01X17728Y21703D01*
G01X17758Y21667D01*
G01X17790Y21633D01*
G01X17823Y21600D01*
G01X17857Y21568D01*
G01X17893Y21538D01*
G01X17930Y21510D01*
G01X17969Y21484D01*
G01X18008Y21459D01*
G01X18049Y21436D01*
G01X18090Y21415D01*
G01X18133Y21395D01*
G01X18176Y21378D01*
G01X18220Y21363D01*
G01X18265Y21349D01*
G01X18310Y21338D01*
G01X18356Y21328D01*
G01X18402Y21321D01*
G01X18448Y21316D01*
G01X18495Y21313D01*
G01X18541Y21312D01*
G01X18542Y21312D01*
G01X18588Y21313D01*
G01X18635Y21316D01*
G01X18681Y21321D01*
G01X18727Y21328D01*
G01X18773Y21338D01*
G01X18818Y21349D01*
G01X18863Y21363D01*
G01X18907Y21378D01*
G01X18950Y21395D01*
G01X18993Y21415D01*
G01X19034Y21436D01*
G01X19075Y21459D01*
G01X19114Y21484D01*
G01X19153Y21510D01*
G01X19190Y21538D01*
G01X19226Y21568D01*
G01X19260Y21600D01*
G01X19293Y21633D01*
G01X19325Y21667D01*
G01X19355Y21703D01*
G01X19383Y21740D01*
G01X19409Y21779D01*
G01X19434Y21818D01*
G01X19457Y21859D01*
G01X19478Y21900D01*
G01X19498Y21943D01*
G01X19515Y21986D01*
G01X19530Y22030D01*
G01X19544Y22075D01*
G01X19555Y22120D01*
G01X19565Y22166D01*
G01X19572Y22212D01*
G01X19577Y22258D01*
G01X19580Y22305D01*
G01X19581Y22352D01*
G01X19580Y22398D01*
G01X19577Y22445D01*
G01X19572Y22491D01*
G01X19565Y22537D01*
G01X19555Y22583D01*
G01X19544Y22628D01*
G01X19530Y22673D01*
G01X19515Y22717D01*
G01X19498Y22760D01*
G01X19478Y22803D01*
G01X19457Y22844D01*
G01X19434Y22885D01*
G01X19409Y22924D01*
G01X19383Y22963D01*
G01X19355Y23000D01*
G01X19325Y23036D01*
G01X19293Y23070D01*
G01X19260Y23103D01*
G01X19226Y23135D01*
G01X19190Y23165D01*
G01X19153Y23193D01*
G01X19114Y23219D01*
G01X19075Y23244D01*
G01X19034Y23267D01*
G01X18993Y23288D01*
G01X18950Y23308D01*
G01X18907Y23325D01*
G01X18863Y23340D01*
G01X18818Y23354D01*
G01X18773Y23365D01*
G01X18727Y23375D01*
G01X18681Y23382D01*
G01X18635Y23387D01*
G01X18588Y23390D01*
G37*
G36*
G01X18588Y8150D02*
G01X18541Y8151D01*
G01X18495Y8150D01*
G01X18448Y8147D01*
G01X18402Y8142D01*
G01X18356Y8135D01*
G01X18310Y8125D01*
G01X18265Y8114D01*
G01X18220Y8100D01*
G01X18176Y8085D01*
G01X18133Y8068D01*
G01X18090Y8048D01*
G01X18049Y8027D01*
G01X18008Y8004D01*
G01X17969Y7979D01*
G01X17930Y7953D01*
G01X17893Y7925D01*
G01X17857Y7895D01*
G01X17823Y7863D01*
G01X17790Y7830D01*
G01X17758Y7796D01*
G01X17728Y7760D01*
G01X17700Y7723D01*
G01X17674Y7684D01*
G01X17649Y7645D01*
G01X17626Y7604D01*
G01X17605Y7563D01*
G01X17585Y7520D01*
G01X17568Y7477D01*
G01X17553Y7433D01*
G01X17539Y7388D01*
G01X17528Y7343D01*
G01X17518Y7297D01*
G01X17511Y7251D01*
G01X17506Y7205D01*
G01X17503Y7158D01*
G01X17502Y7112D01*
G01X17503Y7065D01*
G01X17506Y7018D01*
G01X17511Y6972D01*
G01X17518Y6926D01*
G01X17528Y6880D01*
G01X17539Y6835D01*
G01X17553Y6790D01*
G01X17568Y6746D01*
G01X17585Y6703D01*
G01X17605Y6660D01*
G01X17626Y6619D01*
G01X17649Y6578D01*
G01X17674Y6539D01*
G01X17700Y6500D01*
G01X17728Y6463D01*
G01X17758Y6427D01*
G01X17790Y6393D01*
G01X17823Y6360D01*
G01X17857Y6328D01*
G01X17893Y6298D01*
G01X17930Y6270D01*
G01X17969Y6244D01*
G01X18008Y6219D01*
G01X18049Y6196D01*
G01X18090Y6175D01*
G01X18133Y6155D01*
G01X18176Y6138D01*
G01X18220Y6123D01*
G01X18265Y6109D01*
G01X18310Y6098D01*
G01X18356Y6088D01*
G01X18402Y6081D01*
G01X18448Y6076D01*
G01X18495Y6073D01*
G01X18542Y6072D01*
G01X18588Y6073D01*
G01X18635Y6076D01*
G01X18681Y6081D01*
G01X18727Y6088D01*
G01X18773Y6098D01*
G01X18818Y6109D01*
G01X18863Y6123D01*
G01X18907Y6138D01*
G01X18950Y6155D01*
G01X18993Y6175D01*
G01X19034Y6196D01*
G01X19075Y6219D01*
G01X19114Y6244D01*
G01X19153Y6270D01*
G01X19190Y6298D01*
G01X19226Y6328D01*
G01X19260Y6360D01*
G01X19293Y6393D01*
G01X19325Y6427D01*
G01X19355Y6463D01*
G01X19383Y6500D01*
G01X19409Y6539D01*
G01X19434Y6578D01*
G01X19457Y6619D01*
G01X19478Y6660D01*
G01X19498Y6703D01*
G01X19515Y6746D01*
G01X19530Y6790D01*
G01X19544Y6835D01*
G01X19555Y6880D01*
G01X19565Y6926D01*
G01X19572Y6972D01*
G01X19577Y7018D01*
G01X19580Y7065D01*
G01X19581Y7112D01*
G01X19580Y7158D01*
G01X19577Y7205D01*
G01X19572Y7251D01*
G01X19565Y7297D01*
G01X19555Y7343D01*
G01X19544Y7388D01*
G01X19530Y7433D01*
G01X19515Y7477D01*
G01X19498Y7520D01*
G01X19478Y7563D01*
G01X19457Y7604D01*
G01X19434Y7645D01*
G01X19409Y7684D01*
G01X19383Y7723D01*
G01X19355Y7760D01*
G01X19325Y7796D01*
G01X19293Y7830D01*
G01X19260Y7863D01*
G01X19226Y7895D01*
G01X19190Y7925D01*
G01X19153Y7953D01*
G01X19114Y7979D01*
G01X19075Y8004D01*
G01X19034Y8027D01*
G01X18993Y8048D01*
G01X18950Y8068D01*
G01X18907Y8085D01*
G01X18863Y8100D01*
G01X18818Y8114D01*
G01X18773Y8125D01*
G01X18727Y8135D01*
G01X18681Y8142D01*
G01X18635Y8147D01*
G01X18588Y8150D01*
G37*
G36*
G01X18588Y25930D02*
G01X18541Y25931D01*
G01X18495Y25930D01*
G01X18448Y25927D01*
G01X18402Y25922D01*
G01X18356Y25915D01*
G01X18310Y25905D01*
G01X18265Y25894D01*
G01X18220Y25880D01*
G01X18176Y25865D01*
G01X18133Y25848D01*
G01X18090Y25828D01*
G01X18049Y25807D01*
G01X18008Y25784D01*
G01X17969Y25759D01*
G01X17930Y25733D01*
G01X17893Y25705D01*
G01X17857Y25675D01*
G01X17823Y25643D01*
G01X17790Y25610D01*
G01X17758Y25576D01*
G01X17728Y25540D01*
G01X17700Y25503D01*
G01X17674Y25464D01*
G01X17649Y25425D01*
G01X17626Y25384D01*
G01X17605Y25343D01*
G01X17585Y25300D01*
G01X17568Y25257D01*
G01X17553Y25213D01*
G01X17539Y25168D01*
G01X17528Y25123D01*
G01X17518Y25077D01*
G01X17511Y25031D01*
G01X17506Y24985D01*
G01X17503Y24938D01*
G01X17502Y24892D01*
G01X17503Y24845D01*
G01X17506Y24798D01*
G01X17511Y24752D01*
G01X17518Y24706D01*
G01X17528Y24660D01*
G01X17539Y24615D01*
G01X17553Y24570D01*
G01X17568Y24526D01*
G01X17585Y24483D01*
G01X17605Y24440D01*
G01X17626Y24399D01*
G01X17649Y24358D01*
G01X17674Y24319D01*
G01X17700Y24280D01*
G01X17728Y24243D01*
G01X17758Y24207D01*
G01X17790Y24173D01*
G01X17823Y24140D01*
G01X17857Y24108D01*
G01X17893Y24078D01*
G01X17930Y24050D01*
G01X17969Y24024D01*
G01X18008Y23999D01*
G01X18049Y23976D01*
G01X18090Y23955D01*
G01X18133Y23935D01*
G01X18176Y23918D01*
G01X18220Y23903D01*
G01X18265Y23889D01*
G01X18310Y23878D01*
G01X18356Y23868D01*
G01X18402Y23861D01*
G01X18448Y23856D01*
G01X18495Y23853D01*
G01X18541Y23852D01*
G01X18542Y23852D01*
G01X18588Y23853D01*
G01X18635Y23856D01*
G01X18681Y23861D01*
G01X18727Y23868D01*
G01X18773Y23878D01*
G01X18818Y23889D01*
G01X18863Y23903D01*
G01X18907Y23918D01*
G01X18950Y23935D01*
G01X18993Y23955D01*
G01X19034Y23976D01*
G01X19075Y23999D01*
G01X19114Y24024D01*
G01X19153Y24050D01*
G01X19190Y24078D01*
G01X19226Y24108D01*
G01X19260Y24140D01*
G01X19293Y24173D01*
G01X19325Y24207D01*
G01X19355Y24243D01*
G01X19383Y24280D01*
G01X19409Y24319D01*
G01X19434Y24358D01*
G01X19457Y24399D01*
G01X19478Y24440D01*
G01X19498Y24483D01*
G01X19515Y24526D01*
G01X19530Y24570D01*
G01X19544Y24615D01*
G01X19555Y24660D01*
G01X19565Y24706D01*
G01X19572Y24752D01*
G01X19577Y24798D01*
G01X19580Y24845D01*
G01X19581Y24892D01*
G01X19580Y24938D01*
G01X19577Y24985D01*
G01X19572Y25031D01*
G01X19565Y25077D01*
G01X19555Y25123D01*
G01X19544Y25168D01*
G01X19530Y25213D01*
G01X19515Y25257D01*
G01X19498Y25300D01*
G01X19478Y25343D01*
G01X19457Y25384D01*
G01X19434Y25425D01*
G01X19409Y25464D01*
G01X19383Y25503D01*
G01X19355Y25540D01*
G01X19325Y25576D01*
G01X19293Y25610D01*
G01X19260Y25643D01*
G01X19226Y25675D01*
G01X19190Y25705D01*
G01X19153Y25733D01*
G01X19114Y25759D01*
G01X19075Y25784D01*
G01X19034Y25807D01*
G01X18993Y25828D01*
G01X18950Y25848D01*
G01X18907Y25865D01*
G01X18863Y25880D01*
G01X18818Y25894D01*
G01X18773Y25905D01*
G01X18727Y25915D01*
G01X18681Y25922D01*
G01X18635Y25927D01*
G01X18588Y25930D01*
G37*
G36*
G01X16048Y28470D02*
G01X16001Y28471D01*
G01X15955Y28470D01*
G01X15908Y28467D01*
G01X15862Y28462D01*
G01X15816Y28455D01*
G01X15770Y28445D01*
G01X15725Y28434D01*
G01X15680Y28420D01*
G01X15636Y28405D01*
G01X15593Y28388D01*
G01X15550Y28368D01*
G01X15509Y28347D01*
G01X15468Y28324D01*
G01X15429Y28299D01*
G01X15390Y28273D01*
G01X15353Y28245D01*
G01X15317Y28215D01*
G01X15283Y28183D01*
G01X15250Y28150D01*
G01X15218Y28116D01*
G01X15188Y28080D01*
G01X15160Y28043D01*
G01X15134Y28004D01*
G01X15109Y27965D01*
G01X15086Y27924D01*
G01X15065Y27883D01*
G01X15045Y27840D01*
G01X15028Y27797D01*
G01X15013Y27753D01*
G01X14999Y27708D01*
G01X14988Y27663D01*
G01X14978Y27617D01*
G01X14971Y27571D01*
G01X14966Y27525D01*
G01X14963Y27478D01*
G01X14962Y27432D01*
G01X14963Y27385D01*
G01X14966Y27338D01*
G01X14971Y27292D01*
G01X14978Y27246D01*
G01X14988Y27200D01*
G01X14999Y27155D01*
G01X15013Y27110D01*
G01X15028Y27066D01*
G01X15045Y27023D01*
G01X15065Y26980D01*
G01X15086Y26939D01*
G01X15109Y26898D01*
G01X15134Y26859D01*
G01X15160Y26820D01*
G01X15188Y26783D01*
G01X15218Y26747D01*
G01X15250Y26713D01*
G01X15283Y26680D01*
G01X15317Y26648D01*
G01X15353Y26618D01*
G01X15390Y26590D01*
G01X15429Y26564D01*
G01X15468Y26539D01*
G01X15509Y26516D01*
G01X15550Y26495D01*
G01X15593Y26475D01*
G01X15636Y26458D01*
G01X15680Y26443D01*
G01X15725Y26429D01*
G01X15770Y26418D01*
G01X15816Y26408D01*
G01X15862Y26401D01*
G01X15908Y26396D01*
G01X15955Y26393D01*
G01X16001Y26392D01*
G01X16002Y26392D01*
G01X16048Y26393D01*
G01X16095Y26396D01*
G01X16141Y26401D01*
G01X16187Y26408D01*
G01X16233Y26418D01*
G01X16278Y26429D01*
G01X16323Y26443D01*
G01X16367Y26458D01*
G01X16410Y26475D01*
G01X16453Y26495D01*
G01X16494Y26516D01*
G01X16535Y26539D01*
G01X16574Y26564D01*
G01X16613Y26590D01*
G01X16650Y26618D01*
G01X16686Y26648D01*
G01X16720Y26680D01*
G01X16753Y26713D01*
G01X16785Y26747D01*
G01X16815Y26783D01*
G01X16843Y26820D01*
G01X16869Y26859D01*
G01X16894Y26898D01*
G01X16917Y26939D01*
G01X16938Y26980D01*
G01X16958Y27023D01*
G01X16975Y27066D01*
G01X16990Y27110D01*
G01X17004Y27155D01*
G01X17015Y27200D01*
G01X17025Y27246D01*
G01X17032Y27292D01*
G01X17037Y27338D01*
G01X17040Y27385D01*
G01X17041Y27432D01*
G01X17040Y27478D01*
G01X17037Y27525D01*
G01X17032Y27571D01*
G01X17025Y27617D01*
G01X17015Y27663D01*
G01X17004Y27708D01*
G01X16990Y27753D01*
G01X16975Y27797D01*
G01X16958Y27840D01*
G01X16938Y27883D01*
G01X16917Y27924D01*
G01X16894Y27965D01*
G01X16869Y28004D01*
G01X16843Y28043D01*
G01X16815Y28080D01*
G01X16785Y28116D01*
G01X16753Y28150D01*
G01X16720Y28183D01*
G01X16686Y28215D01*
G01X16650Y28245D01*
G01X16613Y28273D01*
G01X16574Y28299D01*
G01X16535Y28324D01*
G01X16494Y28347D01*
G01X16453Y28368D01*
G01X16410Y28388D01*
G01X16367Y28405D01*
G01X16323Y28420D01*
G01X16278Y28434D01*
G01X16233Y28445D01*
G01X16187Y28455D01*
G01X16141Y28462D01*
G01X16095Y28467D01*
G01X16048Y28470D01*
G37*
G36*
G01X18588Y28470D02*
G01X18541Y28471D01*
G01X18495Y28470D01*
G01X18448Y28467D01*
G01X18402Y28462D01*
G01X18356Y28455D01*
G01X18310Y28445D01*
G01X18265Y28434D01*
G01X18220Y28420D01*
G01X18176Y28405D01*
G01X18133Y28388D01*
G01X18090Y28368D01*
G01X18049Y28347D01*
G01X18008Y28324D01*
G01X17969Y28299D01*
G01X17930Y28273D01*
G01X17893Y28245D01*
G01X17857Y28215D01*
G01X17823Y28183D01*
G01X17790Y28150D01*
G01X17758Y28116D01*
G01X17728Y28080D01*
G01X17700Y28043D01*
G01X17674Y28004D01*
G01X17649Y27965D01*
G01X17626Y27924D01*
G01X17605Y27883D01*
G01X17585Y27840D01*
G01X17568Y27797D01*
G01X17553Y27753D01*
G01X17539Y27708D01*
G01X17528Y27663D01*
G01X17518Y27617D01*
G01X17511Y27571D01*
G01X17506Y27525D01*
G01X17503Y27478D01*
G01X17502Y27432D01*
G01X17503Y27385D01*
G01X17506Y27338D01*
G01X17511Y27292D01*
G01X17518Y27246D01*
G01X17528Y27200D01*
G01X17539Y27155D01*
G01X17553Y27110D01*
G01X17568Y27066D01*
G01X17585Y27023D01*
G01X17605Y26980D01*
G01X17626Y26939D01*
G01X17649Y26898D01*
G01X17674Y26859D01*
G01X17700Y26820D01*
G01X17728Y26783D01*
G01X17758Y26747D01*
G01X17790Y26713D01*
G01X17823Y26680D01*
G01X17857Y26648D01*
G01X17893Y26618D01*
G01X17930Y26590D01*
G01X17969Y26564D01*
G01X18008Y26539D01*
G01X18049Y26516D01*
G01X18090Y26495D01*
G01X18133Y26475D01*
G01X18176Y26458D01*
G01X18220Y26443D01*
G01X18265Y26429D01*
G01X18310Y26418D01*
G01X18356Y26408D01*
G01X18402Y26401D01*
G01X18448Y26396D01*
G01X18495Y26393D01*
G01X18542Y26392D01*
G01X18588Y26393D01*
G01X18635Y26396D01*
G01X18681Y26401D01*
G01X18727Y26408D01*
G01X18773Y26418D01*
G01X18818Y26429D01*
G01X18863Y26443D01*
G01X18907Y26458D01*
G01X18950Y26475D01*
G01X18993Y26495D01*
G01X19034Y26516D01*
G01X19075Y26539D01*
G01X19114Y26564D01*
G01X19153Y26590D01*
G01X19190Y26618D01*
G01X19226Y26648D01*
G01X19260Y26680D01*
G01X19293Y26713D01*
G01X19325Y26747D01*
G01X19355Y26783D01*
G01X19383Y26820D01*
G01X19409Y26859D01*
G01X19434Y26898D01*
G01X19457Y26939D01*
G01X19478Y26980D01*
G01X19498Y27023D01*
G01X19515Y27066D01*
G01X19530Y27110D01*
G01X19544Y27155D01*
G01X19555Y27200D01*
G01X19565Y27246D01*
G01X19572Y27292D01*
G01X19577Y27338D01*
G01X19580Y27385D01*
G01X19581Y27432D01*
G01X19580Y27478D01*
G01X19577Y27525D01*
G01X19572Y27571D01*
G01X19565Y27617D01*
G01X19555Y27663D01*
G01X19544Y27708D01*
G01X19530Y27753D01*
G01X19515Y27797D01*
G01X19498Y27840D01*
G01X19478Y27883D01*
G01X19457Y27924D01*
G01X19434Y27965D01*
G01X19409Y28004D01*
G01X19383Y28043D01*
G01X19355Y28080D01*
G01X19325Y28116D01*
G01X19293Y28150D01*
G01X19260Y28183D01*
G01X19226Y28215D01*
G01X19190Y28245D01*
G01X19153Y28273D01*
G01X19114Y28299D01*
G01X19075Y28324D01*
G01X19034Y28347D01*
G01X18993Y28368D01*
G01X18950Y28388D01*
G01X18907Y28405D01*
G01X18863Y28420D01*
G01X18818Y28434D01*
G01X18773Y28445D01*
G01X18727Y28455D01*
G01X18681Y28462D01*
G01X18635Y28467D01*
G01X18588Y28470D01*
G37*
G36*
G01X31288Y3070D02*
G01X31241Y3071D01*
G01X31195Y3070D01*
G01X31148Y3067D01*
G01X31102Y3062D01*
G01X31056Y3055D01*
G01X31010Y3045D01*
G01X30965Y3034D01*
G01X30920Y3020D01*
G01X30876Y3005D01*
G01X30833Y2988D01*
G01X30790Y2968D01*
G01X30749Y2947D01*
G01X30708Y2924D01*
G01X30669Y2899D01*
G01X30630Y2873D01*
G01X30593Y2845D01*
G01X30557Y2815D01*
G01X30523Y2783D01*
G01X30490Y2750D01*
G01X30458Y2716D01*
G01X30428Y2680D01*
G01X30400Y2643D01*
G01X30374Y2604D01*
G01X30349Y2565D01*
G01X30326Y2524D01*
G01X30305Y2483D01*
G01X30285Y2440D01*
G01X30268Y2397D01*
G01X30253Y2353D01*
G01X30239Y2308D01*
G01X30228Y2263D01*
G01X30218Y2217D01*
G01X30211Y2171D01*
G01X30206Y2125D01*
G01X30203Y2078D01*
G01X30202Y2032D01*
G01X30203Y1985D01*
G01X30206Y1938D01*
G01X30211Y1892D01*
G01X30218Y1846D01*
G01X30228Y1800D01*
G01X30239Y1755D01*
G01X30253Y1710D01*
G01X30268Y1666D01*
G01X30285Y1623D01*
G01X30305Y1580D01*
G01X30326Y1539D01*
G01X30349Y1498D01*
G01X30374Y1459D01*
G01X30400Y1420D01*
G01X30428Y1383D01*
G01X30458Y1347D01*
G01X30490Y1313D01*
G01X30523Y1280D01*
G01X30557Y1248D01*
G01X30593Y1218D01*
G01X30630Y1190D01*
G01X30669Y1164D01*
G01X30708Y1139D01*
G01X30749Y1116D01*
G01X30790Y1095D01*
G01X30833Y1075D01*
G01X30876Y1058D01*
G01X30920Y1043D01*
G01X30965Y1029D01*
G01X31010Y1018D01*
G01X31056Y1008D01*
G01X31102Y1001D01*
G01X31148Y996D01*
G01X31195Y993D01*
G01X31242Y992D01*
G01X31288Y993D01*
G01X31335Y996D01*
G01X31381Y1001D01*
G01X31427Y1008D01*
G01X31473Y1018D01*
G01X31518Y1029D01*
G01X31563Y1043D01*
G01X31607Y1058D01*
G01X31650Y1075D01*
G01X31693Y1095D01*
G01X31734Y1116D01*
G01X31775Y1139D01*
G01X31814Y1164D01*
G01X31853Y1190D01*
G01X31890Y1218D01*
G01X31926Y1248D01*
G01X31960Y1280D01*
G01X31993Y1313D01*
G01X32025Y1347D01*
G01X32055Y1383D01*
G01X32083Y1420D01*
G01X32109Y1459D01*
G01X32134Y1498D01*
G01X32157Y1539D01*
G01X32178Y1580D01*
G01X32198Y1623D01*
G01X32215Y1666D01*
G01X32230Y1710D01*
G01X32244Y1755D01*
G01X32255Y1800D01*
G01X32265Y1846D01*
G01X32272Y1892D01*
G01X32277Y1938D01*
G01X32280Y1985D01*
G01X32281Y2032D01*
G01X32280Y2078D01*
G01X32277Y2125D01*
G01X32272Y2171D01*
G01X32265Y2217D01*
G01X32255Y2263D01*
G01X32244Y2308D01*
G01X32230Y2353D01*
G01X32215Y2397D01*
G01X32198Y2440D01*
G01X32178Y2483D01*
G01X32157Y2524D01*
G01X32134Y2565D01*
G01X32109Y2604D01*
G01X32083Y2643D01*
G01X32055Y2680D01*
G01X32025Y2716D01*
G01X31993Y2750D01*
G01X31960Y2783D01*
G01X31926Y2815D01*
G01X31890Y2845D01*
G01X31853Y2873D01*
G01X31814Y2899D01*
G01X31775Y2924D01*
G01X31734Y2947D01*
G01X31693Y2968D01*
G01X31650Y2988D01*
G01X31607Y3005D01*
G01X31563Y3020D01*
G01X31518Y3034D01*
G01X31473Y3045D01*
G01X31427Y3055D01*
G01X31381Y3062D01*
G01X31335Y3067D01*
G01X31288Y3070D01*
G37*
G36*
G01X28748Y51584D02*
G01X28701Y51585D01*
G01X28655Y51584D01*
G01X28608Y51581D01*
G01X28562Y51576D01*
G01X28516Y51569D01*
G01X28470Y51559D01*
G01X28425Y51548D01*
G01X28380Y51534D01*
G01X28336Y51519D01*
G01X28293Y51502D01*
G01X28250Y51482D01*
G01X28209Y51461D01*
G01X28168Y51438D01*
G01X28129Y51413D01*
G01X28090Y51387D01*
G01X28053Y51359D01*
G01X28017Y51329D01*
G01X27983Y51297D01*
G01X27950Y51264D01*
G01X27918Y51230D01*
G01X27888Y51194D01*
G01X27860Y51157D01*
G01X27834Y51118D01*
G01X27809Y51079D01*
G01X27786Y51038D01*
G01X27765Y50997D01*
G01X27745Y50954D01*
G01X27728Y50911D01*
G01X27713Y50867D01*
G01X27699Y50822D01*
G01X27688Y50777D01*
G01X27678Y50731D01*
G01X27671Y50685D01*
G01X27666Y50639D01*
G01X27663Y50592D01*
G01X27662Y50546D01*
G01X27663Y50499D01*
G01X27666Y50452D01*
G01X27671Y50406D01*
G01X27678Y50360D01*
G01X27688Y50314D01*
G01X27699Y50269D01*
G01X27713Y50224D01*
G01X27728Y50180D01*
G01X27745Y50137D01*
G01X27765Y50094D01*
G01X27786Y50053D01*
G01X27809Y50012D01*
G01X27834Y49973D01*
G01X27860Y49934D01*
G01X27888Y49897D01*
G01X27918Y49861D01*
G01X27950Y49827D01*
G01X27983Y49794D01*
G01X28017Y49762D01*
G01X28053Y49732D01*
G01X28090Y49704D01*
G01X28129Y49678D01*
G01X28168Y49653D01*
G01X28209Y49630D01*
G01X28250Y49609D01*
G01X28293Y49589D01*
G01X28336Y49572D01*
G01X28380Y49557D01*
G01X28425Y49543D01*
G01X28470Y49532D01*
G01X28516Y49522D01*
G01X28562Y49515D01*
G01X28608Y49510D01*
G01X28655Y49507D01*
G01X28702Y49506D01*
G01X28748Y49507D01*
G01X28795Y49510D01*
G01X28841Y49515D01*
G01X28887Y49522D01*
G01X28933Y49532D01*
G01X28978Y49543D01*
G01X29023Y49557D01*
G01X29067Y49572D01*
G01X29110Y49589D01*
G01X29153Y49609D01*
G01X29194Y49630D01*
G01X29235Y49653D01*
G01X29274Y49678D01*
G01X29313Y49704D01*
G01X29350Y49732D01*
G01X29386Y49762D01*
G01X29420Y49794D01*
G01X29453Y49827D01*
G01X29485Y49861D01*
G01X29515Y49897D01*
G01X29543Y49934D01*
G01X29569Y49973D01*
G01X29594Y50012D01*
G01X29617Y50053D01*
G01X29638Y50094D01*
G01X29658Y50137D01*
G01X29675Y50180D01*
G01X29690Y50224D01*
G01X29704Y50269D01*
G01X29715Y50314D01*
G01X29725Y50360D01*
G01X29732Y50406D01*
G01X29737Y50452D01*
G01X29740Y50499D01*
G01X29741Y50546D01*
G01X29740Y50592D01*
G01X29737Y50639D01*
G01X29732Y50685D01*
G01X29725Y50731D01*
G01X29715Y50777D01*
G01X29704Y50822D01*
G01X29690Y50867D01*
G01X29675Y50911D01*
G01X29658Y50954D01*
G01X29638Y50997D01*
G01X29617Y51038D01*
G01X29594Y51079D01*
G01X29569Y51118D01*
G01X29543Y51157D01*
G01X29515Y51194D01*
G01X29485Y51230D01*
G01X29453Y51264D01*
G01X29420Y51297D01*
G01X29386Y51329D01*
G01X29350Y51359D01*
G01X29313Y51387D01*
G01X29274Y51413D01*
G01X29235Y51438D01*
G01X29194Y51461D01*
G01X29153Y51482D01*
G01X29110Y51502D01*
G01X29067Y51519D01*
G01X29023Y51534D01*
G01X28978Y51548D01*
G01X28933Y51559D01*
G01X28887Y51569D01*
G01X28841Y51576D01*
G01X28795Y51581D01*
G01X28748Y51584D01*
G37*
G36*
G01X28748Y3070D02*
G01X28701Y3071D01*
G01X28655Y3070D01*
G01X28608Y3067D01*
G01X28562Y3062D01*
G01X28516Y3055D01*
G01X28470Y3045D01*
G01X28425Y3034D01*
G01X28380Y3020D01*
G01X28336Y3005D01*
G01X28293Y2988D01*
G01X28250Y2968D01*
G01X28209Y2947D01*
G01X28168Y2924D01*
G01X28129Y2899D01*
G01X28090Y2873D01*
G01X28053Y2845D01*
G01X28017Y2815D01*
G01X27983Y2783D01*
G01X27950Y2750D01*
G01X27918Y2716D01*
G01X27888Y2680D01*
G01X27860Y2643D01*
G01X27834Y2604D01*
G01X27809Y2565D01*
G01X27786Y2524D01*
G01X27765Y2483D01*
G01X27745Y2440D01*
G01X27728Y2397D01*
G01X27713Y2353D01*
G01X27699Y2308D01*
G01X27688Y2263D01*
G01X27678Y2217D01*
G01X27671Y2171D01*
G01X27666Y2125D01*
G01X27663Y2078D01*
G01X27662Y2032D01*
G01X27663Y1985D01*
G01X27666Y1938D01*
G01X27671Y1892D01*
G01X27678Y1846D01*
G01X27688Y1800D01*
G01X27699Y1755D01*
G01X27713Y1710D01*
G01X27728Y1666D01*
G01X27745Y1623D01*
G01X27765Y1580D01*
G01X27786Y1539D01*
G01X27809Y1498D01*
G01X27834Y1459D01*
G01X27860Y1420D01*
G01X27888Y1383D01*
G01X27918Y1347D01*
G01X27950Y1313D01*
G01X27983Y1280D01*
G01X28017Y1248D01*
G01X28053Y1218D01*
G01X28090Y1190D01*
G01X28129Y1164D01*
G01X28168Y1139D01*
G01X28209Y1116D01*
G01X28250Y1095D01*
G01X28293Y1075D01*
G01X28336Y1058D01*
G01X28380Y1043D01*
G01X28425Y1029D01*
G01X28470Y1018D01*
G01X28516Y1008D01*
G01X28562Y1001D01*
G01X28608Y996D01*
G01X28655Y993D01*
G01X28701Y992D01*
G01X28702Y992D01*
G01X28748Y993D01*
G01X28795Y996D01*
G01X28841Y1001D01*
G01X28887Y1008D01*
G01X28933Y1018D01*
G01X28978Y1029D01*
G01X29023Y1043D01*
G01X29067Y1058D01*
G01X29110Y1075D01*
G01X29153Y1095D01*
G01X29194Y1116D01*
G01X29235Y1139D01*
G01X29274Y1164D01*
G01X29313Y1190D01*
G01X29350Y1218D01*
G01X29386Y1248D01*
G01X29420Y1280D01*
G01X29453Y1313D01*
G01X29485Y1347D01*
G01X29515Y1383D01*
G01X29543Y1420D01*
G01X29569Y1459D01*
G01X29594Y1498D01*
G01X29617Y1539D01*
G01X29638Y1580D01*
G01X29658Y1623D01*
G01X29675Y1666D01*
G01X29690Y1710D01*
G01X29704Y1755D01*
G01X29715Y1800D01*
G01X29725Y1846D01*
G01X29732Y1892D01*
G01X29737Y1938D01*
G01X29740Y1985D01*
G01X29741Y2032D01*
G01X29740Y2078D01*
G01X29737Y2125D01*
G01X29732Y2171D01*
G01X29725Y2217D01*
G01X29715Y2263D01*
G01X29704Y2308D01*
G01X29690Y2353D01*
G01X29675Y2397D01*
G01X29658Y2440D01*
G01X29638Y2483D01*
G01X29617Y2524D01*
G01X29594Y2565D01*
G01X29569Y2604D01*
G01X29543Y2643D01*
G01X29515Y2680D01*
G01X29485Y2716D01*
G01X29453Y2750D01*
G01X29420Y2783D01*
G01X29386Y2815D01*
G01X29350Y2845D01*
G01X29313Y2873D01*
G01X29274Y2899D01*
G01X29235Y2924D01*
G01X29194Y2947D01*
G01X29153Y2968D01*
G01X29110Y2988D01*
G01X29067Y3005D01*
G01X29023Y3020D01*
G01X28978Y3034D01*
G01X28933Y3045D01*
G01X28887Y3055D01*
G01X28841Y3062D01*
G01X28795Y3067D01*
G01X28748Y3070D01*
G37*
G36*
G01X18588Y31010D02*
G01X18541Y31011D01*
G01X18495Y31010D01*
G01X18448Y31007D01*
G01X18402Y31002D01*
G01X18356Y30995D01*
G01X18310Y30985D01*
G01X18265Y30974D01*
G01X18220Y30960D01*
G01X18176Y30945D01*
G01X18133Y30928D01*
G01X18090Y30908D01*
G01X18049Y30887D01*
G01X18008Y30864D01*
G01X17969Y30839D01*
G01X17930Y30813D01*
G01X17893Y30785D01*
G01X17857Y30755D01*
G01X17823Y30723D01*
G01X17790Y30690D01*
G01X17758Y30656D01*
G01X17728Y30620D01*
G01X17700Y30583D01*
G01X17674Y30544D01*
G01X17649Y30505D01*
G01X17626Y30464D01*
G01X17605Y30423D01*
G01X17585Y30380D01*
G01X17568Y30337D01*
G01X17553Y30293D01*
G01X17539Y30248D01*
G01X17528Y30203D01*
G01X17518Y30157D01*
G01X17511Y30111D01*
G01X17506Y30065D01*
G01X17503Y30018D01*
G01X17502Y29972D01*
G01X17503Y29925D01*
G01X17506Y29878D01*
G01X17511Y29832D01*
G01X17518Y29786D01*
G01X17528Y29740D01*
G01X17539Y29695D01*
G01X17553Y29650D01*
G01X17568Y29606D01*
G01X17585Y29563D01*
G01X17605Y29520D01*
G01X17626Y29479D01*
G01X17649Y29438D01*
G01X17674Y29399D01*
G01X17700Y29360D01*
G01X17728Y29323D01*
G01X17758Y29287D01*
G01X17790Y29253D01*
G01X17823Y29220D01*
G01X17857Y29188D01*
G01X17893Y29158D01*
G01X17930Y29130D01*
G01X17969Y29104D01*
G01X18008Y29079D01*
G01X18049Y29056D01*
G01X18090Y29035D01*
G01X18133Y29015D01*
G01X18176Y28998D01*
G01X18220Y28983D01*
G01X18265Y28969D01*
G01X18310Y28958D01*
G01X18356Y28948D01*
G01X18402Y28941D01*
G01X18448Y28936D01*
G01X18495Y28933D01*
G01X18542Y28932D01*
G01X18588Y28933D01*
G01X18635Y28936D01*
G01X18681Y28941D01*
G01X18727Y28948D01*
G01X18773Y28958D01*
G01X18818Y28969D01*
G01X18863Y28983D01*
G01X18907Y28998D01*
G01X18950Y29015D01*
G01X18993Y29035D01*
G01X19034Y29056D01*
G01X19075Y29079D01*
G01X19114Y29104D01*
G01X19153Y29130D01*
G01X19190Y29158D01*
G01X19226Y29188D01*
G01X19260Y29220D01*
G01X19293Y29253D01*
G01X19325Y29287D01*
G01X19355Y29323D01*
G01X19383Y29360D01*
G01X19409Y29399D01*
G01X19434Y29438D01*
G01X19457Y29479D01*
G01X19478Y29520D01*
G01X19498Y29563D01*
G01X19515Y29606D01*
G01X19530Y29650D01*
G01X19544Y29695D01*
G01X19555Y29740D01*
G01X19565Y29786D01*
G01X19572Y29832D01*
G01X19577Y29878D01*
G01X19580Y29925D01*
G01X19581Y29972D01*
G01X19580Y30018D01*
G01X19577Y30065D01*
G01X19572Y30111D01*
G01X19565Y30157D01*
G01X19555Y30203D01*
G01X19544Y30248D01*
G01X19530Y30293D01*
G01X19515Y30337D01*
G01X19498Y30380D01*
G01X19478Y30423D01*
G01X19457Y30464D01*
G01X19434Y30505D01*
G01X19409Y30544D01*
G01X19383Y30583D01*
G01X19355Y30620D01*
G01X19325Y30656D01*
G01X19293Y30690D01*
G01X19260Y30723D01*
G01X19226Y30755D01*
G01X19190Y30785D01*
G01X19153Y30813D01*
G01X19114Y30839D01*
G01X19075Y30864D01*
G01X19034Y30887D01*
G01X18993Y30908D01*
G01X18950Y30928D01*
G01X18907Y30945D01*
G01X18863Y30960D01*
G01X18818Y30974D01*
G01X18773Y30985D01*
G01X18727Y30995D01*
G01X18681Y31002D01*
G01X18635Y31007D01*
G01X18588Y31010D01*
G37*
G36*
G01X16048Y31010D02*
G01X16001Y31011D01*
G01X15955Y31010D01*
G01X15908Y31007D01*
G01X15862Y31002D01*
G01X15816Y30995D01*
G01X15770Y30985D01*
G01X15725Y30974D01*
G01X15680Y30960D01*
G01X15636Y30945D01*
G01X15593Y30928D01*
G01X15550Y30908D01*
G01X15509Y30887D01*
G01X15468Y30864D01*
G01X15429Y30839D01*
G01X15390Y30813D01*
G01X15353Y30785D01*
G01X15317Y30755D01*
G01X15283Y30723D01*
G01X15250Y30690D01*
G01X15218Y30656D01*
G01X15188Y30620D01*
G01X15160Y30583D01*
G01X15134Y30544D01*
G01X15109Y30505D01*
G01X15086Y30464D01*
G01X15065Y30423D01*
G01X15045Y30380D01*
G01X15028Y30337D01*
G01X15013Y30293D01*
G01X14999Y30248D01*
G01X14988Y30203D01*
G01X14978Y30157D01*
G01X14971Y30111D01*
G01X14966Y30065D01*
G01X14963Y30018D01*
G01X14962Y29972D01*
G01X14963Y29925D01*
G01X14966Y29878D01*
G01X14971Y29832D01*
G01X14978Y29786D01*
G01X14988Y29740D01*
G01X14999Y29695D01*
G01X15013Y29650D01*
G01X15028Y29606D01*
G01X15045Y29563D01*
G01X15065Y29520D01*
G01X15086Y29479D01*
G01X15109Y29438D01*
G01X15134Y29399D01*
G01X15160Y29360D01*
G01X15188Y29323D01*
G01X15218Y29287D01*
G01X15250Y29253D01*
G01X15283Y29220D01*
G01X15317Y29188D01*
G01X15353Y29158D01*
G01X15390Y29130D01*
G01X15429Y29104D01*
G01X15468Y29079D01*
G01X15509Y29056D01*
G01X15550Y29035D01*
G01X15593Y29015D01*
G01X15636Y28998D01*
G01X15680Y28983D01*
G01X15725Y28969D01*
G01X15770Y28958D01*
G01X15816Y28948D01*
G01X15862Y28941D01*
G01X15908Y28936D01*
G01X15955Y28933D01*
G01X16001Y28932D01*
G01X16002Y28932D01*
G01X16048Y28933D01*
G01X16095Y28936D01*
G01X16141Y28941D01*
G01X16187Y28948D01*
G01X16233Y28958D01*
G01X16278Y28969D01*
G01X16323Y28983D01*
G01X16367Y28998D01*
G01X16410Y29015D01*
G01X16453Y29035D01*
G01X16494Y29056D01*
G01X16535Y29079D01*
G01X16574Y29104D01*
G01X16613Y29130D01*
G01X16650Y29158D01*
G01X16686Y29188D01*
G01X16720Y29220D01*
G01X16753Y29253D01*
G01X16785Y29287D01*
G01X16815Y29323D01*
G01X16843Y29360D01*
G01X16869Y29399D01*
G01X16894Y29438D01*
G01X16917Y29479D01*
G01X16938Y29520D01*
G01X16958Y29563D01*
G01X16975Y29606D01*
G01X16990Y29650D01*
G01X17004Y29695D01*
G01X17015Y29740D01*
G01X17025Y29786D01*
G01X17032Y29832D01*
G01X17037Y29878D01*
G01X17040Y29925D01*
G01X17041Y29972D01*
G01X17040Y30018D01*
G01X17037Y30065D01*
G01X17032Y30111D01*
G01X17025Y30157D01*
G01X17015Y30203D01*
G01X17004Y30248D01*
G01X16990Y30293D01*
G01X16975Y30337D01*
G01X16958Y30380D01*
G01X16938Y30423D01*
G01X16917Y30464D01*
G01X16894Y30505D01*
G01X16869Y30544D01*
G01X16843Y30583D01*
G01X16815Y30620D01*
G01X16785Y30656D01*
G01X16753Y30690D01*
G01X16720Y30723D01*
G01X16686Y30755D01*
G01X16650Y30785D01*
G01X16613Y30813D01*
G01X16574Y30839D01*
G01X16535Y30864D01*
G01X16494Y30887D01*
G01X16453Y30908D01*
G01X16410Y30928D01*
G01X16367Y30945D01*
G01X16323Y30960D01*
G01X16278Y30974D01*
G01X16233Y30985D01*
G01X16187Y30995D01*
G01X16141Y31002D01*
G01X16095Y31007D01*
G01X16048Y31010D01*
G37*
G36*
G01X26208Y3070D02*
G01X26161Y3071D01*
G01X26115Y3070D01*
G01X26068Y3067D01*
G01X26022Y3062D01*
G01X25976Y3055D01*
G01X25930Y3045D01*
G01X25885Y3034D01*
G01X25840Y3020D01*
G01X25796Y3005D01*
G01X25753Y2988D01*
G01X25710Y2968D01*
G01X25669Y2947D01*
G01X25628Y2924D01*
G01X25589Y2899D01*
G01X25550Y2873D01*
G01X25513Y2845D01*
G01X25477Y2815D01*
G01X25443Y2783D01*
G01X25410Y2750D01*
G01X25378Y2716D01*
G01X25348Y2680D01*
G01X25320Y2643D01*
G01X25294Y2604D01*
G01X25269Y2565D01*
G01X25246Y2524D01*
G01X25225Y2483D01*
G01X25205Y2440D01*
G01X25188Y2397D01*
G01X25173Y2353D01*
G01X25159Y2308D01*
G01X25148Y2263D01*
G01X25138Y2217D01*
G01X25131Y2171D01*
G01X25126Y2125D01*
G01X25123Y2078D01*
G01X25122Y2032D01*
G01X25123Y1985D01*
G01X25126Y1938D01*
G01X25131Y1892D01*
G01X25138Y1846D01*
G01X25148Y1800D01*
G01X25159Y1755D01*
G01X25173Y1710D01*
G01X25188Y1666D01*
G01X25205Y1623D01*
G01X25225Y1580D01*
G01X25246Y1539D01*
G01X25269Y1498D01*
G01X25294Y1459D01*
G01X25320Y1420D01*
G01X25348Y1383D01*
G01X25378Y1347D01*
G01X25410Y1313D01*
G01X25443Y1280D01*
G01X25477Y1248D01*
G01X25513Y1218D01*
G01X25550Y1190D01*
G01X25589Y1164D01*
G01X25628Y1139D01*
G01X25669Y1116D01*
G01X25710Y1095D01*
G01X25753Y1075D01*
G01X25796Y1058D01*
G01X25840Y1043D01*
G01X25885Y1029D01*
G01X25930Y1018D01*
G01X25976Y1008D01*
G01X26022Y1001D01*
G01X26068Y996D01*
G01X26115Y993D01*
G01X26162Y992D01*
G01X26208Y993D01*
G01X26255Y996D01*
G01X26301Y1001D01*
G01X26347Y1008D01*
G01X26393Y1018D01*
G01X26438Y1029D01*
G01X26483Y1043D01*
G01X26527Y1058D01*
G01X26570Y1075D01*
G01X26613Y1095D01*
G01X26654Y1116D01*
G01X26695Y1139D01*
G01X26734Y1164D01*
G01X26773Y1190D01*
G01X26810Y1218D01*
G01X26846Y1248D01*
G01X26880Y1280D01*
G01X26913Y1313D01*
G01X26945Y1347D01*
G01X26975Y1383D01*
G01X27003Y1420D01*
G01X27029Y1459D01*
G01X27054Y1498D01*
G01X27077Y1539D01*
G01X27098Y1580D01*
G01X27118Y1623D01*
G01X27135Y1666D01*
G01X27150Y1710D01*
G01X27164Y1755D01*
G01X27175Y1800D01*
G01X27185Y1846D01*
G01X27192Y1892D01*
G01X27197Y1938D01*
G01X27200Y1985D01*
G01X27201Y2032D01*
G01X27200Y2078D01*
G01X27197Y2125D01*
G01X27192Y2171D01*
G01X27185Y2217D01*
G01X27175Y2263D01*
G01X27164Y2308D01*
G01X27150Y2353D01*
G01X27135Y2397D01*
G01X27118Y2440D01*
G01X27098Y2483D01*
G01X27077Y2524D01*
G01X27054Y2565D01*
G01X27029Y2604D01*
G01X27003Y2643D01*
G01X26975Y2680D01*
G01X26945Y2716D01*
G01X26913Y2750D01*
G01X26880Y2783D01*
G01X26846Y2815D01*
G01X26810Y2845D01*
G01X26773Y2873D01*
G01X26734Y2899D01*
G01X26695Y2924D01*
G01X26654Y2947D01*
G01X26613Y2968D01*
G01X26570Y2988D01*
G01X26527Y3005D01*
G01X26483Y3020D01*
G01X26438Y3034D01*
G01X26393Y3045D01*
G01X26347Y3055D01*
G01X26301Y3062D01*
G01X26255Y3067D01*
G01X26208Y3070D01*
G37*
G36*
G01X21128Y51584D02*
G01X21081Y51585D01*
G01X21035Y51584D01*
G01X20988Y51581D01*
G01X20942Y51576D01*
G01X20896Y51569D01*
G01X20850Y51559D01*
G01X20805Y51548D01*
G01X20760Y51534D01*
G01X20716Y51519D01*
G01X20673Y51502D01*
G01X20630Y51482D01*
G01X20589Y51461D01*
G01X20548Y51438D01*
G01X20509Y51413D01*
G01X20470Y51387D01*
G01X20433Y51359D01*
G01X20397Y51329D01*
G01X20363Y51297D01*
G01X20330Y51264D01*
G01X20298Y51230D01*
G01X20268Y51194D01*
G01X20240Y51157D01*
G01X20214Y51118D01*
G01X20189Y51079D01*
G01X20166Y51038D01*
G01X20145Y50997D01*
G01X20125Y50954D01*
G01X20108Y50911D01*
G01X20093Y50867D01*
G01X20079Y50822D01*
G01X20068Y50777D01*
G01X20058Y50731D01*
G01X20051Y50685D01*
G01X20046Y50639D01*
G01X20043Y50592D01*
G01X20042Y50546D01*
G01X20043Y50499D01*
G01X20046Y50452D01*
G01X20051Y50406D01*
G01X20058Y50360D01*
G01X20068Y50314D01*
G01X20079Y50269D01*
G01X20093Y50224D01*
G01X20108Y50180D01*
G01X20125Y50137D01*
G01X20145Y50094D01*
G01X20166Y50053D01*
G01X20189Y50012D01*
G01X20214Y49973D01*
G01X20240Y49934D01*
G01X20268Y49897D01*
G01X20298Y49861D01*
G01X20330Y49827D01*
G01X20363Y49794D01*
G01X20397Y49762D01*
G01X20433Y49732D01*
G01X20470Y49704D01*
G01X20509Y49678D01*
G01X20548Y49653D01*
G01X20589Y49630D01*
G01X20630Y49609D01*
G01X20673Y49589D01*
G01X20716Y49572D01*
G01X20760Y49557D01*
G01X20805Y49543D01*
G01X20850Y49532D01*
G01X20896Y49522D01*
G01X20942Y49515D01*
G01X20988Y49510D01*
G01X21035Y49507D01*
G01X21081Y49506D01*
G01X21082Y49506D01*
G01X21128Y49507D01*
G01X21175Y49510D01*
G01X21221Y49515D01*
G01X21267Y49522D01*
G01X21313Y49532D01*
G01X21358Y49543D01*
G01X21403Y49557D01*
G01X21447Y49572D01*
G01X21490Y49589D01*
G01X21533Y49609D01*
G01X21574Y49630D01*
G01X21615Y49653D01*
G01X21654Y49678D01*
G01X21693Y49704D01*
G01X21730Y49732D01*
G01X21766Y49762D01*
G01X21800Y49794D01*
G01X21833Y49827D01*
G01X21865Y49861D01*
G01X21895Y49897D01*
G01X21923Y49934D01*
G01X21949Y49973D01*
G01X21974Y50012D01*
G01X21997Y50053D01*
G01X22018Y50094D01*
G01X22038Y50137D01*
G01X22055Y50180D01*
G01X22070Y50224D01*
G01X22084Y50269D01*
G01X22095Y50314D01*
G01X22105Y50360D01*
G01X22112Y50406D01*
G01X22117Y50452D01*
G01X22120Y50499D01*
G01X22121Y50546D01*
G01X22120Y50592D01*
G01X22117Y50639D01*
G01X22112Y50685D01*
G01X22105Y50731D01*
G01X22095Y50777D01*
G01X22084Y50822D01*
G01X22070Y50867D01*
G01X22055Y50911D01*
G01X22038Y50954D01*
G01X22018Y50997D01*
G01X21997Y51038D01*
G01X21974Y51079D01*
G01X21949Y51118D01*
G01X21923Y51157D01*
G01X21895Y51194D01*
G01X21865Y51230D01*
G01X21833Y51264D01*
G01X21800Y51297D01*
G01X21766Y51329D01*
G01X21730Y51359D01*
G01X21693Y51387D01*
G01X21654Y51413D01*
G01X21615Y51438D01*
G01X21574Y51461D01*
G01X21533Y51482D01*
G01X21490Y51502D01*
G01X21447Y51519D01*
G01X21403Y51534D01*
G01X21358Y51548D01*
G01X21313Y51559D01*
G01X21267Y51569D01*
G01X21221Y51576D01*
G01X21175Y51581D01*
G01X21128Y51584D01*
G37*
G36*
G01X18588Y33550D02*
G01X18541Y33551D01*
G01X18495Y33550D01*
G01X18448Y33547D01*
G01X18402Y33542D01*
G01X18356Y33535D01*
G01X18310Y33525D01*
G01X18265Y33514D01*
G01X18220Y33500D01*
G01X18176Y33485D01*
G01X18133Y33468D01*
G01X18090Y33448D01*
G01X18049Y33427D01*
G01X18008Y33404D01*
G01X17969Y33379D01*
G01X17930Y33353D01*
G01X17893Y33325D01*
G01X17857Y33295D01*
G01X17823Y33263D01*
G01X17790Y33230D01*
G01X17758Y33196D01*
G01X17728Y33160D01*
G01X17700Y33123D01*
G01X17674Y33084D01*
G01X17649Y33045D01*
G01X17626Y33004D01*
G01X17605Y32963D01*
G01X17585Y32920D01*
G01X17568Y32877D01*
G01X17553Y32833D01*
G01X17539Y32788D01*
G01X17528Y32743D01*
G01X17518Y32697D01*
G01X17511Y32651D01*
G01X17506Y32605D01*
G01X17503Y32558D01*
G01X17502Y32512D01*
G01X17503Y32465D01*
G01X17506Y32418D01*
G01X17511Y32372D01*
G01X17518Y32326D01*
G01X17528Y32280D01*
G01X17539Y32235D01*
G01X17553Y32190D01*
G01X17568Y32146D01*
G01X17585Y32103D01*
G01X17605Y32060D01*
G01X17626Y32019D01*
G01X17649Y31978D01*
G01X17674Y31939D01*
G01X17700Y31900D01*
G01X17728Y31863D01*
G01X17758Y31827D01*
G01X17790Y31793D01*
G01X17823Y31760D01*
G01X17857Y31728D01*
G01X17893Y31698D01*
G01X17930Y31670D01*
G01X17969Y31644D01*
G01X18008Y31619D01*
G01X18049Y31596D01*
G01X18090Y31575D01*
G01X18133Y31555D01*
G01X18176Y31538D01*
G01X18220Y31523D01*
G01X18265Y31509D01*
G01X18310Y31498D01*
G01X18356Y31488D01*
G01X18402Y31481D01*
G01X18448Y31476D01*
G01X18495Y31473D01*
G01X18541Y31472D01*
G01X18542Y31472D01*
G01X18588Y31473D01*
G01X18635Y31476D01*
G01X18681Y31481D01*
G01X18727Y31488D01*
G01X18773Y31498D01*
G01X18818Y31509D01*
G01X18863Y31523D01*
G01X18907Y31538D01*
G01X18950Y31555D01*
G01X18993Y31575D01*
G01X19034Y31596D01*
G01X19075Y31619D01*
G01X19114Y31644D01*
G01X19153Y31670D01*
G01X19190Y31698D01*
G01X19226Y31728D01*
G01X19260Y31760D01*
G01X19293Y31793D01*
G01X19325Y31827D01*
G01X19355Y31863D01*
G01X19383Y31900D01*
G01X19409Y31939D01*
G01X19434Y31978D01*
G01X19457Y32019D01*
G01X19478Y32060D01*
G01X19498Y32103D01*
G01X19515Y32146D01*
G01X19530Y32190D01*
G01X19544Y32235D01*
G01X19555Y32280D01*
G01X19565Y32326D01*
G01X19572Y32372D01*
G01X19577Y32418D01*
G01X19580Y32465D01*
G01X19581Y32512D01*
G01X19580Y32558D01*
G01X19577Y32605D01*
G01X19572Y32651D01*
G01X19565Y32697D01*
G01X19555Y32743D01*
G01X19544Y32788D01*
G01X19530Y32833D01*
G01X19515Y32877D01*
G01X19498Y32920D01*
G01X19478Y32963D01*
G01X19457Y33004D01*
G01X19434Y33045D01*
G01X19409Y33084D01*
G01X19383Y33123D01*
G01X19355Y33160D01*
G01X19325Y33196D01*
G01X19293Y33230D01*
G01X19260Y33263D01*
G01X19226Y33295D01*
G01X19190Y33325D01*
G01X19153Y33353D01*
G01X19114Y33379D01*
G01X19075Y33404D01*
G01X19034Y33427D01*
G01X18993Y33448D01*
G01X18950Y33468D01*
G01X18907Y33485D01*
G01X18863Y33500D01*
G01X18818Y33514D01*
G01X18773Y33525D01*
G01X18727Y33535D01*
G01X18681Y33542D01*
G01X18635Y33547D01*
G01X18588Y33550D01*
G37*
G36*
G01X16048Y41170D02*
G01X16001Y41171D01*
G01X15955Y41170D01*
G01X15908Y41167D01*
G01X15862Y41162D01*
G01X15816Y41155D01*
G01X15770Y41145D01*
G01X15725Y41134D01*
G01X15680Y41120D01*
G01X15636Y41105D01*
G01X15593Y41088D01*
G01X15550Y41068D01*
G01X15509Y41047D01*
G01X15468Y41024D01*
G01X15429Y40999D01*
G01X15390Y40973D01*
G01X15353Y40945D01*
G01X15317Y40915D01*
G01X15283Y40883D01*
G01X15250Y40850D01*
G01X15218Y40816D01*
G01X15188Y40780D01*
G01X15160Y40743D01*
G01X15134Y40704D01*
G01X15109Y40665D01*
G01X15086Y40624D01*
G01X15065Y40583D01*
G01X15045Y40540D01*
G01X15028Y40497D01*
G01X15013Y40453D01*
G01X14999Y40408D01*
G01X14988Y40363D01*
G01X14978Y40317D01*
G01X14971Y40271D01*
G01X14966Y40225D01*
G01X14963Y40178D01*
G01X14962Y40132D01*
G01X14963Y40085D01*
G01X14966Y40038D01*
G01X14971Y39992D01*
G01X14978Y39946D01*
G01X14988Y39900D01*
G01X14999Y39855D01*
G01X15013Y39810D01*
G01X15028Y39766D01*
G01X15045Y39723D01*
G01X15065Y39680D01*
G01X15086Y39639D01*
G01X15109Y39598D01*
G01X15134Y39559D01*
G01X15160Y39520D01*
G01X15188Y39483D01*
G01X15218Y39447D01*
G01X15250Y39413D01*
G01X15283Y39380D01*
G01X15317Y39348D01*
G01X15353Y39318D01*
G01X15390Y39290D01*
G01X15429Y39264D01*
G01X15468Y39239D01*
G01X15509Y39216D01*
G01X15550Y39195D01*
G01X15593Y39175D01*
G01X15636Y39158D01*
G01X15680Y39143D01*
G01X15725Y39129D01*
G01X15770Y39118D01*
G01X15816Y39108D01*
G01X15862Y39101D01*
G01X15908Y39096D01*
G01X15955Y39093D01*
G01X16002Y39092D01*
G01X16048Y39093D01*
G01X16095Y39096D01*
G01X16141Y39101D01*
G01X16187Y39108D01*
G01X16233Y39118D01*
G01X16278Y39129D01*
G01X16323Y39143D01*
G01X16367Y39158D01*
G01X16410Y39175D01*
G01X16453Y39195D01*
G01X16494Y39216D01*
G01X16535Y39239D01*
G01X16574Y39264D01*
G01X16613Y39290D01*
G01X16650Y39318D01*
G01X16686Y39348D01*
G01X16720Y39380D01*
G01X16753Y39413D01*
G01X16785Y39447D01*
G01X16815Y39483D01*
G01X16843Y39520D01*
G01X16869Y39559D01*
G01X16894Y39598D01*
G01X16917Y39639D01*
G01X16938Y39680D01*
G01X16958Y39723D01*
G01X16975Y39766D01*
G01X16990Y39810D01*
G01X17004Y39855D01*
G01X17015Y39900D01*
G01X17025Y39946D01*
G01X17032Y39992D01*
G01X17037Y40038D01*
G01X17040Y40085D01*
G01X17041Y40132D01*
G01X17040Y40178D01*
G01X17037Y40225D01*
G01X17032Y40271D01*
G01X17025Y40317D01*
G01X17015Y40363D01*
G01X17004Y40408D01*
G01X16990Y40453D01*
G01X16975Y40497D01*
G01X16958Y40540D01*
G01X16938Y40583D01*
G01X16917Y40624D01*
G01X16894Y40665D01*
G01X16869Y40704D01*
G01X16843Y40743D01*
G01X16815Y40780D01*
G01X16785Y40816D01*
G01X16753Y40850D01*
G01X16720Y40883D01*
G01X16686Y40915D01*
G01X16650Y40945D01*
G01X16613Y40973D01*
G01X16574Y40999D01*
G01X16535Y41024D01*
G01X16494Y41047D01*
G01X16453Y41068D01*
G01X16410Y41088D01*
G01X16367Y41105D01*
G01X16323Y41120D01*
G01X16278Y41134D01*
G01X16233Y41145D01*
G01X16187Y41155D01*
G01X16141Y41162D01*
G01X16095Y41167D01*
G01X16048Y41170D01*
G37*
G36*
G01X18588Y36090D02*
G01X18541Y36091D01*
G01X18495Y36090D01*
G01X18448Y36087D01*
G01X18402Y36082D01*
G01X18356Y36075D01*
G01X18310Y36065D01*
G01X18265Y36054D01*
G01X18220Y36040D01*
G01X18176Y36025D01*
G01X18133Y36008D01*
G01X18090Y35988D01*
G01X18049Y35967D01*
G01X18008Y35944D01*
G01X17969Y35919D01*
G01X17930Y35893D01*
G01X17893Y35865D01*
G01X17857Y35835D01*
G01X17823Y35803D01*
G01X17790Y35770D01*
G01X17758Y35736D01*
G01X17728Y35700D01*
G01X17700Y35663D01*
G01X17674Y35624D01*
G01X17649Y35585D01*
G01X17626Y35544D01*
G01X17605Y35503D01*
G01X17585Y35460D01*
G01X17568Y35417D01*
G01X17553Y35373D01*
G01X17539Y35328D01*
G01X17528Y35283D01*
G01X17518Y35237D01*
G01X17511Y35191D01*
G01X17506Y35145D01*
G01X17503Y35098D01*
G01X17502Y35052D01*
G01X17503Y35005D01*
G01X17506Y34958D01*
G01X17511Y34912D01*
G01X17518Y34866D01*
G01X17528Y34820D01*
G01X17539Y34775D01*
G01X17553Y34730D01*
G01X17568Y34686D01*
G01X17585Y34643D01*
G01X17605Y34600D01*
G01X17626Y34559D01*
G01X17649Y34518D01*
G01X17674Y34479D01*
G01X17700Y34440D01*
G01X17728Y34403D01*
G01X17758Y34367D01*
G01X17790Y34333D01*
G01X17823Y34300D01*
G01X17857Y34268D01*
G01X17893Y34238D01*
G01X17930Y34210D01*
G01X17969Y34184D01*
G01X18008Y34159D01*
G01X18049Y34136D01*
G01X18090Y34115D01*
G01X18133Y34095D01*
G01X18176Y34078D01*
G01X18220Y34063D01*
G01X18265Y34049D01*
G01X18310Y34038D01*
G01X18356Y34028D01*
G01X18402Y34021D01*
G01X18448Y34016D01*
G01X18495Y34013D01*
G01X18541Y34012D01*
G01X18542Y34012D01*
G01X18588Y34013D01*
G01X18635Y34016D01*
G01X18681Y34021D01*
G01X18727Y34028D01*
G01X18773Y34038D01*
G01X18818Y34049D01*
G01X18863Y34063D01*
G01X18907Y34078D01*
G01X18950Y34095D01*
G01X18993Y34115D01*
G01X19034Y34136D01*
G01X19075Y34159D01*
G01X19114Y34184D01*
G01X19153Y34210D01*
G01X19190Y34238D01*
G01X19226Y34268D01*
G01X19260Y34300D01*
G01X19293Y34333D01*
G01X19325Y34367D01*
G01X19355Y34403D01*
G01X19383Y34440D01*
G01X19409Y34479D01*
G01X19434Y34518D01*
G01X19457Y34559D01*
G01X19478Y34600D01*
G01X19498Y34643D01*
G01X19515Y34686D01*
G01X19530Y34730D01*
G01X19544Y34775D01*
G01X19555Y34820D01*
G01X19565Y34866D01*
G01X19572Y34912D01*
G01X19577Y34958D01*
G01X19580Y35005D01*
G01X19581Y35052D01*
G01X19580Y35098D01*
G01X19577Y35145D01*
G01X19572Y35191D01*
G01X19565Y35237D01*
G01X19555Y35283D01*
G01X19544Y35328D01*
G01X19530Y35373D01*
G01X19515Y35417D01*
G01X19498Y35460D01*
G01X19478Y35503D01*
G01X19457Y35544D01*
G01X19434Y35585D01*
G01X19409Y35624D01*
G01X19383Y35663D01*
G01X19355Y35700D01*
G01X19325Y35736D01*
G01X19293Y35770D01*
G01X19260Y35803D01*
G01X19226Y35835D01*
G01X19190Y35865D01*
G01X19153Y35893D01*
G01X19114Y35919D01*
G01X19075Y35944D01*
G01X19034Y35967D01*
G01X18993Y35988D01*
G01X18950Y36008D01*
G01X18907Y36025D01*
G01X18863Y36040D01*
G01X18818Y36054D01*
G01X18773Y36065D01*
G01X18727Y36075D01*
G01X18681Y36082D01*
G01X18635Y36087D01*
G01X18588Y36090D01*
G37*
G36*
G01X16048Y33550D02*
G01X16001Y33551D01*
G01X15955Y33550D01*
G01X15908Y33547D01*
G01X15862Y33542D01*
G01X15816Y33535D01*
G01X15770Y33525D01*
G01X15725Y33514D01*
G01X15680Y33500D01*
G01X15636Y33485D01*
G01X15593Y33468D01*
G01X15550Y33448D01*
G01X15509Y33427D01*
G01X15468Y33404D01*
G01X15429Y33379D01*
G01X15390Y33353D01*
G01X15353Y33325D01*
G01X15317Y33295D01*
G01X15283Y33263D01*
G01X15250Y33230D01*
G01X15218Y33196D01*
G01X15188Y33160D01*
G01X15160Y33123D01*
G01X15134Y33084D01*
G01X15109Y33045D01*
G01X15086Y33004D01*
G01X15065Y32963D01*
G01X15045Y32920D01*
G01X15028Y32877D01*
G01X15013Y32833D01*
G01X14999Y32788D01*
G01X14988Y32743D01*
G01X14978Y32697D01*
G01X14971Y32651D01*
G01X14966Y32605D01*
G01X14963Y32558D01*
G01X14962Y32512D01*
G01X14963Y32465D01*
G01X14966Y32418D01*
G01X14971Y32372D01*
G01X14978Y32326D01*
G01X14988Y32280D01*
G01X14999Y32235D01*
G01X15013Y32190D01*
G01X15028Y32146D01*
G01X15045Y32103D01*
G01X15065Y32060D01*
G01X15086Y32019D01*
G01X15109Y31978D01*
G01X15134Y31939D01*
G01X15160Y31900D01*
G01X15188Y31863D01*
G01X15218Y31827D01*
G01X15250Y31793D01*
G01X15283Y31760D01*
G01X15317Y31728D01*
G01X15353Y31698D01*
G01X15390Y31670D01*
G01X15429Y31644D01*
G01X15468Y31619D01*
G01X15509Y31596D01*
G01X15550Y31575D01*
G01X15593Y31555D01*
G01X15636Y31538D01*
G01X15680Y31523D01*
G01X15725Y31509D01*
G01X15770Y31498D01*
G01X15816Y31488D01*
G01X15862Y31481D01*
G01X15908Y31476D01*
G01X15955Y31473D01*
G01X16002Y31472D01*
G01X16048Y31473D01*
G01X16095Y31476D01*
G01X16141Y31481D01*
G01X16187Y31488D01*
G01X16233Y31498D01*
G01X16278Y31509D01*
G01X16323Y31523D01*
G01X16367Y31538D01*
G01X16410Y31555D01*
G01X16453Y31575D01*
G01X16494Y31596D01*
G01X16535Y31619D01*
G01X16574Y31644D01*
G01X16613Y31670D01*
G01X16650Y31698D01*
G01X16686Y31728D01*
G01X16720Y31760D01*
G01X16753Y31793D01*
G01X16785Y31827D01*
G01X16815Y31863D01*
G01X16843Y31900D01*
G01X16869Y31939D01*
G01X16894Y31978D01*
G01X16917Y32019D01*
G01X16938Y32060D01*
G01X16958Y32103D01*
G01X16975Y32146D01*
G01X16990Y32190D01*
G01X17004Y32235D01*
G01X17015Y32280D01*
G01X17025Y32326D01*
G01X17032Y32372D01*
G01X17037Y32418D01*
G01X17040Y32465D01*
G01X17041Y32512D01*
G01X17040Y32558D01*
G01X17037Y32605D01*
G01X17032Y32651D01*
G01X17025Y32697D01*
G01X17015Y32743D01*
G01X17004Y32788D01*
G01X16990Y32833D01*
G01X16975Y32877D01*
G01X16958Y32920D01*
G01X16938Y32963D01*
G01X16917Y33004D01*
G01X16894Y33045D01*
G01X16869Y33084D01*
G01X16843Y33123D01*
G01X16815Y33160D01*
G01X16785Y33196D01*
G01X16753Y33230D01*
G01X16720Y33263D01*
G01X16686Y33295D01*
G01X16650Y33325D01*
G01X16613Y33353D01*
G01X16574Y33379D01*
G01X16535Y33404D01*
G01X16494Y33427D01*
G01X16453Y33448D01*
G01X16410Y33468D01*
G01X16367Y33485D01*
G01X16323Y33500D01*
G01X16278Y33514D01*
G01X16233Y33525D01*
G01X16187Y33535D01*
G01X16141Y33542D01*
G01X16095Y33547D01*
G01X16048Y33550D01*
G37*
G36*
G01X18588Y38630D02*
G01X18541Y38631D01*
G01X18495Y38630D01*
G01X18448Y38627D01*
G01X18402Y38622D01*
G01X18356Y38615D01*
G01X18310Y38605D01*
G01X18265Y38594D01*
G01X18220Y38580D01*
G01X18176Y38565D01*
G01X18133Y38548D01*
G01X18090Y38528D01*
G01X18049Y38507D01*
G01X18008Y38484D01*
G01X17969Y38459D01*
G01X17930Y38433D01*
G01X17893Y38405D01*
G01X17857Y38375D01*
G01X17823Y38343D01*
G01X17790Y38310D01*
G01X17758Y38276D01*
G01X17728Y38240D01*
G01X17700Y38203D01*
G01X17674Y38164D01*
G01X17649Y38125D01*
G01X17626Y38084D01*
G01X17605Y38043D01*
G01X17585Y38000D01*
G01X17568Y37957D01*
G01X17553Y37913D01*
G01X17539Y37868D01*
G01X17528Y37823D01*
G01X17518Y37777D01*
G01X17511Y37731D01*
G01X17506Y37685D01*
G01X17503Y37638D01*
G01X17502Y37592D01*
G01X17503Y37545D01*
G01X17506Y37498D01*
G01X17511Y37452D01*
G01X17518Y37406D01*
G01X17528Y37360D01*
G01X17539Y37315D01*
G01X17553Y37270D01*
G01X17568Y37226D01*
G01X17585Y37183D01*
G01X17605Y37140D01*
G01X17626Y37099D01*
G01X17649Y37058D01*
G01X17674Y37019D01*
G01X17700Y36980D01*
G01X17728Y36943D01*
G01X17758Y36907D01*
G01X17790Y36873D01*
G01X17823Y36840D01*
G01X17857Y36808D01*
G01X17893Y36778D01*
G01X17930Y36750D01*
G01X17969Y36724D01*
G01X18008Y36699D01*
G01X18049Y36676D01*
G01X18090Y36655D01*
G01X18133Y36635D01*
G01X18176Y36618D01*
G01X18220Y36603D01*
G01X18265Y36589D01*
G01X18310Y36578D01*
G01X18356Y36568D01*
G01X18402Y36561D01*
G01X18448Y36556D01*
G01X18495Y36553D01*
G01X18541Y36552D01*
G01X18542Y36552D01*
G01X18588Y36553D01*
G01X18635Y36556D01*
G01X18681Y36561D01*
G01X18727Y36568D01*
G01X18773Y36578D01*
G01X18818Y36589D01*
G01X18863Y36603D01*
G01X18907Y36618D01*
G01X18950Y36635D01*
G01X18993Y36655D01*
G01X19034Y36676D01*
G01X19075Y36699D01*
G01X19114Y36724D01*
G01X19153Y36750D01*
G01X19190Y36778D01*
G01X19226Y36808D01*
G01X19260Y36840D01*
G01X19293Y36873D01*
G01X19325Y36907D01*
G01X19355Y36943D01*
G01X19383Y36980D01*
G01X19409Y37019D01*
G01X19434Y37058D01*
G01X19457Y37099D01*
G01X19478Y37140D01*
G01X19498Y37183D01*
G01X19515Y37226D01*
G01X19530Y37270D01*
G01X19544Y37315D01*
G01X19555Y37360D01*
G01X19565Y37406D01*
G01X19572Y37452D01*
G01X19577Y37498D01*
G01X19580Y37545D01*
G01X19581Y37592D01*
G01X19580Y37638D01*
G01X19577Y37685D01*
G01X19572Y37731D01*
G01X19565Y37777D01*
G01X19555Y37823D01*
G01X19544Y37868D01*
G01X19530Y37913D01*
G01X19515Y37957D01*
G01X19498Y38000D01*
G01X19478Y38043D01*
G01X19457Y38084D01*
G01X19434Y38125D01*
G01X19409Y38164D01*
G01X19383Y38203D01*
G01X19355Y38240D01*
G01X19325Y38276D01*
G01X19293Y38310D01*
G01X19260Y38343D01*
G01X19226Y38375D01*
G01X19190Y38405D01*
G01X19153Y38433D01*
G01X19114Y38459D01*
G01X19075Y38484D01*
G01X19034Y38507D01*
G01X18993Y38528D01*
G01X18950Y38548D01*
G01X18907Y38565D01*
G01X18863Y38580D01*
G01X18818Y38594D01*
G01X18773Y38605D01*
G01X18727Y38615D01*
G01X18681Y38622D01*
G01X18635Y38627D01*
G01X18588Y38630D01*
G37*
G36*
G01X16048Y43710D02*
G01X16001Y43711D01*
G01X15955Y43710D01*
G01X15908Y43707D01*
G01X15862Y43702D01*
G01X15816Y43695D01*
G01X15770Y43685D01*
G01X15725Y43674D01*
G01X15680Y43660D01*
G01X15636Y43645D01*
G01X15593Y43628D01*
G01X15550Y43608D01*
G01X15509Y43587D01*
G01X15468Y43564D01*
G01X15429Y43539D01*
G01X15390Y43513D01*
G01X15353Y43485D01*
G01X15317Y43455D01*
G01X15283Y43423D01*
G01X15250Y43390D01*
G01X15218Y43356D01*
G01X15188Y43320D01*
G01X15160Y43283D01*
G01X15134Y43244D01*
G01X15109Y43205D01*
G01X15086Y43164D01*
G01X15065Y43123D01*
G01X15045Y43080D01*
G01X15028Y43037D01*
G01X15013Y42993D01*
G01X14999Y42948D01*
G01X14988Y42903D01*
G01X14978Y42857D01*
G01X14971Y42811D01*
G01X14966Y42765D01*
G01X14963Y42718D01*
G01X14962Y42672D01*
G01X14963Y42625D01*
G01X14966Y42578D01*
G01X14971Y42532D01*
G01X14978Y42486D01*
G01X14988Y42440D01*
G01X14999Y42395D01*
G01X15013Y42350D01*
G01X15028Y42306D01*
G01X15045Y42263D01*
G01X15065Y42220D01*
G01X15086Y42179D01*
G01X15109Y42138D01*
G01X15134Y42099D01*
G01X15160Y42060D01*
G01X15188Y42023D01*
G01X15218Y41987D01*
G01X15250Y41953D01*
G01X15283Y41920D01*
G01X15317Y41888D01*
G01X15353Y41858D01*
G01X15390Y41830D01*
G01X15429Y41804D01*
G01X15468Y41779D01*
G01X15509Y41756D01*
G01X15550Y41735D01*
G01X15593Y41715D01*
G01X15636Y41698D01*
G01X15680Y41683D01*
G01X15725Y41669D01*
G01X15770Y41658D01*
G01X15816Y41648D01*
G01X15862Y41641D01*
G01X15908Y41636D01*
G01X15955Y41633D01*
G01X16001Y41632D01*
G01X16002Y41632D01*
G01X16048Y41633D01*
G01X16095Y41636D01*
G01X16141Y41641D01*
G01X16187Y41648D01*
G01X16233Y41658D01*
G01X16278Y41669D01*
G01X16323Y41683D01*
G01X16367Y41698D01*
G01X16410Y41715D01*
G01X16453Y41735D01*
G01X16494Y41756D01*
G01X16535Y41779D01*
G01X16574Y41804D01*
G01X16613Y41830D01*
G01X16650Y41858D01*
G01X16686Y41888D01*
G01X16720Y41920D01*
G01X16753Y41953D01*
G01X16785Y41987D01*
G01X16815Y42023D01*
G01X16843Y42060D01*
G01X16869Y42099D01*
G01X16894Y42138D01*
G01X16917Y42179D01*
G01X16938Y42220D01*
G01X16958Y42263D01*
G01X16975Y42306D01*
G01X16990Y42350D01*
G01X17004Y42395D01*
G01X17015Y42440D01*
G01X17025Y42486D01*
G01X17032Y42532D01*
G01X17037Y42578D01*
G01X17040Y42625D01*
G01X17041Y42672D01*
G01X17040Y42718D01*
G01X17037Y42765D01*
G01X17032Y42811D01*
G01X17025Y42857D01*
G01X17015Y42903D01*
G01X17004Y42948D01*
G01X16990Y42993D01*
G01X16975Y43037D01*
G01X16958Y43080D01*
G01X16938Y43123D01*
G01X16917Y43164D01*
G01X16894Y43205D01*
G01X16869Y43244D01*
G01X16843Y43283D01*
G01X16815Y43320D01*
G01X16785Y43356D01*
G01X16753Y43390D01*
G01X16720Y43423D01*
G01X16686Y43455D01*
G01X16650Y43485D01*
G01X16613Y43513D01*
G01X16574Y43539D01*
G01X16535Y43564D01*
G01X16494Y43587D01*
G01X16453Y43608D01*
G01X16410Y43628D01*
G01X16367Y43645D01*
G01X16323Y43660D01*
G01X16278Y43674D01*
G01X16233Y43685D01*
G01X16187Y43695D01*
G01X16141Y43702D01*
G01X16095Y43707D01*
G01X16048Y43710D01*
G37*
G36*
G01X18588Y41170D02*
G01X18541Y41171D01*
G01X18495Y41170D01*
G01X18448Y41167D01*
G01X18402Y41162D01*
G01X18356Y41155D01*
G01X18310Y41145D01*
G01X18265Y41134D01*
G01X18220Y41120D01*
G01X18176Y41105D01*
G01X18133Y41088D01*
G01X18090Y41068D01*
G01X18049Y41047D01*
G01X18008Y41024D01*
G01X17969Y40999D01*
G01X17930Y40973D01*
G01X17893Y40945D01*
G01X17857Y40915D01*
G01X17823Y40883D01*
G01X17790Y40850D01*
G01X17758Y40816D01*
G01X17728Y40780D01*
G01X17700Y40743D01*
G01X17674Y40704D01*
G01X17649Y40665D01*
G01X17626Y40624D01*
G01X17605Y40583D01*
G01X17585Y40540D01*
G01X17568Y40497D01*
G01X17553Y40453D01*
G01X17539Y40408D01*
G01X17528Y40363D01*
G01X17518Y40317D01*
G01X17511Y40271D01*
G01X17506Y40225D01*
G01X17503Y40178D01*
G01X17502Y40132D01*
G01X17503Y40085D01*
G01X17506Y40038D01*
G01X17511Y39992D01*
G01X17518Y39946D01*
G01X17528Y39900D01*
G01X17539Y39855D01*
G01X17553Y39810D01*
G01X17568Y39766D01*
G01X17585Y39723D01*
G01X17605Y39680D01*
G01X17626Y39639D01*
G01X17649Y39598D01*
G01X17674Y39559D01*
G01X17700Y39520D01*
G01X17728Y39483D01*
G01X17758Y39447D01*
G01X17790Y39413D01*
G01X17823Y39380D01*
G01X17857Y39348D01*
G01X17893Y39318D01*
G01X17930Y39290D01*
G01X17969Y39264D01*
G01X18008Y39239D01*
G01X18049Y39216D01*
G01X18090Y39195D01*
G01X18133Y39175D01*
G01X18176Y39158D01*
G01X18220Y39143D01*
G01X18265Y39129D01*
G01X18310Y39118D01*
G01X18356Y39108D01*
G01X18402Y39101D01*
G01X18448Y39096D01*
G01X18495Y39093D01*
G01X18542Y39092D01*
G01X18588Y39093D01*
G01X18635Y39096D01*
G01X18681Y39101D01*
G01X18727Y39108D01*
G01X18773Y39118D01*
G01X18818Y39129D01*
G01X18863Y39143D01*
G01X18907Y39158D01*
G01X18950Y39175D01*
G01X18993Y39195D01*
G01X19034Y39216D01*
G01X19075Y39239D01*
G01X19114Y39264D01*
G01X19153Y39290D01*
G01X19190Y39318D01*
G01X19226Y39348D01*
G01X19260Y39380D01*
G01X19293Y39413D01*
G01X19325Y39447D01*
G01X19355Y39483D01*
G01X19383Y39520D01*
G01X19409Y39559D01*
G01X19434Y39598D01*
G01X19457Y39639D01*
G01X19478Y39680D01*
G01X19498Y39723D01*
G01X19515Y39766D01*
G01X19530Y39810D01*
G01X19544Y39855D01*
G01X19555Y39900D01*
G01X19565Y39946D01*
G01X19572Y39992D01*
G01X19577Y40038D01*
G01X19580Y40085D01*
G01X19581Y40132D01*
G01X19580Y40178D01*
G01X19577Y40225D01*
G01X19572Y40271D01*
G01X19565Y40317D01*
G01X19555Y40363D01*
G01X19544Y40408D01*
G01X19530Y40453D01*
G01X19515Y40497D01*
G01X19498Y40540D01*
G01X19478Y40583D01*
G01X19457Y40624D01*
G01X19434Y40665D01*
G01X19409Y40704D01*
G01X19383Y40743D01*
G01X19355Y40780D01*
G01X19325Y40816D01*
G01X19293Y40850D01*
G01X19260Y40883D01*
G01X19226Y40915D01*
G01X19190Y40945D01*
G01X19153Y40973D01*
G01X19114Y40999D01*
G01X19075Y41024D01*
G01X19034Y41047D01*
G01X18993Y41068D01*
G01X18950Y41088D01*
G01X18907Y41105D01*
G01X18863Y41120D01*
G01X18818Y41134D01*
G01X18773Y41145D01*
G01X18727Y41155D01*
G01X18681Y41162D01*
G01X18635Y41167D01*
G01X18588Y41170D01*
G37*
G36*
G01X16048Y36090D02*
G01X16001Y36091D01*
G01X15955Y36090D01*
G01X15908Y36087D01*
G01X15862Y36082D01*
G01X15816Y36075D01*
G01X15770Y36065D01*
G01X15725Y36054D01*
G01X15680Y36040D01*
G01X15636Y36025D01*
G01X15593Y36008D01*
G01X15550Y35988D01*
G01X15509Y35967D01*
G01X15468Y35944D01*
G01X15429Y35919D01*
G01X15390Y35893D01*
G01X15353Y35865D01*
G01X15317Y35835D01*
G01X15283Y35803D01*
G01X15250Y35770D01*
G01X15218Y35736D01*
G01X15188Y35700D01*
G01X15160Y35663D01*
G01X15134Y35624D01*
G01X15109Y35585D01*
G01X15086Y35544D01*
G01X15065Y35503D01*
G01X15045Y35460D01*
G01X15028Y35417D01*
G01X15013Y35373D01*
G01X14999Y35328D01*
G01X14988Y35283D01*
G01X14978Y35237D01*
G01X14971Y35191D01*
G01X14966Y35145D01*
G01X14963Y35098D01*
G01X14962Y35052D01*
G01X14963Y35005D01*
G01X14966Y34958D01*
G01X14971Y34912D01*
G01X14978Y34866D01*
G01X14988Y34820D01*
G01X14999Y34775D01*
G01X15013Y34730D01*
G01X15028Y34686D01*
G01X15045Y34643D01*
G01X15065Y34600D01*
G01X15086Y34559D01*
G01X15109Y34518D01*
G01X15134Y34479D01*
G01X15160Y34440D01*
G01X15188Y34403D01*
G01X15218Y34367D01*
G01X15250Y34333D01*
G01X15283Y34300D01*
G01X15317Y34268D01*
G01X15353Y34238D01*
G01X15390Y34210D01*
G01X15429Y34184D01*
G01X15468Y34159D01*
G01X15509Y34136D01*
G01X15550Y34115D01*
G01X15593Y34095D01*
G01X15636Y34078D01*
G01X15680Y34063D01*
G01X15725Y34049D01*
G01X15770Y34038D01*
G01X15816Y34028D01*
G01X15862Y34021D01*
G01X15908Y34016D01*
G01X15955Y34013D01*
G01X16001Y34012D01*
G01X16002Y34012D01*
G01X16048Y34013D01*
G01X16095Y34016D01*
G01X16141Y34021D01*
G01X16187Y34028D01*
G01X16233Y34038D01*
G01X16278Y34049D01*
G01X16323Y34063D01*
G01X16367Y34078D01*
G01X16410Y34095D01*
G01X16453Y34115D01*
G01X16494Y34136D01*
G01X16535Y34159D01*
G01X16574Y34184D01*
G01X16613Y34210D01*
G01X16650Y34238D01*
G01X16686Y34268D01*
G01X16720Y34300D01*
G01X16753Y34333D01*
G01X16785Y34367D01*
G01X16815Y34403D01*
G01X16843Y34440D01*
G01X16869Y34479D01*
G01X16894Y34518D01*
G01X16917Y34559D01*
G01X16938Y34600D01*
G01X16958Y34643D01*
G01X16975Y34686D01*
G01X16990Y34730D01*
G01X17004Y34775D01*
G01X17015Y34820D01*
G01X17025Y34866D01*
G01X17032Y34912D01*
G01X17037Y34958D01*
G01X17040Y35005D01*
G01X17041Y35052D01*
G01X17040Y35098D01*
G01X17037Y35145D01*
G01X17032Y35191D01*
G01X17025Y35237D01*
G01X17015Y35283D01*
G01X17004Y35328D01*
G01X16990Y35373D01*
G01X16975Y35417D01*
G01X16958Y35460D01*
G01X16938Y35503D01*
G01X16917Y35544D01*
G01X16894Y35585D01*
G01X16869Y35624D01*
G01X16843Y35663D01*
G01X16815Y35700D01*
G01X16785Y35736D01*
G01X16753Y35770D01*
G01X16720Y35803D01*
G01X16686Y35835D01*
G01X16650Y35865D01*
G01X16613Y35893D01*
G01X16574Y35919D01*
G01X16535Y35944D01*
G01X16494Y35967D01*
G01X16453Y35988D01*
G01X16410Y36008D01*
G01X16367Y36025D01*
G01X16323Y36040D01*
G01X16278Y36054D01*
G01X16233Y36065D01*
G01X16187Y36075D01*
G01X16141Y36082D01*
G01X16095Y36087D01*
G01X16048Y36090D01*
G37*
G36*
G01X18588Y43710D02*
G01X18541Y43711D01*
G01X18495Y43710D01*
G01X18448Y43707D01*
G01X18402Y43702D01*
G01X18356Y43695D01*
G01X18310Y43685D01*
G01X18265Y43674D01*
G01X18220Y43660D01*
G01X18176Y43645D01*
G01X18133Y43628D01*
G01X18090Y43608D01*
G01X18049Y43587D01*
G01X18008Y43564D01*
G01X17969Y43539D01*
G01X17930Y43513D01*
G01X17893Y43485D01*
G01X17857Y43455D01*
G01X17823Y43423D01*
G01X17790Y43390D01*
G01X17758Y43356D01*
G01X17728Y43320D01*
G01X17700Y43283D01*
G01X17674Y43244D01*
G01X17649Y43205D01*
G01X17626Y43164D01*
G01X17605Y43123D01*
G01X17585Y43080D01*
G01X17568Y43037D01*
G01X17553Y42993D01*
G01X17539Y42948D01*
G01X17528Y42903D01*
G01X17518Y42857D01*
G01X17511Y42811D01*
G01X17506Y42765D01*
G01X17503Y42718D01*
G01X17502Y42672D01*
G01X17503Y42625D01*
G01X17506Y42578D01*
G01X17511Y42532D01*
G01X17518Y42486D01*
G01X17528Y42440D01*
G01X17539Y42395D01*
G01X17553Y42350D01*
G01X17568Y42306D01*
G01X17585Y42263D01*
G01X17605Y42220D01*
G01X17626Y42179D01*
G01X17649Y42138D01*
G01X17674Y42099D01*
G01X17700Y42060D01*
G01X17728Y42023D01*
G01X17758Y41987D01*
G01X17790Y41953D01*
G01X17823Y41920D01*
G01X17857Y41888D01*
G01X17893Y41858D01*
G01X17930Y41830D01*
G01X17969Y41804D01*
G01X18008Y41779D01*
G01X18049Y41756D01*
G01X18090Y41735D01*
G01X18133Y41715D01*
G01X18176Y41698D01*
G01X18220Y41683D01*
G01X18265Y41669D01*
G01X18310Y41658D01*
G01X18356Y41648D01*
G01X18402Y41641D01*
G01X18448Y41636D01*
G01X18495Y41633D01*
G01X18542Y41632D01*
G01X18588Y41633D01*
G01X18635Y41636D01*
G01X18681Y41641D01*
G01X18727Y41648D01*
G01X18773Y41658D01*
G01X18818Y41669D01*
G01X18863Y41683D01*
G01X18907Y41698D01*
G01X18950Y41715D01*
G01X18993Y41735D01*
G01X19034Y41756D01*
G01X19075Y41779D01*
G01X19114Y41804D01*
G01X19153Y41830D01*
G01X19190Y41858D01*
G01X19226Y41888D01*
G01X19260Y41920D01*
G01X19293Y41953D01*
G01X19325Y41987D01*
G01X19355Y42023D01*
G01X19383Y42060D01*
G01X19409Y42099D01*
G01X19434Y42138D01*
G01X19457Y42179D01*
G01X19478Y42220D01*
G01X19498Y42263D01*
G01X19515Y42306D01*
G01X19530Y42350D01*
G01X19544Y42395D01*
G01X19555Y42440D01*
G01X19565Y42486D01*
G01X19572Y42532D01*
G01X19577Y42578D01*
G01X19580Y42625D01*
G01X19581Y42672D01*
G01X19580Y42718D01*
G01X19577Y42765D01*
G01X19572Y42811D01*
G01X19565Y42857D01*
G01X19555Y42903D01*
G01X19544Y42948D01*
G01X19530Y42993D01*
G01X19515Y43037D01*
G01X19498Y43080D01*
G01X19478Y43123D01*
G01X19457Y43164D01*
G01X19434Y43205D01*
G01X19409Y43244D01*
G01X19383Y43283D01*
G01X19355Y43320D01*
G01X19325Y43356D01*
G01X19293Y43390D01*
G01X19260Y43423D01*
G01X19226Y43455D01*
G01X19190Y43485D01*
G01X19153Y43513D01*
G01X19114Y43539D01*
G01X19075Y43564D01*
G01X19034Y43587D01*
G01X18993Y43608D01*
G01X18950Y43628D01*
G01X18907Y43645D01*
G01X18863Y43660D01*
G01X18818Y43674D01*
G01X18773Y43685D01*
G01X18727Y43695D01*
G01X18681Y43702D01*
G01X18635Y43707D01*
G01X18588Y43710D01*
G37*
G36*
G01X31288Y51584D02*
G01X31241Y51585D01*
G01X31195Y51584D01*
G01X31148Y51581D01*
G01X31102Y51576D01*
G01X31056Y51569D01*
G01X31010Y51559D01*
G01X30965Y51548D01*
G01X30920Y51534D01*
G01X30876Y51519D01*
G01X30833Y51502D01*
G01X30790Y51482D01*
G01X30749Y51461D01*
G01X30708Y51438D01*
G01X30669Y51413D01*
G01X30630Y51387D01*
G01X30593Y51359D01*
G01X30557Y51329D01*
G01X30523Y51297D01*
G01X30490Y51264D01*
G01X30458Y51230D01*
G01X30428Y51194D01*
G01X30400Y51157D01*
G01X30374Y51118D01*
G01X30349Y51079D01*
G01X30326Y51038D01*
G01X30305Y50997D01*
G01X30285Y50954D01*
G01X30268Y50911D01*
G01X30253Y50867D01*
G01X30239Y50822D01*
G01X30228Y50777D01*
G01X30218Y50731D01*
G01X30211Y50685D01*
G01X30206Y50639D01*
G01X30203Y50592D01*
G01X30202Y50546D01*
G01X30203Y50499D01*
G01X30206Y50452D01*
G01X30211Y50406D01*
G01X30218Y50360D01*
G01X30228Y50314D01*
G01X30239Y50269D01*
G01X30253Y50224D01*
G01X30268Y50180D01*
G01X30285Y50137D01*
G01X30305Y50094D01*
G01X30326Y50053D01*
G01X30349Y50012D01*
G01X30374Y49973D01*
G01X30400Y49934D01*
G01X30428Y49897D01*
G01X30458Y49861D01*
G01X30490Y49827D01*
G01X30523Y49794D01*
G01X30557Y49762D01*
G01X30593Y49732D01*
G01X30630Y49704D01*
G01X30669Y49678D01*
G01X30708Y49653D01*
G01X30749Y49630D01*
G01X30790Y49609D01*
G01X30833Y49589D01*
G01X30876Y49572D01*
G01X30920Y49557D01*
G01X30965Y49543D01*
G01X31010Y49532D01*
G01X31056Y49522D01*
G01X31102Y49515D01*
G01X31148Y49510D01*
G01X31195Y49507D01*
G01X31242Y49506D01*
G01X31288Y49507D01*
G01X31335Y49510D01*
G01X31381Y49515D01*
G01X31427Y49522D01*
G01X31473Y49532D01*
G01X31518Y49543D01*
G01X31563Y49557D01*
G01X31607Y49572D01*
G01X31650Y49589D01*
G01X31693Y49609D01*
G01X31734Y49630D01*
G01X31775Y49653D01*
G01X31814Y49678D01*
G01X31853Y49704D01*
G01X31890Y49732D01*
G01X31926Y49762D01*
G01X31960Y49794D01*
G01X31993Y49827D01*
G01X32025Y49861D01*
G01X32055Y49897D01*
G01X32083Y49934D01*
G01X32109Y49973D01*
G01X32134Y50012D01*
G01X32157Y50053D01*
G01X32178Y50094D01*
G01X32198Y50137D01*
G01X32215Y50180D01*
G01X32230Y50224D01*
G01X32244Y50269D01*
G01X32255Y50314D01*
G01X32265Y50360D01*
G01X32272Y50406D01*
G01X32277Y50452D01*
G01X32280Y50499D01*
G01X32281Y50546D01*
G01X32280Y50592D01*
G01X32277Y50639D01*
G01X32272Y50685D01*
G01X32265Y50731D01*
G01X32255Y50777D01*
G01X32244Y50822D01*
G01X32230Y50867D01*
G01X32215Y50911D01*
G01X32198Y50954D01*
G01X32178Y50997D01*
G01X32157Y51038D01*
G01X32134Y51079D01*
G01X32109Y51118D01*
G01X32083Y51157D01*
G01X32055Y51194D01*
G01X32025Y51230D01*
G01X31993Y51264D01*
G01X31960Y51297D01*
G01X31926Y51329D01*
G01X31890Y51359D01*
G01X31853Y51387D01*
G01X31814Y51413D01*
G01X31775Y51438D01*
G01X31734Y51461D01*
G01X31693Y51482D01*
G01X31650Y51502D01*
G01X31607Y51519D01*
G01X31563Y51534D01*
G01X31518Y51548D01*
G01X31473Y51559D01*
G01X31427Y51569D01*
G01X31381Y51576D01*
G01X31335Y51581D01*
G01X31288Y51584D01*
G37*
G36*
G01X26208Y51584D02*
G01X26161Y51585D01*
G01X26115Y51584D01*
G01X26068Y51581D01*
G01X26022Y51576D01*
G01X25976Y51569D01*
G01X25930Y51559D01*
G01X25885Y51548D01*
G01X25840Y51534D01*
G01X25796Y51519D01*
G01X25753Y51502D01*
G01X25710Y51482D01*
G01X25669Y51461D01*
G01X25628Y51438D01*
G01X25589Y51413D01*
G01X25550Y51387D01*
G01X25513Y51359D01*
G01X25477Y51329D01*
G01X25443Y51297D01*
G01X25410Y51264D01*
G01X25378Y51230D01*
G01X25348Y51194D01*
G01X25320Y51157D01*
G01X25294Y51118D01*
G01X25269Y51079D01*
G01X25246Y51038D01*
G01X25225Y50997D01*
G01X25205Y50954D01*
G01X25188Y50911D01*
G01X25173Y50867D01*
G01X25159Y50822D01*
G01X25148Y50777D01*
G01X25138Y50731D01*
G01X25131Y50685D01*
G01X25126Y50639D01*
G01X25123Y50592D01*
G01X25122Y50546D01*
G01X25123Y50499D01*
G01X25126Y50452D01*
G01X25131Y50406D01*
G01X25138Y50360D01*
G01X25148Y50314D01*
G01X25159Y50269D01*
G01X25173Y50224D01*
G01X25188Y50180D01*
G01X25205Y50137D01*
G01X25225Y50094D01*
G01X25246Y50053D01*
G01X25269Y50012D01*
G01X25294Y49973D01*
G01X25320Y49934D01*
G01X25348Y49897D01*
G01X25378Y49861D01*
G01X25410Y49827D01*
G01X25443Y49794D01*
G01X25477Y49762D01*
G01X25513Y49732D01*
G01X25550Y49704D01*
G01X25589Y49678D01*
G01X25628Y49653D01*
G01X25669Y49630D01*
G01X25710Y49609D01*
G01X25753Y49589D01*
G01X25796Y49572D01*
G01X25840Y49557D01*
G01X25885Y49543D01*
G01X25930Y49532D01*
G01X25976Y49522D01*
G01X26022Y49515D01*
G01X26068Y49510D01*
G01X26115Y49507D01*
G01X26162Y49506D01*
G01X26208Y49507D01*
G01X26255Y49510D01*
G01X26301Y49515D01*
G01X26347Y49522D01*
G01X26393Y49532D01*
G01X26438Y49543D01*
G01X26483Y49557D01*
G01X26527Y49572D01*
G01X26570Y49589D01*
G01X26613Y49609D01*
G01X26654Y49630D01*
G01X26695Y49653D01*
G01X26734Y49678D01*
G01X26773Y49704D01*
G01X26810Y49732D01*
G01X26846Y49762D01*
G01X26880Y49794D01*
G01X26913Y49827D01*
G01X26945Y49861D01*
G01X26975Y49897D01*
G01X27003Y49934D01*
G01X27029Y49973D01*
G01X27054Y50012D01*
G01X27077Y50053D01*
G01X27098Y50094D01*
G01X27118Y50137D01*
G01X27135Y50180D01*
G01X27150Y50224D01*
G01X27164Y50269D01*
G01X27175Y50314D01*
G01X27185Y50360D01*
G01X27192Y50406D01*
G01X27197Y50452D01*
G01X27200Y50499D01*
G01X27201Y50546D01*
G01X27200Y50592D01*
G01X27197Y50639D01*
G01X27192Y50685D01*
G01X27185Y50731D01*
G01X27175Y50777D01*
G01X27164Y50822D01*
G01X27150Y50867D01*
G01X27135Y50911D01*
G01X27118Y50954D01*
G01X27098Y50997D01*
G01X27077Y51038D01*
G01X27054Y51079D01*
G01X27029Y51118D01*
G01X27003Y51157D01*
G01X26975Y51194D01*
G01X26945Y51230D01*
G01X26913Y51264D01*
G01X26880Y51297D01*
G01X26846Y51329D01*
G01X26810Y51359D01*
G01X26773Y51387D01*
G01X26734Y51413D01*
G01X26695Y51438D01*
G01X26654Y51461D01*
G01X26613Y51482D01*
G01X26570Y51502D01*
G01X26527Y51519D01*
G01X26483Y51534D01*
G01X26438Y51548D01*
G01X26393Y51559D01*
G01X26347Y51569D01*
G01X26301Y51576D01*
G01X26255Y51581D01*
G01X26208Y51584D01*
G37*
G36*
G01X16048Y38630D02*
G01X16001Y38631D01*
G01X15955Y38630D01*
G01X15908Y38627D01*
G01X15862Y38622D01*
G01X15816Y38615D01*
G01X15770Y38605D01*
G01X15725Y38594D01*
G01X15680Y38580D01*
G01X15636Y38565D01*
G01X15593Y38548D01*
G01X15550Y38528D01*
G01X15509Y38507D01*
G01X15468Y38484D01*
G01X15429Y38459D01*
G01X15390Y38433D01*
G01X15353Y38405D01*
G01X15317Y38375D01*
G01X15283Y38343D01*
G01X15250Y38310D01*
G01X15218Y38276D01*
G01X15188Y38240D01*
G01X15160Y38203D01*
G01X15134Y38164D01*
G01X15109Y38125D01*
G01X15086Y38084D01*
G01X15065Y38043D01*
G01X15045Y38000D01*
G01X15028Y37957D01*
G01X15013Y37913D01*
G01X14999Y37868D01*
G01X14988Y37823D01*
G01X14978Y37777D01*
G01X14971Y37731D01*
G01X14966Y37685D01*
G01X14963Y37638D01*
G01X14962Y37592D01*
G01X14963Y37545D01*
G01X14966Y37498D01*
G01X14971Y37452D01*
G01X14978Y37406D01*
G01X14988Y37360D01*
G01X14999Y37315D01*
G01X15013Y37270D01*
G01X15028Y37226D01*
G01X15045Y37183D01*
G01X15065Y37140D01*
G01X15086Y37099D01*
G01X15109Y37058D01*
G01X15134Y37019D01*
G01X15160Y36980D01*
G01X15188Y36943D01*
G01X15218Y36907D01*
G01X15250Y36873D01*
G01X15283Y36840D01*
G01X15317Y36808D01*
G01X15353Y36778D01*
G01X15390Y36750D01*
G01X15429Y36724D01*
G01X15468Y36699D01*
G01X15509Y36676D01*
G01X15550Y36655D01*
G01X15593Y36635D01*
G01X15636Y36618D01*
G01X15680Y36603D01*
G01X15725Y36589D01*
G01X15770Y36578D01*
G01X15816Y36568D01*
G01X15862Y36561D01*
G01X15908Y36556D01*
G01X15955Y36553D01*
G01X16002Y36552D01*
G01X16048Y36553D01*
G01X16095Y36556D01*
G01X16141Y36561D01*
G01X16187Y36568D01*
G01X16233Y36578D01*
G01X16278Y36589D01*
G01X16323Y36603D01*
G01X16367Y36618D01*
G01X16410Y36635D01*
G01X16453Y36655D01*
G01X16494Y36676D01*
G01X16535Y36699D01*
G01X16574Y36724D01*
G01X16613Y36750D01*
G01X16650Y36778D01*
G01X16686Y36808D01*
G01X16720Y36840D01*
G01X16753Y36873D01*
G01X16785Y36907D01*
G01X16815Y36943D01*
G01X16843Y36980D01*
G01X16869Y37019D01*
G01X16894Y37058D01*
G01X16917Y37099D01*
G01X16938Y37140D01*
G01X16958Y37183D01*
G01X16975Y37226D01*
G01X16990Y37270D01*
G01X17004Y37315D01*
G01X17015Y37360D01*
G01X17025Y37406D01*
G01X17032Y37452D01*
G01X17037Y37498D01*
G01X17040Y37545D01*
G01X17041Y37592D01*
G01X17040Y37638D01*
G01X17037Y37685D01*
G01X17032Y37731D01*
G01X17025Y37777D01*
G01X17015Y37823D01*
G01X17004Y37868D01*
G01X16990Y37913D01*
G01X16975Y37957D01*
G01X16958Y38000D01*
G01X16938Y38043D01*
G01X16917Y38084D01*
G01X16894Y38125D01*
G01X16869Y38164D01*
G01X16843Y38203D01*
G01X16815Y38240D01*
G01X16785Y38276D01*
G01X16753Y38310D01*
G01X16720Y38343D01*
G01X16686Y38375D01*
G01X16650Y38405D01*
G01X16613Y38433D01*
G01X16574Y38459D01*
G01X16535Y38484D01*
G01X16494Y38507D01*
G01X16453Y38528D01*
G01X16410Y38548D01*
G01X16367Y38565D01*
G01X16323Y38580D01*
G01X16278Y38594D01*
G01X16233Y38605D01*
G01X16187Y38615D01*
G01X16141Y38622D01*
G01X16095Y38627D01*
G01X16048Y38630D01*
G37*
G36*
G01X21128Y3070D02*
G01X21081Y3071D01*
G01X21035Y3070D01*
G01X20988Y3067D01*
G01X20942Y3062D01*
G01X20896Y3055D01*
G01X20850Y3045D01*
G01X20805Y3034D01*
G01X20760Y3020D01*
G01X20716Y3005D01*
G01X20673Y2988D01*
G01X20630Y2968D01*
G01X20589Y2947D01*
G01X20548Y2924D01*
G01X20509Y2899D01*
G01X20470Y2873D01*
G01X20433Y2845D01*
G01X20397Y2815D01*
G01X20363Y2783D01*
G01X20330Y2750D01*
G01X20298Y2716D01*
G01X20268Y2680D01*
G01X20240Y2643D01*
G01X20214Y2604D01*
G01X20189Y2565D01*
G01X20166Y2524D01*
G01X20145Y2483D01*
G01X20125Y2440D01*
G01X20108Y2397D01*
G01X20093Y2353D01*
G01X20079Y2308D01*
G01X20068Y2263D01*
G01X20058Y2217D01*
G01X20051Y2171D01*
G01X20046Y2125D01*
G01X20043Y2078D01*
G01X20042Y2032D01*
G01X20043Y1985D01*
G01X20046Y1938D01*
G01X20051Y1892D01*
G01X20058Y1846D01*
G01X20068Y1800D01*
G01X20079Y1755D01*
G01X20093Y1710D01*
G01X20108Y1666D01*
G01X20125Y1623D01*
G01X20145Y1580D01*
G01X20166Y1539D01*
G01X20189Y1498D01*
G01X20214Y1459D01*
G01X20240Y1420D01*
G01X20268Y1383D01*
G01X20298Y1347D01*
G01X20330Y1313D01*
G01X20363Y1280D01*
G01X20397Y1248D01*
G01X20433Y1218D01*
G01X20470Y1190D01*
G01X20509Y1164D01*
G01X20548Y1139D01*
G01X20589Y1116D01*
G01X20630Y1095D01*
G01X20673Y1075D01*
G01X20716Y1058D01*
G01X20760Y1043D01*
G01X20805Y1029D01*
G01X20850Y1018D01*
G01X20896Y1008D01*
G01X20942Y1001D01*
G01X20988Y996D01*
G01X21035Y993D01*
G01X21081Y992D01*
G01X21082Y992D01*
G01X21128Y993D01*
G01X21175Y996D01*
G01X21221Y1001D01*
G01X21267Y1008D01*
G01X21313Y1018D01*
G01X21358Y1029D01*
G01X21403Y1043D01*
G01X21447Y1058D01*
G01X21490Y1075D01*
G01X21533Y1095D01*
G01X21574Y1116D01*
G01X21615Y1139D01*
G01X21654Y1164D01*
G01X21693Y1190D01*
G01X21730Y1218D01*
G01X21766Y1248D01*
G01X21800Y1280D01*
G01X21833Y1313D01*
G01X21865Y1347D01*
G01X21895Y1383D01*
G01X21923Y1420D01*
G01X21949Y1459D01*
G01X21974Y1498D01*
G01X21997Y1539D01*
G01X22018Y1580D01*
G01X22038Y1623D01*
G01X22055Y1666D01*
G01X22070Y1710D01*
G01X22084Y1755D01*
G01X22095Y1800D01*
G01X22105Y1846D01*
G01X22112Y1892D01*
G01X22117Y1938D01*
G01X22120Y1985D01*
G01X22121Y2032D01*
G01X22120Y2078D01*
G01X22117Y2125D01*
G01X22112Y2171D01*
G01X22105Y2217D01*
G01X22095Y2263D01*
G01X22084Y2308D01*
G01X22070Y2353D01*
G01X22055Y2397D01*
G01X22038Y2440D01*
G01X22018Y2483D01*
G01X21997Y2524D01*
G01X21974Y2565D01*
G01X21949Y2604D01*
G01X21923Y2643D01*
G01X21895Y2680D01*
G01X21865Y2716D01*
G01X21833Y2750D01*
G01X21800Y2783D01*
G01X21766Y2815D01*
G01X21730Y2845D01*
G01X21693Y2873D01*
G01X21654Y2899D01*
G01X21615Y2924D01*
G01X21574Y2947D01*
G01X21533Y2968D01*
G01X21490Y2988D01*
G01X21447Y3005D01*
G01X21403Y3020D01*
G01X21358Y3034D01*
G01X21313Y3045D01*
G01X21267Y3055D01*
G01X21221Y3062D01*
G01X21175Y3067D01*
G01X21128Y3070D01*
G37*
G36*
G01X27219Y34354D02*
G01X27178Y34355D01*
G01X27136Y34354D01*
G01X27094Y34350D01*
G01X27052Y34345D01*
G01X27011Y34338D01*
G01X26970Y34329D01*
G01X26930Y34318D01*
G01X26890Y34305D01*
G01X26851Y34290D01*
G01X26813Y34273D01*
G01X26776Y34254D01*
G01X26739Y34233D01*
G01X26704Y34211D01*
G01X26670Y34187D01*
G01X26637Y34161D01*
G01X26605Y34134D01*
G01X26575Y34105D01*
G01X26546Y34075D01*
G01X26519Y34043D01*
G01X26493Y34010D01*
G01X26469Y33976D01*
G01X26446Y33940D01*
G01X26426Y33904D01*
G01X26407Y33867D01*
G01X26390Y33828D01*
G01X26375Y33789D01*
G01X26362Y33750D01*
G01X26351Y33709D01*
G01X26341Y33668D01*
G01X26334Y33627D01*
G01X26329Y33586D01*
G01X26326Y33544D01*
G01X26325Y33502D01*
G01X26326Y33460D01*
G01X26329Y33419D01*
G01X26334Y33377D01*
G01X26341Y33336D01*
G01X26351Y33295D01*
G01X26362Y33255D01*
G01X26375Y33215D01*
G01X26390Y33176D01*
G01X26407Y33138D01*
G01X26426Y33100D01*
G01X26446Y33064D01*
G01X26469Y33028D01*
G01X26493Y32994D01*
G01X26519Y32961D01*
G01X26546Y32930D01*
G01X26575Y32899D01*
G01X26605Y32870D01*
G01X26637Y32843D01*
G01X26670Y32817D01*
G01X26704Y32793D01*
G01X26739Y32771D01*
G01X26776Y32750D01*
G01X26813Y32731D01*
G01X26851Y32715D01*
G01X26890Y32699D01*
G01X26930Y32686D01*
G01X26970Y32675D01*
G01X27011Y32666D01*
G01X27052Y32659D01*
G01X27094Y32654D01*
G01X27136Y32651D01*
G01X27178Y32650D01*
G01X27219Y32651D01*
G01X27261Y32654D01*
G01X27303Y32659D01*
G01X27344Y32666D01*
G01X27385Y32675D01*
G01X27425Y32686D01*
G01X27465Y32699D01*
G01X27504Y32715D01*
G01X27542Y32731D01*
G01X27579Y32750D01*
G01X27616Y32771D01*
G01X27651Y32793D01*
G01X27685Y32817D01*
G01X27718Y32843D01*
G01X27750Y32870D01*
G01X27780Y32899D01*
G01X27809Y32930D01*
G01X27836Y32961D01*
G01X27862Y32994D01*
G01X27886Y33028D01*
G01X27909Y33064D01*
G01X27929Y33100D01*
G01X27948Y33138D01*
G01X27965Y33176D01*
G01X27980Y33215D01*
G01X27993Y33255D01*
G01X28004Y33295D01*
G01X28014Y33336D01*
G01X28021Y33377D01*
G01X28026Y33419D01*
G01X28029Y33460D01*
G01X28030Y33502D01*
G01X28029Y33544D01*
G01X28026Y33586D01*
G01X28021Y33627D01*
G01X28014Y33668D01*
G01X28004Y33709D01*
G01X27993Y33750D01*
G01X27980Y33789D01*
G01X27965Y33828D01*
G01X27948Y33867D01*
G01X27929Y33904D01*
G01X27909Y33940D01*
G01X27886Y33976D01*
G01X27862Y34010D01*
G01X27836Y34043D01*
G01X27809Y34075D01*
G01X27780Y34105D01*
G01X27750Y34134D01*
G01X27718Y34161D01*
G01X27685Y34187D01*
G01X27651Y34211D01*
G01X27616Y34233D01*
G01X27579Y34254D01*
G01X27542Y34273D01*
G01X27504Y34290D01*
G01X27465Y34305D01*
G01X27425Y34318D01*
G01X27385Y34329D01*
G01X27344Y34338D01*
G01X27303Y34345D01*
G01X27261Y34350D01*
G01X27219Y34354D01*
G37*
G36*
G01X27219Y41847D02*
G01X27178Y41848D01*
G01X27136Y41847D01*
G01X27094Y41843D01*
G01X27052Y41838D01*
G01X27011Y41831D01*
G01X26970Y41822D01*
G01X26930Y41811D01*
G01X26890Y41798D01*
G01X26851Y41783D01*
G01X26813Y41766D01*
G01X26776Y41747D01*
G01X26739Y41726D01*
G01X26704Y41704D01*
G01X26670Y41680D01*
G01X26637Y41654D01*
G01X26605Y41627D01*
G01X26575Y41598D01*
G01X26546Y41568D01*
G01X26519Y41536D01*
G01X26493Y41503D01*
G01X26469Y41469D01*
G01X26446Y41433D01*
G01X26426Y41397D01*
G01X26407Y41360D01*
G01X26390Y41321D01*
G01X26375Y41282D01*
G01X26362Y41243D01*
G01X26351Y41202D01*
G01X26341Y41161D01*
G01X26334Y41120D01*
G01X26329Y41079D01*
G01X26326Y41037D01*
G01X26325Y40995D01*
G01X26326Y40953D01*
G01X26329Y40912D01*
G01X26334Y40870D01*
G01X26341Y40829D01*
G01X26351Y40788D01*
G01X26362Y40748D01*
G01X26375Y40708D01*
G01X26390Y40669D01*
G01X26407Y40631D01*
G01X26426Y40593D01*
G01X26446Y40557D01*
G01X26469Y40521D01*
G01X26493Y40487D01*
G01X26519Y40454D01*
G01X26546Y40423D01*
G01X26575Y40392D01*
G01X26605Y40363D01*
G01X26637Y40336D01*
G01X26670Y40310D01*
G01X26704Y40286D01*
G01X26739Y40264D01*
G01X26776Y40243D01*
G01X26813Y40224D01*
G01X26851Y40208D01*
G01X26890Y40192D01*
G01X26930Y40179D01*
G01X26970Y40168D01*
G01X27011Y40159D01*
G01X27052Y40152D01*
G01X27094Y40147D01*
G01X27136Y40144D01*
G01X27178Y40143D01*
G01X27219Y40144D01*
G01X27261Y40147D01*
G01X27303Y40152D01*
G01X27344Y40159D01*
G01X27385Y40168D01*
G01X27425Y40179D01*
G01X27465Y40192D01*
G01X27504Y40208D01*
G01X27542Y40224D01*
G01X27579Y40243D01*
G01X27616Y40264D01*
G01X27651Y40286D01*
G01X27685Y40310D01*
G01X27718Y40336D01*
G01X27750Y40363D01*
G01X27780Y40392D01*
G01X27809Y40423D01*
G01X27836Y40454D01*
G01X27862Y40487D01*
G01X27886Y40521D01*
G01X27909Y40557D01*
G01X27929Y40593D01*
G01X27948Y40631D01*
G01X27965Y40669D01*
G01X27980Y40708D01*
G01X27993Y40748D01*
G01X28004Y40788D01*
G01X28014Y40829D01*
G01X28021Y40870D01*
G01X28026Y40912D01*
G01X28029Y40953D01*
G01X28030Y40995D01*
G01X28029Y41037D01*
G01X28026Y41079D01*
G01X28021Y41120D01*
G01X28014Y41161D01*
G01X28004Y41202D01*
G01X27993Y41243D01*
G01X27980Y41282D01*
G01X27965Y41321D01*
G01X27948Y41360D01*
G01X27929Y41397D01*
G01X27909Y41433D01*
G01X27886Y41469D01*
G01X27862Y41503D01*
G01X27836Y41536D01*
G01X27809Y41568D01*
G01X27780Y41598D01*
G01X27750Y41627D01*
G01X27718Y41654D01*
G01X27685Y41680D01*
G01X27651Y41704D01*
G01X27616Y41726D01*
G01X27579Y41747D01*
G01X27542Y41766D01*
G01X27504Y41783D01*
G01X27465Y41798D01*
G01X27425Y41811D01*
G01X27385Y41822D01*
G01X27344Y41831D01*
G01X27303Y41838D01*
G01X27261Y41843D01*
G01X27219Y41847D01*
G37*
G36*
G01X30515Y24477D02*
G01X30480Y24478D01*
G01X30444Y24477D01*
G01X30410Y24474D01*
G01X30375Y24469D01*
G01X30341Y24462D01*
G01X30307Y24453D01*
G01X30273Y24442D01*
G01X30241Y24429D01*
G01X30209Y24414D01*
G01X30178Y24397D01*
G01X30148Y24379D01*
G01X30120Y24359D01*
G01X30092Y24337D01*
G01X30066Y24314D01*
G01X30041Y24289D01*
G01X30018Y24263D01*
G01X29996Y24235D01*
G01X29976Y24207D01*
G01X29958Y24177D01*
G01X29941Y24146D01*
G01X29926Y24114D01*
G01X29913Y24082D01*
G01X29902Y24048D01*
G01X29893Y24014D01*
G01X29886Y23980D01*
G01X29881Y23945D01*
G01X29878Y23911D01*
G01X29877Y23876D01*
G01X29878Y23839D01*
G01X29881Y23802D01*
G01X29887Y23766D01*
G01X29895Y23730D01*
G01X29905Y23695D01*
G01X29917Y23661D01*
G01X29931Y23627D01*
G01X29947Y23594D01*
G01X29965Y23562D01*
G01X29985Y23531D01*
G01X30007Y23502D01*
G01X30030Y23474D01*
G01X30056Y23447D01*
G01X30066Y23435D01*
G01X30075Y23422D01*
G01X30081Y23407D01*
G01X30084Y23391D01*
G01X30086Y23375D01*
G01X30084Y23359D01*
G01X30081Y23344D01*
G01X30075Y23329D01*
G01X30066Y23315D01*
G01X30056Y23303D01*
G01X30030Y23276D01*
G01X30007Y23248D01*
G01X29985Y23219D01*
G01X29965Y23188D01*
G01X29947Y23156D01*
G01X29931Y23124D01*
G01X29917Y23090D01*
G01X29905Y23055D01*
G01X29895Y23020D01*
G01X29887Y22984D01*
G01X29881Y22948D01*
G01X29878Y22911D01*
G01X29877Y22875D01*
G01X29878Y22840D01*
G01X29881Y22805D01*
G01X29886Y22770D01*
G01X29893Y22736D01*
G01X29902Y22702D01*
G01X29913Y22669D01*
G01X29926Y22636D01*
G01X29941Y22604D01*
G01X29958Y22573D01*
G01X29976Y22544D01*
G01X29996Y22515D01*
G01X30018Y22487D01*
G01X30041Y22461D01*
G01X30066Y22437D01*
G01X30092Y22413D01*
G01X30120Y22391D01*
G01X30148Y22371D01*
G01X30178Y22353D01*
G01X30209Y22336D01*
G01X30241Y22322D01*
G01X30273Y22309D01*
G01X30307Y22298D01*
G01X30341Y22288D01*
G01X30375Y22281D01*
G01X30410Y22276D01*
G01X30444Y22273D01*
G01X30480Y22272D01*
G01X30515Y22273D01*
G01X30549Y22276D01*
G01X30584Y22281D01*
G01X30618Y22288D01*
G01X30652Y22298D01*
G01X30686Y22309D01*
G01X30718Y22322D01*
G01X30750Y22336D01*
G01X30781Y22353D01*
G01X30811Y22371D01*
G01X30839Y22391D01*
G01X30867Y22413D01*
G01X30893Y22437D01*
G01X30918Y22461D01*
G01X30941Y22487D01*
G01X30963Y22515D01*
G01X30983Y22544D01*
G01X31001Y22573D01*
G01X31018Y22604D01*
G01X31033Y22636D01*
G01X31046Y22669D01*
G01X31057Y22702D01*
G01X31066Y22736D01*
G01X31073Y22770D01*
G01X31078Y22805D01*
G01X31081Y22840D01*
G01X31082Y22875D01*
G01X31081Y22911D01*
G01X31078Y22948D01*
G01X31072Y22984D01*
G01X31064Y23020D01*
G01X31054Y23055D01*
G01X31042Y23090D01*
G01X31028Y23124D01*
G01X31012Y23156D01*
G01X30994Y23188D01*
G01X30974Y23219D01*
G01X30952Y23248D01*
G01X30929Y23276D01*
G01X30903Y23303D01*
G01X30893Y23315D01*
G01X30884Y23329D01*
G01X30878Y23344D01*
G01X30875Y23359D01*
G01X30873Y23375D01*
G01X30875Y23391D01*
G01X30878Y23407D01*
G01X30884Y23422D01*
G01X30893Y23435D01*
G01X30903Y23447D01*
G01X30929Y23474D01*
G01X30952Y23502D01*
G01X30974Y23531D01*
G01X30994Y23562D01*
G01X31012Y23594D01*
G01X31028Y23627D01*
G01X31042Y23661D01*
G01X31054Y23695D01*
G01X31064Y23730D01*
G01X31072Y23766D01*
G01X31078Y23802D01*
G01X31081Y23839D01*
G01X31082Y23875D01*
G01X31081Y23911D01*
G01X31078Y23945D01*
G01X31073Y23980D01*
G01X31066Y24014D01*
G01X31057Y24048D01*
G01X31046Y24082D01*
G01X31033Y24114D01*
G01X31018Y24146D01*
G01X31001Y24177D01*
G01X30983Y24207D01*
G01X30963Y24235D01*
G01X30941Y24263D01*
G01X30918Y24289D01*
G01X30893Y24314D01*
G01X30867Y24337D01*
G01X30839Y24359D01*
G01X30811Y24379D01*
G01X30781Y24397D01*
G01X30750Y24414D01*
G01X30718Y24429D01*
G01X30686Y24442D01*
G01X30652Y24453D01*
G01X30618Y24462D01*
G01X30584Y24469D01*
G01X30549Y24474D01*
G01X30515Y24477D01*
G37*
G36*
G01X29430Y28275D02*
G01X28241Y28275D01*
G01X28241Y26961D01*
G01X29177Y26961D01*
G01X29201Y26962D01*
G01X29224Y26965D01*
G01X29247Y26971D01*
G01X29269Y26978D01*
G01X29290Y26987D01*
G01X29310Y26999D01*
G01X29330Y27012D01*
G01X29348Y27027D01*
G01X29364Y27043D01*
G01X29379Y27061D01*
G01X29392Y27081D01*
G01X29404Y27101D01*
G01X29413Y27122D01*
G01X29420Y27144D01*
G01X29426Y27167D01*
G01X29429Y27190D01*
G01X29430Y27213D01*
G01X29430Y28275D01*
G37*
G36*
G01X26114Y28275D02*
G01X24925Y28275D01*
G01X24925Y27213D01*
G01X24926Y27190D01*
G01X24929Y27167D01*
G01X24935Y27144D01*
G01X24942Y27122D01*
G01X24951Y27101D01*
G01X24963Y27081D01*
G01X24976Y27061D01*
G01X24991Y27043D01*
G01X25007Y27027D01*
G01X25025Y27012D01*
G01X25045Y26999D01*
G01X25065Y26987D01*
G01X25086Y26978D01*
G01X25108Y26971D01*
G01X25131Y26965D01*
G01X25154Y26962D01*
G01X25178Y26961D01*
G01X26114Y26961D01*
G01X26114Y28275D01*
G37*
G36*
G01X29177Y31966D02*
G01X28241Y31966D01*
G01X28241Y30652D01*
G01X29430Y30652D01*
G01X29430Y31713D01*
G01X29429Y31737D01*
G01X29426Y31760D01*
G01X29420Y31783D01*
G01X29413Y31805D01*
G01X29404Y31826D01*
G01X29392Y31846D01*
G01X29379Y31866D01*
G01X29364Y31884D01*
G01X29348Y31900D01*
G01X29330Y31915D01*
G01X29310Y31928D01*
G01X29290Y31939D01*
G01X29269Y31949D01*
G01X29247Y31956D01*
G01X29224Y31962D01*
G01X29201Y31965D01*
G01X29177Y31966D01*
G37*
G36*
G01X26114Y31966D02*
G01X25178Y31966D01*
G01X25154Y31965D01*
G01X25131Y31962D01*
G01X25108Y31956D01*
G01X25086Y31949D01*
G01X25065Y31939D01*
G01X25045Y31928D01*
G01X25025Y31915D01*
G01X25007Y31900D01*
G01X24991Y31884D01*
G01X24976Y31866D01*
G01X24963Y31846D01*
G01X24951Y31826D01*
G01X24942Y31805D01*
G01X24935Y31783D01*
G01X24929Y31760D01*
G01X24926Y31737D01*
G01X24925Y31713D01*
G01X24925Y30652D01*
G01X26114Y30652D01*
G01X26114Y31966D01*
G37*
G36*
G01X6552Y37389D02*
G01X6552Y38128D01*
G01X6497Y38098D01*
G01X6444Y38066D01*
G01X6391Y38032D01*
G01X6340Y37997D01*
G01X6290Y37959D01*
G01X6241Y37920D01*
G01X6194Y37879D01*
G01X6149Y37837D01*
G01X6104Y37792D01*
G01X6062Y37747D01*
G01X6021Y37700D01*
G01X5982Y37651D01*
G01X5944Y37601D01*
G01X5909Y37550D01*
G01X5875Y37497D01*
G01X5843Y37444D01*
G01X5813Y37389D01*
G01X6552Y37389D01*
G37*
G36*
G01X8918Y35762D02*
G01X8179Y35762D01*
G01X8179Y35023D01*
G01X8234Y35053D01*
G01X8287Y35085D01*
G01X8340Y35119D01*
G01X8391Y35154D01*
G01X8441Y35192D01*
G01X8490Y35231D01*
G01X8537Y35272D01*
G01X8582Y35314D01*
G01X8627Y35359D01*
G01X8669Y35404D01*
G01X8710Y35451D01*
G01X8749Y35500D01*
G01X8787Y35550D01*
G01X8822Y35601D01*
G01X8856Y35654D01*
G01X8888Y35707D01*
G01X8918Y35762D01*
G37*
G36*
G01X6552Y35762D02*
G01X5813Y35762D01*
G01X5843Y35707D01*
G01X5875Y35654D01*
G01X5909Y35601D01*
G01X5944Y35550D01*
G01X5982Y35500D01*
G01X6021Y35451D01*
G01X6062Y35404D01*
G01X6104Y35359D01*
G01X6149Y35314D01*
G01X6194Y35272D01*
G01X6241Y35231D01*
G01X6290Y35192D01*
G01X6340Y35154D01*
G01X6391Y35119D01*
G01X6444Y35085D01*
G01X6497Y35053D01*
G01X6552Y35023D01*
G01X6552Y35762D01*
G37*
G36*
G01X8234Y38098D02*
G01X8179Y38128D01*
G01X8179Y37389D01*
G01X8918Y37389D01*
G01X8888Y37444D01*
G01X8856Y37497D01*
G01X8822Y37550D01*
G01X8787Y37601D01*
G01X8749Y37651D01*
G01X8710Y37700D01*
G01X8669Y37747D01*
G01X8627Y37792D01*
G01X8582Y37837D01*
G01X8537Y37879D01*
G01X8490Y37920D01*
G01X8441Y37959D01*
G01X8391Y37997D01*
G01X8340Y38032D01*
G01X8287Y38066D01*
G01X8234Y38098D01*
G37*
G36*
G01X6552Y25602D02*
G01X5813Y25602D01*
G01X5843Y25547D01*
G01X5875Y25494D01*
G01X5909Y25441D01*
G01X5944Y25390D01*
G01X5982Y25340D01*
G01X6021Y25291D01*
G01X6062Y25244D01*
G01X6104Y25199D01*
G01X6149Y25154D01*
G01X6194Y25112D01*
G01X6241Y25071D01*
G01X6290Y25032D01*
G01X6340Y24994D01*
G01X6391Y24959D01*
G01X6444Y24925D01*
G01X6497Y24893D01*
G01X6552Y24863D01*
G01X6552Y25602D01*
G37*
G36*
G01X8918Y25602D02*
G01X8179Y25602D01*
G01X8179Y24863D01*
G01X8234Y24893D01*
G01X8287Y24925D01*
G01X8340Y24959D01*
G01X8391Y24994D01*
G01X8441Y25032D01*
G01X8490Y25071D01*
G01X8537Y25112D01*
G01X8582Y25154D01*
G01X8627Y25199D01*
G01X8669Y25244D01*
G01X8710Y25291D01*
G01X8749Y25340D01*
G01X8787Y25390D01*
G01X8822Y25441D01*
G01X8856Y25494D01*
G01X8888Y25547D01*
G01X8918Y25602D01*
G37*
G36*
G01X6552Y27229D02*
G01X6552Y27968D01*
G01X6497Y27938D01*
G01X6444Y27906D01*
G01X6391Y27872D01*
G01X6340Y27837D01*
G01X6290Y27799D01*
G01X6241Y27760D01*
G01X6194Y27719D01*
G01X6149Y27677D01*
G01X6104Y27632D01*
G01X6062Y27587D01*
G01X6021Y27540D01*
G01X5982Y27491D01*
G01X5944Y27441D01*
G01X5909Y27390D01*
G01X5875Y27337D01*
G01X5843Y27284D01*
G01X5813Y27229D01*
G01X6552Y27229D01*
G37*
G36*
G01X8234Y27938D02*
G01X8179Y27968D01*
G01X8179Y27229D01*
G01X8918Y27229D01*
G01X8888Y27284D01*
G01X8856Y27337D01*
G01X8822Y27390D01*
G01X8787Y27441D01*
G01X8749Y27491D01*
G01X8710Y27540D01*
G01X8669Y27587D01*
G01X8627Y27632D01*
G01X8582Y27677D01*
G01X8537Y27719D01*
G01X8490Y27760D01*
G01X8441Y27799D01*
G01X8391Y27837D01*
G01X8340Y27872D01*
G01X8287Y27906D01*
G01X8234Y27938D01*
G37*
G36*
G01X23367Y19718D02*
G01X23323Y19741D01*
G01X23323Y19259D01*
G01X23805Y19259D01*
G01X23782Y19303D01*
G01X23757Y19346D01*
G01X23730Y19387D01*
G01X23701Y19428D01*
G01X23670Y19467D01*
G01X23638Y19504D01*
G01X23604Y19540D01*
G01X23568Y19574D01*
G01X23531Y19606D01*
G01X23492Y19637D01*
G01X23451Y19666D01*
G01X23410Y19693D01*
G01X23367Y19718D01*
G37*
G36*
G01X23805Y18332D02*
G01X23323Y18332D01*
G01X23323Y17850D01*
G01X23367Y17873D01*
G01X23410Y17898D01*
G01X23451Y17925D01*
G01X23492Y17954D01*
G01X23531Y17985D01*
G01X23568Y18017D01*
G01X23604Y18051D01*
G01X23638Y18087D01*
G01X23670Y18124D01*
G01X23701Y18163D01*
G01X23730Y18204D01*
G01X23757Y18245D01*
G01X23782Y18288D01*
G01X23805Y18332D01*
G37*
G36*
G01X22396Y19259D02*
G01X22396Y19741D01*
G01X22352Y19718D01*
G01X22309Y19693D01*
G01X22268Y19666D01*
G01X22227Y19637D01*
G01X22188Y19606D01*
G01X22151Y19574D01*
G01X22115Y19540D01*
G01X22081Y19504D01*
G01X22049Y19467D01*
G01X22018Y19428D01*
G01X21989Y19387D01*
G01X21962Y19346D01*
G01X21937Y19303D01*
G01X21914Y19259D01*
G01X22396Y19259D01*
G37*
G36*
G01X22396Y18332D02*
G01X21914Y18332D01*
G01X21937Y18288D01*
G01X21962Y18245D01*
G01X21989Y18204D01*
G01X22018Y18163D01*
G01X22049Y18124D01*
G01X22081Y18087D01*
G01X22115Y18051D01*
G01X22151Y18017D01*
G01X22188Y17985D01*
G01X22227Y17954D01*
G01X22268Y17925D01*
G01X22309Y17898D01*
G01X22352Y17873D01*
G01X22396Y17850D01*
G01X22396Y18332D01*
G37*
G36*
G01X15544Y44754D02*
G01X15068Y44754D01*
G01X15090Y44711D01*
G01X15115Y44668D01*
G01X15141Y44627D01*
G01X15170Y44587D01*
G01X15200Y44549D01*
G01X15232Y44512D01*
G01X15266Y44476D01*
G01X15302Y44442D01*
G01X15339Y44410D01*
G01X15377Y44380D01*
G01X15417Y44351D01*
G01X15458Y44325D01*
G01X15501Y44300D01*
G01X15544Y44278D01*
G01X15544Y44754D01*
G37*
G36*
G01X16935Y44754D02*
G01X16459Y44754D01*
G01X16459Y44278D01*
G01X16502Y44300D01*
G01X16545Y44325D01*
G01X16586Y44351D01*
G01X16626Y44380D01*
G01X16664Y44410D01*
G01X16701Y44442D01*
G01X16737Y44476D01*
G01X16771Y44512D01*
G01X16803Y44549D01*
G01X16833Y44587D01*
G01X16862Y44627D01*
G01X16888Y44668D01*
G01X16913Y44711D01*
G01X16935Y44754D01*
G37*
G36*
G01X15544Y45669D02*
G01X15544Y46145D01*
G01X15501Y46123D01*
G01X15458Y46098D01*
G01X15417Y46072D01*
G01X15377Y46043D01*
G01X15339Y46013D01*
G01X15302Y45981D01*
G01X15266Y45947D01*
G01X15232Y45911D01*
G01X15200Y45874D01*
G01X15170Y45836D01*
G01X15141Y45796D01*
G01X15115Y45755D01*
G01X15090Y45712D01*
G01X15068Y45669D01*
G01X15544Y45669D01*
G37*
G36*
G01X18084Y44754D02*
G01X17608Y44754D01*
G01X17630Y44711D01*
G01X17655Y44668D01*
G01X17681Y44627D01*
G01X17710Y44587D01*
G01X17740Y44549D01*
G01X17772Y44512D01*
G01X17806Y44476D01*
G01X17842Y44442D01*
G01X17879Y44410D01*
G01X17917Y44380D01*
G01X17957Y44351D01*
G01X17998Y44325D01*
G01X18041Y44300D01*
G01X18084Y44278D01*
G01X18084Y44754D01*
G37*
G36*
G01X18084Y45669D02*
G01X18084Y46145D01*
G01X18041Y46123D01*
G01X17998Y46098D01*
G01X17957Y46072D01*
G01X17917Y46043D01*
G01X17879Y46013D01*
G01X17842Y45981D01*
G01X17806Y45947D01*
G01X17772Y45911D01*
G01X17740Y45874D01*
G01X17710Y45836D01*
G01X17681Y45796D01*
G01X17655Y45755D01*
G01X17630Y45712D01*
G01X17608Y45669D01*
G01X18084Y45669D01*
G37*
G36*
G01X16502Y46123D02*
G01X16459Y46145D01*
G01X16459Y45669D01*
G01X16935Y45669D01*
G01X16913Y45712D01*
G01X16888Y45755D01*
G01X16862Y45796D01*
G01X16833Y45836D01*
G01X16803Y45874D01*
G01X16771Y45911D01*
G01X16737Y45947D01*
G01X16701Y45981D01*
G01X16664Y46013D01*
G01X16626Y46043D01*
G01X16586Y46072D01*
G01X16545Y46098D01*
G01X16502Y46123D01*
G37*
G36*
G01X19042Y46123D02*
G01X18999Y46145D01*
G01X18999Y45669D01*
G01X19475Y45669D01*
G01X19453Y45712D01*
G01X19428Y45755D01*
G01X19402Y45796D01*
G01X19373Y45836D01*
G01X19343Y45874D01*
G01X19311Y45911D01*
G01X19277Y45947D01*
G01X19241Y45981D01*
G01X19204Y46013D01*
G01X19166Y46043D01*
G01X19126Y46072D01*
G01X19085Y46098D01*
G01X19042Y46123D01*
G37*
G36*
G01X19475Y44754D02*
G01X18999Y44754D01*
G01X18999Y44278D01*
G01X19042Y44300D01*
G01X19085Y44325D01*
G01X19126Y44351D01*
G01X19166Y44380D01*
G01X19204Y44410D01*
G01X19241Y44442D01*
G01X19277Y44476D01*
G01X19311Y44512D01*
G01X19343Y44549D01*
G01X19373Y44587D01*
G01X19402Y44627D01*
G01X19428Y44668D01*
G01X19453Y44711D01*
G01X19475Y44754D01*
G37*

%LPD*%
G54D11*
G01X27178Y44704D02*
G01X25908Y44704D01*
G01X21844Y40640D01*
G01X21844Y34386D01*
G01X21844Y25908D01*
G01X25400Y22352D01*
G01X25400Y18796D01*
G54D12*
G01X7366Y16256D02*
G01X13970Y9652D01*
G01X16002Y9652D01*
G01X7366Y11176D02*
G01X11430Y7112D01*
G01X16002Y7112D01*
G01X7366Y6096D02*
G01X8890Y4572D01*
G01X16002Y4572D01*
G01X7366Y21336D02*
G01X9652Y21336D01*
G01X11684Y19304D01*
G01X11684Y15494D01*
G01X14986Y12192D01*
G01X16002Y12192D01*
G54D13*
G01X27178Y44704D03*
G01X27178Y29464D03*
G54D14*
G01X7366Y46736D03*
G01X7366Y41737D03*
G01X7366Y36576D03*
G01X7366Y31496D03*
G01X7366Y26416D03*
G01X7366Y21336D03*
G01X7366Y16256D03*
G01X7366Y11176D03*
G01X7366Y6096D03*
G54D15*
G01X30480Y18796D03*
G54D16*
G01X27940Y18796D03*
G01X25400Y18796D03*
G01X22860Y18796D03*
G01X22860Y11176D03*
G01X25400Y11176D03*
G01X27940Y11176D03*
G01X30480Y11176D03*
G54D17*
G01X27178Y33502D03*
G01X27178Y40995D03*
G54D18*
G01X30480Y22875D03*
G01X30480Y23876D03*
G54D19*
G01X21082Y50546D03*
G01X23622Y50546D03*
G01X26162Y50546D03*
G01X28702Y50546D03*
G01X31242Y50546D03*
G01X21082Y2032D03*
G01X23622Y2032D03*
G01X26162Y2032D03*
G01X28702Y2032D03*
G01X31242Y2032D03*
G01X18542Y45212D03*
G01X16002Y24892D03*
G01X18542Y24892D03*
G01X16002Y27432D03*
G01X18542Y27432D03*
G01X16002Y29972D03*
G01X18542Y29972D03*
G01X16002Y32512D03*
G01X18542Y32512D03*
G01X16002Y35052D03*
G01X18542Y35052D03*
G01X16002Y37592D03*
G01X18542Y37592D03*
G01X16002Y40132D03*
G01X18542Y40132D03*
G01X16002Y42672D03*
G01X18542Y42672D03*
G01X16002Y45212D03*
G01X18542Y22352D03*
G01X16002Y2032D03*
G01X18542Y2032D03*
G01X16002Y4572D03*
G01X18542Y4572D03*
G01X16002Y7112D03*
G01X18542Y7112D03*
G01X16002Y9652D03*
G01X18542Y9652D03*
G01X16002Y12192D03*
G01X18542Y12192D03*
G01X16002Y14732D03*
G01X18542Y14732D03*
G01X16002Y17272D03*
G01X18542Y17272D03*
G01X16002Y19812D03*
G01X18542Y19812D03*
G01X16002Y22352D03*
M00*
M02*
