;Layer: Drill PTH
;EasyEDA v6.2.46, 2019-11-12T08:41:23+00:00
;a54ae0302d0d4d44958841ca790c1891,6515191c65484b44ad2e16bf32a5f50e,10
;Gerber Generator version 0.2
M48
METRIC,LZ,000.000
;Holesize 1 = 0.400 METRIC
T01C0.400
;Holesize 2 = 0.889 METRIC
T02C0.889
;Holesize 3 = 1.200 METRIC
T03C1.200
;Holesize 4 = 1.701 METRIC
T04C1.701
%
G05
G90
T01
X+030480Y+022875
X+030480Y+023876
T02
X+030480Y+018796
X+027940Y+018796
X+025400Y+018796
X+022860Y+018796
X+022860Y+011176
X+025400Y+011176
X+027940Y+011176
X+030480Y+011176
X+021082Y+050546
X+023622Y+050546
X+026162Y+050546
X+028702Y+050546
X+031242Y+050546
X+021082Y+002032
X+023622Y+002032
X+026162Y+002032
X+028702Y+002032
X+031242Y+002032
X+018542Y+045212
X+016002Y+024892
X+018542Y+024892
X+016002Y+027432
X+018542Y+027432
X+016002Y+029972
X+018542Y+029972
X+016002Y+032512
X+018542Y+032512
X+016002Y+035052
X+018542Y+035052
X+016002Y+037592
X+018542Y+037592
X+016002Y+040132
X+018542Y+040132
X+016002Y+042672
X+018542Y+042672
X+016002Y+045212
X+018542Y+022352
X+016002Y+002032
X+018542Y+002032
X+016002Y+004572
X+018542Y+004572
X+016002Y+007112
X+018542Y+007112
X+016002Y+009652
X+018542Y+009652
X+016002Y+012192
X+018542Y+012192
X+016002Y+014732
X+018542Y+014732
X+016002Y+017272
X+018542Y+017272
X+016002Y+019812
X+018542Y+019812
X+016002Y+022352
T03
X+027178Y+033502
X+027178Y+040995
T04
X+007366Y+046736
X+007366Y+041737
X+007366Y+036576
X+007366Y+031496
X+007366Y+026416
X+007366Y+021336
X+007366Y+016256
X+007366Y+011176
X+007366Y+006096
M30
