G04 Layer: TopSilkLayer*
G04 EasyEDA v6.2.46, 2019-11-12T08:41:23+00:00*
G04 a54ae0302d0d4d44958841ca790c1891,6515191c65484b44ad2e16bf32a5f50e,10*
G04 Gerber Generator version 0.2*
G04 Scale: 100 percent, Rotated: No, Reflected: No *
G04 Dimensions in millimeters *
G04 leading zeros omitted , absolute positions ,3 integer and 3 decimal *
%FSLAX33Y33*%
%MOMM*%
G90*
G71D02*

%ADD10C,0.254000*%
%ADD22C,0.152400*%
%ADD23C,0.203200*%
%ADD24C,0.399999*%

%LPD*%
G54D10*
G01X11176Y49276D02*
G01X11176Y8636D01*
G01X11176Y49276D02*
G01X3556Y49276D01*
G01X3556Y49276D01*
G01X11176Y8636D02*
G01X11176Y3556D01*
G01X11176Y3556D02*
G01X3556Y3556D01*
G01X3556Y49276D02*
G01X3556Y3556D01*
G01X21590Y17526D02*
G01X21590Y12446D01*
G01X21590Y12446D02*
G01X31750Y12446D01*
G01X21590Y17526D02*
G01X31750Y17526D01*
G01X31750Y17526D02*
G01X31750Y16256D01*
G01X31750Y13716D02*
G01X31750Y12446D01*
G54D22*
G01X27178Y40640D02*
G01X27178Y38608D01*
G01X26162Y39624D02*
G01X28194Y39624D01*
G01X28067Y34174D02*
G01X28067Y32650D01*
G01X21082Y41148D02*
G01X20066Y41148D01*
G01X20066Y44196D01*
G01X20174Y44304D01*
G01X27178Y44304D01*
G01X34181Y44304D01*
G01X34290Y44196D01*
G01X34290Y41148D01*
G01X33274Y41148D01*
G54D23*
G01X2639Y46327D02*
G01X2639Y47144D01*
G01X3048Y46736D02*
G01X2230Y46736D01*
G01X1384Y46189D02*
G01X1838Y46189D01*
G01X1884Y46598D01*
G01X1838Y46553D01*
G01X1701Y46509D01*
G01X1567Y46509D01*
G01X1430Y46553D01*
G01X1338Y46644D01*
G01X1292Y46781D01*
G01X1292Y46873D01*
G01X1338Y47007D01*
G01X1430Y47099D01*
G01X1567Y47144D01*
G01X1701Y47144D01*
G01X1838Y47099D01*
G01X1884Y47053D01*
G01X1930Y46962D01*
G01X993Y46509D02*
G01X721Y47144D01*
G01X447Y46509D02*
G01X721Y47144D01*
G01X2410Y40993D02*
G01X2501Y40901D01*
G01X2639Y40855D01*
G01X2821Y40855D01*
G01X2956Y40901D01*
G01X3048Y40993D01*
G01X3048Y41084D01*
G01X3002Y41175D01*
G01X2956Y41219D01*
G01X2865Y41264D01*
G01X2593Y41356D01*
G01X2501Y41402D01*
G01X2456Y41447D01*
G01X2410Y41539D01*
G01X2410Y41673D01*
G01X2501Y41765D01*
G01X2639Y41810D01*
G01X2821Y41810D01*
G01X2956Y41765D01*
G01X3048Y41673D01*
G01X2110Y40855D02*
G01X2110Y41810D01*
G01X2110Y40855D02*
G01X1475Y41810D01*
G01X1475Y40855D02*
G01X1475Y41810D01*
G01X538Y40993D02*
G01X629Y40901D01*
G01X767Y40855D01*
G01X947Y40855D01*
G01X1084Y40901D01*
G01X1176Y40993D01*
G01X1176Y41084D01*
G01X1130Y41175D01*
G01X1084Y41219D01*
G01X993Y41264D01*
G01X721Y41356D01*
G01X629Y41402D01*
G01X584Y41447D01*
G01X538Y41539D01*
G01X538Y41673D01*
G01X629Y41765D01*
G01X767Y41810D01*
G01X947Y41810D01*
G01X1084Y41765D01*
G01X1176Y41673D01*
G01X2367Y36004D02*
G01X2410Y35913D01*
G01X2501Y35821D01*
G01X2593Y35775D01*
G01X2776Y35775D01*
G01X2865Y35821D01*
G01X2956Y35913D01*
G01X3002Y36004D01*
G01X3048Y36139D01*
G01X3048Y36367D01*
G01X3002Y36504D01*
G01X2956Y36593D01*
G01X2865Y36685D01*
G01X2776Y36730D01*
G01X2593Y36730D01*
G01X2501Y36685D01*
G01X2410Y36593D01*
G01X2367Y36504D01*
G01X2367Y36367D01*
G01X2593Y36367D02*
G01X2367Y36367D01*
G01X2065Y35775D02*
G01X2065Y36730D01*
G01X2065Y35775D02*
G01X1430Y36730D01*
G01X1430Y35775D02*
G01X1430Y36730D01*
G01X1130Y35775D02*
G01X1130Y36730D01*
G01X1130Y35775D02*
G01X812Y35775D01*
G01X675Y35821D01*
G01X584Y35913D01*
G01X538Y36004D01*
G01X492Y36139D01*
G01X492Y36367D01*
G01X538Y36504D01*
G01X584Y36593D01*
G01X675Y36685D01*
G01X812Y36730D01*
G01X1130Y36730D01*
G01X2639Y30579D02*
G01X2639Y31396D01*
G01X3048Y30988D02*
G01X2230Y30988D01*
G01X1384Y30441D02*
G01X1838Y30441D01*
G01X1884Y30850D01*
G01X1838Y30805D01*
G01X1701Y30761D01*
G01X1567Y30761D01*
G01X1430Y30805D01*
G01X1338Y30896D01*
G01X1292Y31033D01*
G01X1292Y31125D01*
G01X1338Y31259D01*
G01X1430Y31351D01*
G01X1567Y31396D01*
G01X1701Y31396D01*
G01X1838Y31351D01*
G01X1884Y31305D01*
G01X1930Y31214D01*
G01X993Y30761D02*
G01X721Y31396D01*
G01X447Y30761D02*
G01X721Y31396D01*
G01X2367Y25844D02*
G01X2410Y25753D01*
G01X2501Y25661D01*
G01X2593Y25615D01*
G01X2776Y25615D01*
G01X2865Y25661D01*
G01X2956Y25753D01*
G01X3002Y25844D01*
G01X3048Y25979D01*
G01X3048Y26207D01*
G01X3002Y26344D01*
G01X2956Y26433D01*
G01X2865Y26525D01*
G01X2776Y26570D01*
G01X2593Y26570D01*
G01X2501Y26525D01*
G01X2410Y26433D01*
G01X2367Y26344D01*
G01X2367Y26207D01*
G01X2593Y26207D02*
G01X2367Y26207D01*
G01X2065Y25615D02*
G01X2065Y26570D01*
G01X2065Y25615D02*
G01X1430Y26570D01*
G01X1430Y25615D02*
G01X1430Y26570D01*
G01X1130Y25615D02*
G01X1130Y26570D01*
G01X1130Y25615D02*
G01X812Y25615D01*
G01X675Y25661D01*
G01X584Y25753D01*
G01X538Y25844D01*
G01X492Y25979D01*
G01X492Y26207D01*
G01X538Y26344D01*
G01X584Y26433D01*
G01X675Y26525D01*
G01X812Y26570D01*
G01X1130Y26570D01*
G01X3048Y20535D02*
G01X3048Y21490D01*
G01X3048Y20535D02*
G01X2639Y20535D01*
G01X2501Y20581D01*
G01X2456Y20627D01*
G01X2410Y20718D01*
G01X2410Y20810D01*
G01X2456Y20899D01*
G01X2501Y20944D01*
G01X2639Y20990D01*
G01X3048Y20990D01*
G01X2730Y20990D02*
G01X2410Y21490D01*
G01X2110Y20535D02*
G01X2110Y21490D01*
G01X2110Y21490D02*
G01X1567Y21490D01*
G01X1264Y20718D02*
G01X1176Y20673D01*
G01X1038Y20535D01*
G01X1038Y21490D01*
G01X3048Y15709D02*
G01X3048Y16664D01*
G01X3048Y15709D02*
G01X2639Y15709D01*
G01X2501Y15755D01*
G01X2456Y15801D01*
G01X2410Y15892D01*
G01X2410Y15984D01*
G01X2456Y16073D01*
G01X2501Y16118D01*
G01X2639Y16164D01*
G01X3048Y16164D01*
G01X2730Y16164D02*
G01X2410Y16664D01*
G01X2110Y15709D02*
G01X2110Y16664D01*
G01X2110Y16664D02*
G01X1567Y16664D01*
G01X1221Y15938D02*
G01X1221Y15892D01*
G01X1176Y15801D01*
G01X1130Y15755D01*
G01X1038Y15709D01*
G01X855Y15709D01*
G01X767Y15755D01*
G01X721Y15801D01*
G01X675Y15892D01*
G01X675Y15984D01*
G01X721Y16073D01*
G01X812Y16210D01*
G01X1264Y16664D01*
G01X629Y16664D01*
G01X3048Y10629D02*
G01X3048Y11584D01*
G01X3048Y10629D02*
G01X2639Y10629D01*
G01X2501Y10675D01*
G01X2456Y10721D01*
G01X2410Y10812D01*
G01X2410Y10904D01*
G01X2456Y10993D01*
G01X2501Y11038D01*
G01X2639Y11084D01*
G01X3048Y11084D01*
G01X2730Y11084D02*
G01X2410Y11584D01*
G01X2110Y10629D02*
G01X2110Y11584D01*
G01X2110Y11584D02*
G01X1567Y11584D01*
G01X1176Y10629D02*
G01X675Y10629D01*
G01X947Y10993D01*
G01X812Y10993D01*
G01X721Y11038D01*
G01X675Y11084D01*
G01X629Y11221D01*
G01X629Y11313D01*
G01X675Y11447D01*
G01X767Y11539D01*
G01X901Y11584D01*
G01X1038Y11584D01*
G01X1176Y11539D01*
G01X1221Y11493D01*
G01X1264Y11402D01*
G01X3048Y5549D02*
G01X3048Y6504D01*
G01X3048Y5549D02*
G01X2639Y5549D01*
G01X2501Y5595D01*
G01X2456Y5641D01*
G01X2410Y5732D01*
G01X2410Y5824D01*
G01X2456Y5913D01*
G01X2501Y5958D01*
G01X2639Y6004D01*
G01X3048Y6004D01*
G01X2730Y6004D02*
G01X2410Y6504D01*
G01X2110Y5549D02*
G01X2110Y6504D01*
G01X2110Y6504D02*
G01X1567Y6504D01*
G01X812Y5549D02*
G01X1264Y6187D01*
G01X584Y6187D01*
G01X812Y5549D02*
G01X812Y6504D01*
G01X27866Y36647D02*
G01X27467Y36647D01*
G01X27686Y36939D01*
G01X27576Y36939D01*
G01X27503Y36974D01*
G01X27467Y37010D01*
G01X27432Y37119D01*
G01X27432Y37193D01*
G01X27467Y37302D01*
G01X27541Y37376D01*
G01X27647Y37411D01*
G01X27757Y37411D01*
G01X27866Y37376D01*
G01X27904Y37338D01*
G01X27940Y37266D01*
G01X27190Y36901D02*
G01X26972Y37411D01*
G01X26753Y36901D02*
G01X26972Y37411D01*
G01X28663Y35560D02*
G01X28701Y35486D01*
G01X28772Y35415D01*
G01X28846Y35377D01*
G01X28991Y35377D01*
G01X29065Y35415D01*
G01X29136Y35486D01*
G01X29174Y35560D01*
G01X29209Y35669D01*
G01X29209Y35849D01*
G01X29174Y35958D01*
G01X29136Y36032D01*
G01X29065Y36106D01*
G01X28991Y36141D01*
G01X28846Y36141D01*
G01X28772Y36106D01*
G01X28701Y36032D01*
G01X28663Y35958D01*
G01X28424Y35377D02*
G01X28424Y36141D01*
G01X28424Y35377D02*
G01X28097Y35377D01*
G01X27988Y35415D01*
G01X27952Y35450D01*
G01X27914Y35521D01*
G01X27914Y35595D01*
G01X27952Y35669D01*
G01X27988Y35704D01*
G01X28097Y35740D01*
G01X28424Y35740D01*
G01X28170Y35740D02*
G01X27914Y36141D01*
G01X27675Y35521D02*
G01X27602Y35486D01*
G01X27492Y35377D01*
G01X27492Y36141D01*
G01X27218Y35560D02*
G01X27218Y35521D01*
G01X27180Y35450D01*
G01X27144Y35415D01*
G01X27071Y35377D01*
G01X26926Y35377D01*
G01X26852Y35415D01*
G01X26817Y35450D01*
G01X26781Y35521D01*
G01X26781Y35595D01*
G01X26817Y35669D01*
G01X26890Y35778D01*
G01X27254Y36141D01*
G01X26743Y36141D01*
G01X26469Y35560D02*
G01X26469Y35521D01*
G01X26431Y35450D01*
G01X26395Y35415D01*
G01X26321Y35377D01*
G01X26177Y35377D01*
G01X26103Y35415D01*
G01X26067Y35450D01*
G01X26032Y35521D01*
G01X26032Y35595D01*
G01X26067Y35669D01*
G01X26141Y35778D01*
G01X26504Y36141D01*
G01X25994Y36141D01*
G01X25537Y35377D02*
G01X25646Y35415D01*
G01X25719Y35521D01*
G01X25755Y35704D01*
G01X25755Y35814D01*
G01X25719Y35996D01*
G01X25646Y36106D01*
G01X25537Y36141D01*
G01X25463Y36141D01*
G01X25356Y36106D01*
G01X25283Y35996D01*
G01X25247Y35814D01*
G01X25247Y35704D01*
G01X25283Y35521D01*
G01X25356Y35415D01*
G01X25463Y35377D01*
G01X25537Y35377D01*
G01X28443Y14729D02*
G01X28443Y15494D01*
G01X28443Y14729D02*
G01X28189Y14729D01*
G01X28079Y14767D01*
G01X28006Y14838D01*
G01X27970Y14912D01*
G01X27935Y15021D01*
G01X27935Y15202D01*
G01X27970Y15311D01*
G01X28006Y15385D01*
G01X28079Y15458D01*
G01X28189Y15494D01*
G01X28443Y15494D01*
G01X27185Y14838D02*
G01X27256Y14767D01*
G01X27366Y14729D01*
G01X27510Y14729D01*
G01X27620Y14767D01*
G01X27693Y14838D01*
G01X27693Y14912D01*
G01X27658Y14983D01*
G01X27620Y15021D01*
G01X27549Y15057D01*
G01X27330Y15131D01*
G01X27256Y15166D01*
G01X27221Y15202D01*
G01X27185Y15275D01*
G01X27185Y15385D01*
G01X27256Y15458D01*
G01X27366Y15494D01*
G01X27510Y15494D01*
G01X27620Y15458D01*
G01X27693Y15385D01*
G01X26944Y14874D02*
G01X26870Y14838D01*
G01X26764Y14729D01*
G01X26764Y15494D01*
G01X26449Y14729D02*
G01X26050Y14729D01*
G01X26268Y15021D01*
G01X26159Y15021D01*
G01X26086Y15057D01*
G01X26050Y15092D01*
G01X26014Y15202D01*
G01X26014Y15275D01*
G01X26050Y15385D01*
G01X26124Y15458D01*
G01X26233Y15494D01*
G01X26340Y15494D01*
G01X26449Y15458D01*
G01X26487Y15420D01*
G01X26522Y15349D01*
G01X25555Y14729D02*
G01X25664Y14767D01*
G01X25738Y14874D01*
G01X25773Y15057D01*
G01X25773Y15166D01*
G01X25738Y15349D01*
G01X25664Y15458D01*
G01X25555Y15494D01*
G01X25484Y15494D01*
G01X25374Y15458D01*
G01X25301Y15349D01*
G01X25265Y15166D01*
G01X25265Y15057D01*
G01X25301Y14874D01*
G01X25374Y14767D01*
G01X25484Y14729D01*
G01X25555Y14729D01*
G01X24516Y14729D02*
G01X24879Y15494D01*
G01X25024Y14729D02*
G01X24516Y14729D01*
G01X23947Y14838D02*
G01X23947Y15494D01*
G01X24275Y15166D02*
G01X23622Y15166D01*
G01X28120Y22931D02*
G01X27721Y22931D01*
G01X27940Y23223D01*
G01X27830Y23223D01*
G01X27757Y23258D01*
G01X27721Y23294D01*
G01X27686Y23403D01*
G01X27686Y23477D01*
G01X27721Y23586D01*
G01X27795Y23660D01*
G01X27901Y23695D01*
G01X28011Y23695D01*
G01X28120Y23660D01*
G01X28158Y23622D01*
G01X28194Y23550D01*
G01X27409Y23114D02*
G01X27409Y23075D01*
G01X27371Y23004D01*
G01X27335Y22969D01*
G01X27264Y22931D01*
G01X27117Y22931D01*
G01X27045Y22969D01*
G01X27007Y23004D01*
G01X26972Y23075D01*
G01X26972Y23149D01*
G01X27007Y23223D01*
G01X27081Y23332D01*
G01X27444Y23695D01*
G01X26936Y23695D01*
G01X26659Y23512D02*
G01X26695Y23550D01*
G01X26659Y23586D01*
G01X26624Y23550D01*
G01X26659Y23512D01*
G01X25874Y22931D02*
G01X26238Y23695D01*
G01X26382Y22931D02*
G01X25874Y22931D01*
G01X25196Y23040D02*
G01X25234Y22969D01*
G01X25344Y22931D01*
G01X25415Y22931D01*
G01X25524Y22969D01*
G01X25598Y23075D01*
G01X25633Y23258D01*
G01X25633Y23441D01*
G01X25598Y23586D01*
G01X25524Y23660D01*
G01X25415Y23695D01*
G01X25379Y23695D01*
G01X25270Y23660D01*
G01X25196Y23586D01*
G01X25161Y23477D01*
G01X25161Y23441D01*
G01X25196Y23332D01*
G01X25270Y23258D01*
G01X25379Y23223D01*
G01X25415Y23223D01*
G01X25524Y23258D01*
G01X25598Y23332D01*
G01X25633Y23441D01*
G01X24739Y22931D02*
G01X24848Y22969D01*
G01X24884Y23040D01*
G01X24884Y23114D01*
G01X24848Y23185D01*
G01X24775Y23223D01*
G01X24630Y23258D01*
G01X24521Y23294D01*
G01X24447Y23368D01*
G01X24411Y23441D01*
G01X24411Y23550D01*
G01X24447Y23622D01*
G01X24485Y23660D01*
G01X24594Y23695D01*
G01X24739Y23695D01*
G01X24848Y23660D01*
G01X24884Y23622D01*
G01X24922Y23550D01*
G01X24922Y23441D01*
G01X24884Y23368D01*
G01X24813Y23294D01*
G01X24704Y23258D01*
G01X24556Y23223D01*
G01X24485Y23185D01*
G01X24447Y23114D01*
G01X24447Y23040D01*
G01X24485Y22969D01*
G01X24594Y22931D01*
G01X24739Y22931D01*
G01X24173Y22931D02*
G01X24173Y23695D01*
G01X23662Y22931D02*
G01X24173Y23441D01*
G01X23990Y23258D02*
G01X23662Y23695D01*
G01X23423Y22931D02*
G01X23423Y23695D01*
G01X22913Y22931D02*
G01X22913Y23695D01*
G01X23423Y23294D02*
G01X22913Y23294D01*
G01X22273Y23185D02*
G01X22674Y23695D01*
G01X22674Y23185D02*
G01X22273Y23185D01*
G01X22674Y23695D02*
G01X22273Y23695D01*
G01X26670Y4864D02*
G01X26670Y5819D01*
G01X26670Y4864D02*
G01X26261Y4864D01*
G01X26123Y4909D01*
G01X26078Y4955D01*
G01X26032Y5046D01*
G01X26032Y5138D01*
G01X26078Y5227D01*
G01X26123Y5273D01*
G01X26261Y5318D01*
G01X26670Y5318D01*
G01X26352Y5318D02*
G01X26032Y5819D01*
G01X25415Y4864D02*
G01X25415Y5819D01*
G01X25732Y4864D02*
G01X25097Y4864D01*
G01X24114Y5092D02*
G01X24160Y5001D01*
G01X24251Y4909D01*
G01X24343Y4864D01*
G01X24523Y4864D01*
G01X24615Y4909D01*
G01X24706Y5001D01*
G01X24752Y5092D01*
G01X24798Y5227D01*
G01X24798Y5455D01*
G01X24752Y5593D01*
G01X24706Y5681D01*
G01X24615Y5773D01*
G01X24523Y5819D01*
G01X24343Y5819D01*
G01X24251Y5773D01*
G01X24160Y5681D01*
G01X24114Y5593D01*
G01X23815Y6136D02*
G01X22997Y6136D01*
G01X22697Y4864D02*
G01X22697Y5819D01*
G01X22123Y4864D02*
G01X22214Y4909D01*
G01X22306Y5001D01*
G01X22352Y5092D01*
G01X22397Y5227D01*
G01X22397Y5455D01*
G01X22352Y5593D01*
G01X22306Y5681D01*
G01X22214Y5773D01*
G01X22123Y5819D01*
G01X21943Y5819D01*
G01X21851Y5773D01*
G01X21760Y5681D01*
G01X21714Y5593D01*
G01X21668Y5455D01*
G01X21668Y5227D01*
G01X21714Y5092D01*
G01X21760Y5001D01*
G01X21851Y4909D01*
G01X21943Y4864D01*
G01X22123Y4864D01*
G01X21280Y4729D02*
G01X21280Y5001D01*
G01X20568Y5318D02*
G01X20614Y5227D01*
G01X20751Y5184D01*
G01X20888Y5184D01*
G01X21023Y5227D01*
G01X21069Y5318D01*
G01X21023Y5410D01*
G01X20934Y5455D01*
G01X20706Y5501D01*
G01X20614Y5547D01*
G01X20568Y5636D01*
G01X20568Y5681D01*
G01X20614Y5773D01*
G01X20751Y5819D01*
G01X20888Y5819D01*
G01X21023Y5773D01*
G01X21069Y5681D01*
G01X29210Y7404D02*
G01X29210Y8359D01*
G01X29210Y7404D02*
G01X28801Y7404D01*
G01X28663Y7449D01*
G01X28618Y7495D01*
G01X28572Y7586D01*
G01X28572Y7678D01*
G01X28618Y7767D01*
G01X28663Y7813D01*
G01X28801Y7858D01*
G01X29210Y7858D01*
G01X28892Y7858D02*
G01X28572Y8359D01*
G01X28272Y7404D02*
G01X28272Y8359D01*
G01X28272Y7404D02*
G01X27683Y7404D01*
G01X28272Y7858D02*
G01X27909Y7858D01*
G01X28272Y8359D02*
G01X27683Y8359D01*
G01X27383Y7404D02*
G01X27017Y8359D01*
G01X26654Y7404D02*
G01X27017Y8359D01*
G01X26083Y7404D02*
G01X26217Y7449D01*
G01X26309Y7586D01*
G01X26355Y7813D01*
G01X26355Y7950D01*
G01X26309Y8176D01*
G01X26217Y8313D01*
G01X26083Y8359D01*
G01X25991Y8359D01*
G01X25854Y8313D01*
G01X25765Y8176D01*
G01X25720Y7950D01*
G01X25720Y7813D01*
G01X25765Y7586D01*
G01X25854Y7449D01*
G01X25991Y7404D01*
G01X26083Y7404D01*
G01X25374Y7632D02*
G01X25374Y7586D01*
G01X25328Y7495D01*
G01X25283Y7449D01*
G01X25191Y7404D01*
G01X25008Y7404D01*
G01X24919Y7449D01*
G01X24874Y7495D01*
G01X24828Y7586D01*
G01X24828Y7678D01*
G01X24874Y7767D01*
G01X24965Y7904D01*
G01X25420Y8359D01*
G01X24782Y8359D01*
G01X33164Y4864D02*
G01X33528Y5819D01*
G01X33164Y4864D02*
G01X32801Y5819D01*
G01X33390Y5501D02*
G01X32936Y5501D01*
G01X32181Y4864D02*
G01X32181Y5819D01*
G01X32501Y4864D02*
G01X31864Y4864D01*
G01X31564Y5184D02*
G01X31564Y5819D01*
G01X31564Y5364D02*
G01X31427Y5227D01*
G01X31335Y5184D01*
G01X31201Y5184D01*
G01X31109Y5227D01*
G01X31064Y5364D01*
G01X31064Y5819D01*
G01X31064Y5364D02*
G01X30927Y5227D01*
G01X30838Y5184D01*
G01X30700Y5184D01*
G01X30609Y5227D01*
G01X30563Y5364D01*
G01X30563Y5819D01*
G01X30264Y5455D02*
G01X29718Y5455D01*
G01X29718Y5364D01*
G01X29763Y5273D01*
G01X29809Y5227D01*
G01X29900Y5184D01*
G01X30038Y5184D01*
G01X30126Y5227D01*
G01X30218Y5318D01*
G01X30264Y5455D01*
G01X30264Y5547D01*
G01X30218Y5681D01*
G01X30126Y5773D01*
G01X30038Y5819D01*
G01X29900Y5819D01*
G01X29809Y5773D01*
G01X29718Y5681D01*
G01X28874Y5184D02*
G01X28874Y5910D01*
G01X28917Y6047D01*
G01X28963Y6090D01*
G01X29055Y6136D01*
G01X29192Y6136D01*
G01X29283Y6090D01*
G01X28874Y5318D02*
G01X28963Y5227D01*
G01X29055Y5184D01*
G01X29192Y5184D01*
G01X29283Y5227D01*
G01X29372Y5318D01*
G01X29418Y5455D01*
G01X29418Y5547D01*
G01X29372Y5681D01*
G01X29283Y5773D01*
G01X29192Y5819D01*
G01X29055Y5819D01*
G01X28963Y5773D01*
G01X28874Y5681D01*
G01X28028Y5184D02*
G01X28028Y5819D01*
G01X28028Y5318D02*
G01X28117Y5227D01*
G01X28209Y5184D01*
G01X28346Y5184D01*
G01X28437Y5227D01*
G01X28526Y5318D01*
G01X28572Y5455D01*
G01X28572Y5547D01*
G01X28526Y5681D01*
G01X28437Y5773D01*
G01X28346Y5819D01*
G01X28209Y5819D01*
G01X28117Y5773D01*
G01X28028Y5681D01*
G54D24*
G01X16924Y50162D02*
G01X17015Y49982D01*
G01X17196Y49799D01*
G01X17379Y49710D01*
G01X17742Y49710D01*
G01X17925Y49799D01*
G01X18105Y49982D01*
G01X18196Y50162D01*
G01X18288Y50436D01*
G01X18288Y50891D01*
G01X18196Y51163D01*
G01X18105Y51346D01*
G01X17925Y51526D01*
G01X17742Y51617D01*
G01X17379Y51617D01*
G01X17196Y51526D01*
G01X17015Y51346D01*
G01X16924Y51163D01*
G01X16324Y49710D02*
G01X16324Y51617D01*
G01X16324Y49710D02*
G01X15141Y49710D01*
G01X16324Y50617D02*
G01X15595Y50617D01*
G01X16324Y51617D02*
G01X15141Y51617D01*
G54D10*
G75*
G01X3556Y48301D02*
G02X3556Y44999I-1407J-1651D01*
G01*
G75*
G01X3556Y43221D02*
G02X3556Y39919I-1335J-1651D01*
G01*
G75*
G01X3556Y37846D02*
G02X3556Y34544I-1335J-1651D01*
G01*
G75*
G01X3556Y32766D02*
G02X3556Y29464I-1407J-1651D01*
G01*
G75*
G01X3556Y27686D02*
G02X3556Y24384I-1335J-1651D01*
G01*
G75*
G01X3556Y22606D02*
G02X3556Y19304I-1335J-1651D01*
G01*
G75*
G01X3556Y17526D02*
G02X3556Y14224I-1407J-1651D01*
G01*
G75*
G01X3556Y12446D02*
G02X3556Y9144I-1335J-1651D01*
G01*
G75*
G01X3556Y7366D02*
G02X3556Y4064I-1335J-1651D01*
G01*
G75*
G01X31750Y13716D02*
G02X31750Y16256I0J1270D01*
G01*
G54D22*
G75*
G01X27178Y29863D02*
G03X27051Y29865I81J7219D01*
G01*
G54D10*
G75*
G01X31980Y23376D02*
G03X31980Y23376I-1500J0D01*
G01*
M00*
M02*
